{
.appVersion = "1230";
DisplayStrings = (
"/uni0136"
);
copyright = "Copyright 2019 The Tomorrow Project Authors (https://github.com/googlefonts/Tomorrow)";
customParameters = (
{
name = panose;
value = (
0,
0,
4,
0,
0,
0,
0,
0,
0,
0
);
},
{
name = unicodeRanges;
value = (
0,
1,
2,
29
);
},
{
name = codePageRanges;
value = (
1252,
1250,
1257
);
},
{
name = blueScale;
value = 0.037;
},
{
name = glyphOrder;
value = (
.notdef,
CR,
space,
A,
Aacute,
Abreve,
uni1EAE,
uni1EB6,
uni1EB0,
uni1EB2,
uni1EB4,
Acircumflex,
uni1EA4,
uni1EAC,
uni1EA6,
uni1EA8,
uni1EAA,
uni0200,
Adieresis,
uni1EA0,
Agrave,
uni1EA2,
uni0202,
Amacron,
Aogonek,
Aring,
Aringacute,
Atilde,
AE,
AEacute,
B,
C,
Cacute,
Ccaron,
Ccedilla,
Ccircumflex,
Cdotaccent,
D,
uni01C4,
Eth,
Dcaron,
Dcroat,
uni01C5,
E,
Eacute,
Ebreve,
Ecaron,
Ecircumflex,
uni1EBE,
uni1EC6,
uni1EC0,
uni1EC2,
uni1EC4,
uni0204,
Edieresis,
Edotaccent,
uni1EB8,
Egrave,
uni1EBA,
uni0206,
Emacron,
Eogonek,
uni1EBC,
F,
G,
Gbreve,
Gcaron,
Gcircumflex,
uni0122,
Gdotaccent,
H,
Hbar,
Hcircumflex,
I,
Iacute,
Ibreve,
Icircumflex,
uni0208,
Idieresis,
Idotaccent,
uni1ECA,
Igrave,
uni1EC8,
uni020A,
Imacron,
Iogonek,
Itilde,
J,
Jcircumflex,
K,
uni0136,
L,
uni01C7,
Lacute,
Lcaron,
uni013B,
Ldot,
uni01C8,
Lslash,
M,
N,
uni01CA,
Nacute,
Ncaron,
uni0145,
Eng,
uni01CB,
Ntilde,
O,
Oacute,
Obreve,
Ocircumflex,
uni1ED0,
uni1ED8,
uni1ED2,
uni1ED4,
uni1ED6,
uni020C,
Odieresis,
uni022A,
uni0230,
uni1ECC,
Ograve,
uni1ECE,
Ohorn,
uni1EDA,
uni1EE2,
uni1EDC,
uni1EDE,
uni1EE0,
Ohungarumlaut,
uni020E,
Omacron,
uni01EA,
Oslash,
Oslashacute,
Otilde,
uni022C,
OE,
P,
Thorn,
Q,
R,
Racute,
Rcaron,
uni0156,
uni0210,
uni0212,
S,
Sacute,
Scaron,
Scedilla,
Scircumflex,
uni0218,
uni1E9E,
uni018F,
T,
Tbar,
Tcaron,
uni0162,
uni021A,
U,
Uacute,
Ubreve,
Ucircumflex,
uni0214,
Udieresis,
uni1EE4,
Ugrave,
uni1EE6,
Uhorn,
uni1EE8,
uni1EF0,
uni1EEA,
uni1EEC,
uni1EEE,
Uhungarumlaut,
uni0216,
Umacron,
Uogonek,
Uring,
Utilde,
V,
W,
Wacute,
Wcircumflex,
Wdieresis,
Wgrave,
X,
Y,
Yacute,

glyphs = (
{
glyphname = .notdef;
lastChange = "2019-09-03 16:29:54 +0000";
layers = (
{
hints = (
{
horizontal = 1;
place = "{200.16, 45.84}";
type = Stem;
},
{
horizontal = 1;
place = "{373.62, 148.88}";
type = Stem;
},
{
place = "{88.33, 51.33}";
type = Stem;
},
{
place = "{217.41, 47.67}";
type = Stem;
},
{
place = "{421.58, 47.67}";
type = Stem;
},
{
place = "{547.33, 51.33}";
type = Stem;
}
);
layerId = "43E2286E-6EE6-4840-9A6A-FE0C69444F4F";
paths = (
{
closed = 1;
nodes = (
"139.66 89.83 LINE",
"139.66 129.08 LINE",
"206.33 200.16 LINE",
"481.04 200.16 LINE",
"547.33 129.46 LINE",
"547.33 89.83 LINE",
"598.66 89.83 LINE",
"598.66 145.96 LINE",
"502.96 246 LINE",
"184.04 246 LINE",
"88.33 145.96 LINE",
"88.33 89.83 LINE"
);
},
{
closed = 1;
nodes = (
"265.08 373.62 LINE",
"265.08 522.5 LINE",
"217.41 522.5 LINE",
"217.41 373.62 LINE"
);
},
{
closed = 1;
nodes = (
"469.25 373.62 LINE",
"469.25 522.5 LINE",
"421.58 522.5 LINE",
"421.58 373.62 LINE"
);
}
);
width = 687;
}
);
note = .notdef;
},
{
glyphname = A;
lastChange = "2019-09-03 16:29:54 +0000";
layers = (
{
hints = (
{
horizontal = 1;
place = "{204.25, 51.33}";
type = Stem;
},
{
horizontal = 1;
place = "{682.75, 54.25}";
type = Stem;
},
{
place = "{16.66, 613.34}";
type = Stem;
}
);
layerId = "43E2286E-6EE6-4840-9A6A-FE0C69444F4F";
paths = (
{
closed = 1;
nodes = (
"75.66 0 LINE",
"146.63 204.25 LINE",
"500.43 204.25 LINE",
"571.41 0 LINE",
"630 0 LINE",
"370.91 737 LINE",
"276.25 737 LINE",
"16.66 0 LINE"
);
},
{
closed = 1;
nodes = (
"312.87 682.75 LINE",
"334.12 682.75 LINE",
"482.59 255.58 LINE",
"164.46 255.58 LINE"
);
}
);
width = 647;
}
);
leftKerningGroup = A;
note = A;
rightKerningGroup = A;
unicode = 0041;
},
{
glyphname = Aacute;
lastChange = "2019-09-03 16:29:54 +0000";
layers = (
{
hints = (
{
horizontal = 1;
place = "{204.25, 51.33}";
type = Stem;
},
{
horizontal = 1;
place = "{682.75, 54.25}";
type = Stem;
},
{
horizontal = 1;
place = "{794.25, 143.66}";
type = Stem;
},
{
place = "{16.66, 613.34}";
type = Stem;
}
);
layerId = "43E2286E-6EE6-4840-9A6A-FE0C69444F4F";
paths = (
{
closed = 1;
nodes = (
"75.66 0 LINE",
"146.63 204.25 LINE",
"500.43 204.25 LINE",
"571.41 0 LINE",
"630 0 LINE",
"370.91 737 LINE",
"276.25 737 LINE",
"16.66 0 LINE"
);
},
{
closed = 1;
nodes = (
"312.87 682.75 LINE",
"334.12 682.75 LINE",
"482.59 255.58 LINE",
"164.46 255.58 LINE"
);
},
{
closed = 1;
nodes = (
"348.29 794.25 LINE",
"457.58 937.91 LINE",
"390.87 937.91 LINE",
"300.66 794.25 LINE"
);
}
);
width = 647;
}
);
leftKerningGroup = A;
note = Aacute;
rightKerningGroup = A;
unicode = 00C1;
},
{
glyphname = Abreve;
lastChange = "2019-09-03 16:29:54 +0000";
layers = (
{
hints = (
{
horizontal = 1;
place = "{204.25, 51.33}";
type = Stem;
},
{
horizontal = 1;
place = "{682.75, 54.25}";
type = Stem;
},
{
horizontal = 1;
place = "{794.25, 39.91}";
type = Stem;
},
{
place = "{198.12, 40.79}";
type = Stem;
},
{
place = "{407.5, 40.79}";
type = Stem;
}
);
layerId = "43E2286E-6EE6-4840-9A6A-FE0C69444F4F";
paths = (
{
closed = 1;
nodes = (
"75.66 0 LINE",
"146.63 204.25 LINE",
"500.43 204.25 LINE",
"571.41 0 LINE",
"630 0 LINE",
"370.91 737 LINE",
"276.25 737 LINE",
"16.66 0 LINE"
);
},
{
closed = 1;
nodes = (
"312.87 682.75 LINE",
"334.12 682.75 LINE",
"482.59 255.58 LINE",
"164.46 255.58 LINE"
);
},
{
closed = 1;
nodes = (
"392.16 794.25 LINE",
"448.29 850.33 LINE",
"448.29 919.58 LINE",
"407.5 919.58 LINE",
"407.5 864.58 LINE",
"377.12 834.16 LINE",
"269.29 834.16 LINE",
"238.91 864.58 LINE",
"238.91 919.58 LINE",
"198.12 919.58 LINE",
"198.12 850.33 LINE",
"254.25 794.25 LINE"
);
}
);
width = 647;
}
);
leftKerningGroup = A;
note = Abreve;
rightKerningGroup = A;
unicode = 0102;
},
{
glyphname = uni1EAE;
lastChange = "2019-09-03 16:29:54 +0000";
layers = (
{
hints = (
{
horizontal = 1;
place = "{204.25, 51.33}";
type = Stem;
},
{
horizontal = 1;
place = "{682.75, 54.25}";
type = Stem;
},
{
horizontal = 1;
place = "{794.25, 39.91}";
type = Stem;
},
{
horizontal = 1;
place = "{943.71, 143.66}";
type = Stem;
},
{
place = "{198.12, 40.79}";
type = Stem;
},
{
place = "{407.5, 40.79}";
type = Stem;
}
);
layerId = "43E2286E-6EE6-4840-9A6A-FE0C69444F4F";
paths = (
{
closed = 1;
nodes = (
"75.66 0 LINE",
"146.63 204.25 LINE",
"500.43 204.25 LINE",
"571.41 0 LINE",
"630 0 LINE",
"370.91 737 LINE",
"276.25 737 LINE",
"16.66 0 LINE"
);
},
{
closed = 1;
nodes = (
"312.87 682.75 LINE",
"334.12 682.75 LINE",
"482.59 255.58 LINE",
"164.46 255.58 LINE"
);
},
{
closed = 1;
nodes = (
"392.16 794.25 LINE",
"448.29 850.33 LINE",
"448.29 919.58 LINE",
"407.5 919.58 LINE",
"407.5 864.58 LINE",
"377.12 834.16 LINE",
"269.29 834.16 LINE",
"238.91 864.58 LINE",
"238.91 919.58 LINE",
"198.12 919.58 LINE",
"198.12 850.33 LINE",
"254.25 794.25 LINE"
);
},
{
closed = 1;
nodes = (
"345.04 943.71 LINE",
"454.33 1087.37 LINE",
"387.62 1087.37 LINE",
"297.41 943.71 LINE"
);
}
);
width = 647;
}
);
leftKerningGroup = A;
note = uni1EAE;
rightKerningGroup = A;
unicode = 1EAE;
},
{
glyphname = uni1EB6;
lastChange = "2019-09-03 16:29:54 +0000";
layers = (
{
hints = (
{
horizontal = 1;
place = "{-167.96, 110.71}";
type = Stem;
},
{
horizontal = 1;
place = "{204.25, 51.33}";
type = Stem;
},
{
horizontal = 1;
place = "{682.75, 54.25}";
type = Stem;
},
{
horizontal = 1;
place = "{794.25, 39.91}";
type = Stem;
},
{
place = "{198.12, 40.79}";
type = Stem;
},
{
place = "{295.46, 55}";
type = Stem;
},
{
place = "{407.5, 40.79}";
type = Stem;
}
);
layerId = "43E2286E-6EE6-4840-9A6A-FE0C69444F4F";
paths = (
{
closed = 1;
nodes = (
"75.66 0 LINE",
"146.63 204.25 LINE",
"500.43 204.25 LINE",
"571.41 0 LINE",
"630 0 LINE",
"370.91 737 LINE",
"276.25 737 LINE",
"16.66 0 LINE"
);
},
{
closed = 1;
nodes = (
"350.46 -167.96 LINE",
"350.46 -57.25 LINE",
"295.46 -57.25 LINE",
"295.46 -167.96 LINE"
);
},
{
closed = 1;
nodes = (
"312.87 682.75 LINE",
"334.12 682.75 LINE",
"482.59 255.58 LINE",
"164.46 255.58 LINE"
);
},
{
closed = 1;
nodes = (
"392.16 794.25 LINE",
"448.29 850.33 LINE",
"448.29 919.58 LINE",
"407.5 919.58 LINE",
"407.5 864.58 LINE",
"377.12 834.16 LINE",
"269.29 834.16 LINE",
"238.91 864.58 LINE",
"238.91 919.58 LINE",
"198.12 919.58 LINE",
"198.12 850.33 LINE",
"254.25 794.25 LINE"
);
}
);
width = 647;
}
);
leftKerningGroup = A;
note = uni1EB6;
rightKerningGroup = A;
unicode = 1EB6;
},
{
glyphname = uni1EB0;
lastChange = "2019-09-03 16:29:54 +0000";
layers = (
{
hints = (
{
horizontal = 1;
place = "{204.25, 51.33}";
type = Stem;
},
{
horizontal = 1;
place = "{682.75, 54.25}";
type = Stem;
},
{
horizontal = 1;
place = "{794.25, 39.91}";
type = Stem;
},
{
horizontal = 1;
place = "{943.71, 143.66}";
type = Stem;
},
{
place = "{198.12, 40.79}";
type = Stem;
},
{
place = "{407.5, 40.79}";
type = Stem;
}
);
layerId = "43E2286E-6EE6-4840-9A6A-FE0C69444F4F";
paths = (
{
closed = 1;
nodes = (
"75.66 0 LINE",
"146.63 204.25 LINE",
"500.43 204.25 LINE",
"571.41 0 LINE",
"630 0 LINE",
"370.91 737 LINE",
"276.25 737 LINE",
"16.66 0 LINE"
);
},
{
closed = 1;
nodes = (
"312.87 682.75 LINE",
"334.12 682.75 LINE",
"482.59 255.58 LINE",
"164.46 255.58 LINE"
);
},
{
closed = 1;
nodes = (
"392.16 794.25 LINE",
"448.29 850.33 LINE",
"448.29 919.58 LINE",
"407.5 919.58 LINE",
"407.5 864.58 LINE",
"377.12 834.16 LINE",
"269.29 834.16 LINE",
"238.91 864.58 LINE",
"238.91 919.58 LINE",
"198.12 919.58 LINE",
"198.12 850.33 LINE",
"254.25 794.25 LINE"
);
},
{
closed = 1;
nodes = (
"350.16 943.71 LINE",
"259.96 1087.37 LINE",
"193.25 1087.37 LINE",
"302.54 943.71 LINE"
);
}
);
width = 647;
}
);
leftKerningGroup = A;
note = uni1EB0;
rightKerningGroup = A;
unicode = 1EB0;
},
{
glyphname = uni1EB2;
lastChange = "2019-09-03 16:29:54 +0000";
layers = (
{
hints = (
{
horizontal = 1;
place = "{204.25, 51.33}";
type = Stem;
},
{
horizontal = 1;
place = "{682.75, 54.25}";
type = Stem;
},
{
horizontal = 1;
place = "{794.25, 39.91}";
type = Stem;
},
{
horizontal = 1;
place = "{943.71, 47.54}";
type = Stem;
},
{
horizontal = 1;
place = "{1103.12, 38.09}";
type = Stem;
},
{
place = "{198.12, 40.79}";
type = Stem;
},
{
place = "{301.58, 41.04}";
type = Stem;
},
{
place = "{368.16, 43.46}";
type = Stem;
},
{
place = "{407.5, 40.79}";
type = Stem;
}
);
layerId = "43E2286E-6EE6-4840-9A6A-FE0C69444F4F";
paths = (
{
closed = 1;
nodes = (
"75.66 0 LINE",
"146.63 204.25 LINE",
"500.43 204.25 LINE",
"571.41 0 LINE",
"630 0 LINE",
"370.91 737 LINE",
"276.25 737 LINE",
"16.66 0 LINE"
);
},
{
closed = 1;
nodes = (
"312.87 682.75 LINE",
"334.12 682.75 LINE",
"482.59 255.58 LINE",
"164.46 255.58 LINE"
);
},
{
closed = 1;
nodes = (
"392.16 794.25 LINE",
"448.29 850.33 LINE",
"448.29 919.58 LINE",
"407.5 919.58 LINE",
"407.5 864.58 LINE",
"377.12 834.16 LINE",
"269.29 834.16 LINE",
"238.91 864.58 LINE",
"238.91 919.58 LINE",
"198.12 919.58 LINE",
"198.12 850.33 LINE",
"254.25 794.25 LINE"
);
},
{
closed = 1;
nodes = (
"342.62 943.71 LINE",
"342.62 974.75 LINE",
"411.62 1037.12 LINE",
"411.62 1102.16 LINE",
"373.62 1141.21 LINE",
"285.71 1141.21 LINE",
"243.62 1097.29 LINE",
"272.46 1069 LINE",
"305.33 1103.12 LINE",
"353.71 1103.12 LINE",
"368.16 1088 LINE",
"368.16 1052.83 LINE",
"301.58 991.25 LINE",
"301.58 943.71 LINE"
);
}
);
width = 647;
}
);
leftKerningGroup = A;
note = uni1EB2;
rightKerningGroup = A;
unicode = 1EB2;
},
{
glyphname = uni1EB4;
lastChange = "2019-09-03 16:29:54 +0000";
layers = (
{
hints = (
{
horizontal = 1;
place = "{204.25, 51.33}";
type = Stem;
},
{
horizontal = 1;
place = "{682.75, 54.25}";
type = Stem;
},
{
horizontal = 1;
place = "{794.25, 39.91}";
type = Stem;
},
{
horizontal = 1;
place = "{943.66, 39.21}";
type = Stem;
},
{
horizontal = 1;
place = "{1017, 39.21}";
type = Stem;
},
{
place = "{163.54, 34.29}";
type = Stem;
},
{
place = "{448.24, 34.3}";
type = Stem;
},
{
place = "{198.12, 40.79}";
type = Stem;
},
{
place = "{407.5, 40.79}";
type = Stem;
}
);
layerId = "43E2286E-6EE6-4840-9A6A-FE0C69444F4F";
paths = (
{
closed = 1;
nodes = (
"75.66 0 LINE",
"146.63 204.25 LINE",
"500.43 204.25 LINE",
"571.41 0 LINE",
"630 0 LINE",
"370.91 737 LINE",
"276.25 737 LINE",
"16.66 0 LINE"
);
},
{
closed = 1;
nodes = (
"312.87 682.75 LINE",
"334.12 682.75 LINE",
"482.59 255.58 LINE",
"164.46 255.58 LINE"
);
},
{
closed = 1;
nodes = (
"392.16 794.25 LINE",
"448.29 850.33 LINE",
"448.29 919.58 LINE",
"407.5 919.58 LINE",
"407.5 864.58 LINE",
"377.12 834.16 LINE",
"269.29 834.16 LINE",
"238.91 864.58 LINE",
"238.91 919.58 LINE",
"198.12 919.58 LINE",
"198.12 850.33 LINE",
"254.25 794.25 LINE"
);
},
{
closed = 1;
nodes = (
"427.71 943.66 LINE",
"482.04 999 LINE",
"483.04 1055.08 LINE",
"449.33 1055.08 LINE",
"447.16 1019.12 LINE",
"409.04 982.87 LINE",
"374.58 982.87 LINE",
"300.83 1056.21 LINE",
"218.37 1056.21 LINE",
"164.04 1000.83 LINE",
"163.04 944.75 LINE",
"196.75 944.75 LINE",
"198.91 980.62 LINE",
"237.04 1017 LINE",
"280.33 1017 LINE",
"354 943.66 LINE"
);
}
);
width = 647;
}
);
leftKerningGroup = A;
note = uni1EB4;
rightKerningGroup = A;
unicode = 1EB4;
},
{
glyphname = Acircumflex;
lastChange = "2019-09-03 16:29:54 +0000";
layers = (
{
hints = (
{
horizontal = 1;
place = "{204.25, 51.33}";
type = Stem;
},
{
horizontal = 1;
place = "{682.75, 54.25}";
type = Stem;
},
{
horizontal = 1;
place = "{895.37, 38.21}";
type = Stem;
},
{
place = "{16.66, 613.34}";
type = Stem;
}
);
layerId = "43E2286E-6EE6-4840-9A6A-FE0C69444F4F";
paths = (
{
closed = 1;
nodes = (
"75.66 0 LINE",
"146.63 204.25 LINE",
"500.43 204.25 LINE",
"571.41 0 LINE",
"630 0 LINE",
"370.91 737 LINE",
"276.25 737 LINE",
"16.66 0 LINE"
);
},
{
closed = 1;
nodes = (
"312.87 682.75 LINE",
"334.12 682.75 LINE",
"482.59 255.58 LINE",
"164.46 255.58 LINE"
);
},
{
closed = 1;
nodes = (
"230.41 794.25 LINE",
"317.37 895.37 LINE",
"329.04 895.37 LINE",
"416 794.25 LINE",
"464.37 794.25 LINE",
"359.87 933.58 LINE",
"286.54 933.58 LINE",
"182.04 794.25 LINE"
);
}
);
width = 647;
}
);
leftKerningGroup = A;
note = Acircumflex;
rightKerningGroup = A;
unicode = 00C2;
},
{
glyphname = uni1EA4;
lastChange = "2019-09-03 16:29:54 +0000";
layers = (
{
hints = (
{
horizontal = 1;
place = "{204.25, 51.33}";
type = Stem;
},
{
horizontal = 1;
place = "{682.75, 54.25}";
type = Stem;
},
{
horizontal = 1;
place = "{865.41, 143.67}";
type = Stem;
},
{
place = "{16.66, 613.34}";
type = Stem;
},
{
horizontal = 1;
place = "{895.37, 38.21}";
type = Stem;
}
);
layerId = "43E2286E-6EE6-4840-9A6A-FE0C69444F4F";
paths = (
{
closed = 1;
nodes = (
"75.66 0 LINE",
"146.63 204.25 LINE",
"500.43 204.25 LINE",
"571.41 0 LINE",
"630 0 LINE",
"370.91 737 LINE",
"276.25 737 LINE",
"16.66 0 LINE"
);
},
{
closed = 1;
nodes = (
"312.87 682.75 LINE",
"334.12 682.75 LINE",
"482.59 255.58 LINE",
"164.46 255.58 LINE"
);
},
{
closed = 1;
nodes = (
"230.41 794.25 LINE",
"317.37 895.37 LINE",
"329.04 895.37 LINE",
"416 794.25 LINE",
"464.37 794.25 LINE",
"359.87 933.58 LINE",
"286.54 933.58 LINE",
"182.04 794.25 LINE"
);
},
{
closed = 1;
nodes = (
"505.71 865.41 LINE",
"615 1009.08 LINE",
"548.29 1009.08 LINE",
"458.08 865.41 LINE"
);
}
);
width = 647;
}
);
leftKerningGroup = A;
note = uni1EA4;
rightKerningGroup = A;
unicode = 1EA4;
},
{
glyphname = uni1EAC;
lastChange = "2019-09-03 16:29:54 +0000";
layers = (
{
hints = (
{
horizontal = 1;
place = "{-167.96, 110.71}";
type = Stem;
},
{
horizontal = 1;
place = "{204.25, 51.33}";
type = Stem;
},
{
horizontal = 1;
place = "{682.75, 54.25}";
type = Stem;
},
{
horizontal = 1;
place = "{895.37, 38.21}";
type = Stem;
},
{
place = "{295.46, 55}";
type = Stem;
}
);
layerId = "43E2286E-6EE6-4840-9A6A-FE0C69444F4F";
paths = (
{
closed = 1;
nodes = (
"75.66 0 LINE",
"146.63 204.25 LINE",
"500.43 204.25 LINE",
"571.41 0 LINE",
"630 0 LINE",
"370.91 737 LINE",
"276.25 737 LINE",
"16.66 0 LINE"
);
},
{
closed = 1;
nodes = (
"350.46 -167.96 LINE",
"350.46 -57.25 LINE",
"295.46 -57.25 LINE",
"295.46 -167.96 LINE"
);
},
{
closed = 1;
nodes = (
"312.87 682.75 LINE",
"334.12 682.75 LINE",
"482.59 255.58 LINE",
"164.46 255.58 LINE"
);
},
{
closed = 1;
nodes = (
"230.41 794.25 LINE",
"317.37 895.37 LINE",
"329.04 895.37 LINE",
"416 794.25 LINE",
"464.37 794.25 LINE",
"359.87 933.58 LINE",
"286.54 933.58 LINE",
"182.04 794.25 LINE"
);
}
);
width = 647;
}
);
leftKerningGroup = A;
note = uni1EAC;
rightKerningGroup = A;
unicode = 1EAC;
},
{
glyphname = uni1EA6;
lastChange = "2019-09-03 16:29:54 +0000";
layers = (
{
hints = (
{
horizontal = 1;
place = "{204.25, 51.33}";
type = Stem;
},
{
horizontal = 1;
place = "{682.75, 54.25}";
type = Stem;
},
{
horizontal = 1;
place = "{865.41, 143.67}";
type = Stem;
},
{
place = "{16.66, 613.34}";
type = Stem;
},
{
horizontal = 1;
place = "{895.37, 38.21}";
type = Stem;
}
);
layerId = "43E2286E-6EE6-4840-9A6A-FE0C69444F4F";
paths = (
{
closed = 1;
nodes = (
"75.66 0 LINE",
"146.63 204.25 LINE",
"500.43 204.25 LINE",
"571.41 0 LINE",
"630 0 LINE",
"370.91 737 LINE",
"276.25 737 LINE",
"16.66 0 LINE"
);
},
{
closed = 1;
nodes = (
"312.87 682.75 LINE",
"334.12 682.75 LINE",
"482.59 255.58 LINE",
"164.46 255.58 LINE"
);
},
{
closed = 1;
nodes = (
"195.91 865.41 LINE",
"105.71 1009.08 LINE",
"39 1009.08 LINE",
"148.29 865.41 LINE"
);
},
{
closed = 1;
nodes = (
"230.41 794.25 LINE",
"317.37 895.37 LINE",
"329.04 895.37 LINE",
"416 794.25 LINE",
"464.37 794.25 LINE",
"359.87 933.58 LINE",
"286.54 933.58 LINE",
"182.04 794.25 LINE"
);
}
);
width = 647;
}
);
leftKerningGroup = A;
note = uni1EA6;
rightKerningGroup = A;
unicode = 1EA6;
},
{
glyphname = uni1EA8;
lastChange = "2019-09-03 16:29:54 +0000";
layers = (
{
hints = (
{
horizontal = 1;
place = "{204.25, 51.33}";
type = Stem;
},
{
horizontal = 1;
place = "{682.75, 54.25}";
type = Stem;
},
{
horizontal = 1;
place = "{895.37, 38.21}";
type = Stem;
},
{
horizontal = 1;
place = "{1024.83, 38.08}";
type = Stem;
},
{
place = "{509.54, 43.46}";
type = Stem;
},
{
horizontal = 1;
place = "{865.41, 47.55}";
type = Stem;
},
{
place = "{442.96, 41.04}";
type = Stem;
}
);
layerId = "43E2286E-6EE6-4840-9A6A-FE0C69444F4F";
paths = (
{
closed = 1;
nodes = (
"75.66 0 LINE",
"146.63 204.25 LINE",
"500.43 204.25 LINE",
"571.41 0 LINE",
"630 0 LINE",
"370.91 737 LINE",
"276.25 737 LINE",
"16.66 0 LINE"
);
},
{
closed = 1;
nodes = (
"312.87 682.75 LINE",
"334.12 682.75 LINE",
"482.59 255.58 LINE",
"164.46 255.58 LINE"
);
},
{
closed = 1;
nodes = (
"230.41 794.25 LINE",
"317.37 895.37 LINE",
"329.04 895.37 LINE",
"416 794.25 LINE",
"464.37 794.25 LINE",
"359.87 933.58 LINE",
"286.54 933.58 LINE",
"182.04 794.25 LINE"
);
},
{
closed = 1;
nodes = (
"484 865.41 LINE",
"484 896.46 LINE",
"553 958.83 LINE",
"553 1023.87 LINE",
"515 1062.91 LINE",
"427.08 1062.91 LINE",
"385 1019 LINE",
"413.83 990.71 LINE",
"446.71 1024.83 LINE",
"495.08 1024.83 LINE",
"509.54 1009.71 LINE",
"509.54 974.54 LINE",
"442.96 912.96 LINE",
"442.96 865.41 LINE"
);
}
);
width = 647;
}
);
leftKerningGroup = A;
note = uni1EA8;
rightKerningGroup = A;
unicode = 1EA8;
},
{
glyphname = uni1EAA;
lastChange = "2019-09-03 16:29:54 +0000";
layers = (
{
hints = (
{
horizontal = 1;
place = "{204.25, 51.33}";
type = Stem;
},
{
horizontal = 1;
place = "{682.75, 54.25}";
type = Stem;
},
{
horizontal = 1;
place = "{957.54, 39.21}";
type = Stem;
},
{
horizontal = 1;
place = "{1030.87, 39.21}";
type = Stem;
},
{
place = "{169.71, 34.28}";
type = Stem;
},
{
place = "{454.41, 34.3}";
type = Stem;
},
{
horizontal = 1;
place = "{895.37, 38.21}";
type = Stem;
}
);
layerId = "43E2286E-6EE6-4840-9A6A-FE0C69444F4F";
paths = (
{
closed = 1;
nodes = (
"75.66 0 LINE",
"146.63 204.25 LINE",
"500.43 204.25 LINE",
"571.41 0 LINE",
"630 0 LINE",
"370.91 737 LINE",
"276.25 737 LINE",
"16.66 0 LINE"
);
},
{
closed = 1;
nodes = (
"312.87 682.75 LINE",
"334.12 682.75 LINE",
"482.59 255.58 LINE",
"164.46 255.58 LINE"
);
},
{
closed = 1;
nodes = (
"230.41 794.25 LINE",
"317.37 895.37 LINE",
"329.04 895.37 LINE",
"416 794.25 LINE",
"464.37 794.25 LINE",
"359.87 933.58 LINE",
"286.54 933.58 LINE",
"182.04 794.25 LINE"
);
},
{
closed = 1;
nodes = (
"433.87 957.54 LINE",
"488.21 1012.87 LINE",
"489.21 1068.96 LINE",
"455.5 1068.96 LINE",
"453.33 1033 LINE",
"415.21 996.75 LINE",
"380.75 996.75 LINE",
"307 1070.08 LINE",
"224.54 1070.08 LINE",
"170.21 1014.71 LINE",
"169.21 958.62 LINE",
"202.91 958.62 LINE",
"205.08 994.5 LINE",
"243.21 1030.87 LINE",
"286.5 1030.87 LINE",
"360.16 957.54 LINE"
);
}
);
width = 647;
}
);
leftKerningGroup = A;
note = uni1EAA;
rightKerningGroup = A;
unicode = 1EAA;
},
{
glyphname = uni0200;
lastChange = "2019-09-03 16:29:54 +0000";
layers = (
{
hints = (
{
horizontal = 1;
place = "{204.25, 51.33}";
type = Stem;
},
{
horizontal = 1;
place = "{682.75, 54.25}";
type = Stem;
},
{
horizontal = 1;
place = "{794.25, 143.66}";
type = Stem;
},
{
place = "{16.66, 613.34}";
type = Stem;
}
);
layerId = "43E2286E-6EE6-4840-9A6A-FE0C69444F4F";
paths = (
{
closed = 1;
nodes = (
"75.66 0 LINE",
"146.63 204.25 LINE",
"500.43 204.25 LINE",
"571.41 0 LINE",
"630 0 LINE",
"370.91 737 LINE",
"276.25 737 LINE",
"16.66 0 LINE"
);
},
{
closed = 1;
nodes = (
"312.87 682.75 LINE",
"334.12 682.75 LINE",
"482.59 255.58 LINE",
"164.46 255.58 LINE"
);
},
{
closed = 1;
nodes = (
"279.21 794.25 LINE",
"188.96 937.91 LINE",
"125.91 937.91 LINE",
"235.21 794.25 LINE"
);
},
{
closed = 1;
nodes = (
"417.08 794.25 LINE",
"326.83 937.91 LINE",
"263.79 937.91 LINE",
"373.08 794.25 LINE"
);
}
);
width = 647;
}
);
leftKerningGroup = A;
note = uni0200;
rightKerningGroup = A;
unicode = 0200;
},
{
glyphname = Adieresis;
lastChange = "2019-09-03 16:29:54 +0000";
layers = (
{
hints = (
{
horizontal = 1;
place = "{204.25, 51.33}";
type = Stem;
},
{
horizontal = 1;
place = "{682.75, 54.25}";
type = Stem;
},
{
horizontal = 1;
place = "{794.25, 110.83}";
type = Stem;
},
{
place = "{162.79, 55}";
type = Stem;
},
{
place = "{428.62, 55}";
type = Stem;
}
);
layerId = "43E2286E-6EE6-4840-9A6A-FE0C69444F4F";
paths = (
{
closed = 1;
nodes = (
"75.66 0 LINE",
"146.63 204.25 LINE",
"500.43 204.25 LINE",
"571.41 0 LINE",
"630 0 LINE",
"370.91 737 LINE",
"276.25 737 LINE",
"16.66 0 LINE"
);
},
{
closed = 1;
nodes = (
"312.87 682.75 LINE",
"334.12 682.75 LINE",
"482.59 255.58 LINE",
"164.46 255.58 LINE"
);
},
{
closed = 1;
nodes = (
"217.79 794.25 LINE",
"217.79 905.08 LINE",
"162.79 905.08 LINE",
"162.79 794.25 LINE"
);
},
{
closed = 1;
nodes = (
"483.62 794.25 LINE",
"483.62 905.08 LINE",
"428.62 905.08 LINE",
"428.62 794.25 LINE"
);
}
);
width = 647;
}
);
leftKerningGroup = A;
note = Adieresis;
rightKerningGroup = A;
unicode = 00C4;
},
{
glyphname = uni1EA0;
lastChange = "2019-09-03 16:29:54 +0000";
layers = (
{
hints = (
{
horizontal = 1;
place = "{-167.96, 110.71}";
type = Stem;
},
{
horizontal = 1;
place = "{204.25, 51.33}";
type = Stem;
},
{
horizontal = 1;
place = "{682.75, 54.25}";
type = Stem;
},
{
place = "{295.46, 55}";
type = Stem;
}
);
layerId = "43E2286E-6EE6-4840-9A6A-FE0C69444F4F";
paths = (
{
closed = 1;
nodes = (
"75.66 0 LINE",
"146.63 204.25 LINE",
"500.43 204.25 LINE",
"571.41 0 LINE",
"630 0 LINE",
"370.91 737 LINE",
"276.25 737 LINE",
"16.66 0 LINE"
);
},
{
closed = 1;
nodes = (
"350.46 -167.96 LINE",
"350.46 -57.25 LINE",
"295.46 -57.25 LINE",
"295.46 -167.96 LINE"
);
},
{
closed = 1;
nodes = (
"312.87 682.75 LINE",
"334.12 682.75 LINE",
"482.59 255.58 LINE",
"164.46 255.58 LINE"
);
}
);
width = 647;
}
);
leftKerningGroup = A;
note = uni1EA0;
rightKerningGroup = A;
unicode = 1EA0;
},
{
glyphname = Agrave;
lastChange = "2019-09-03 16:29:54 +0000";
layers = (
{
hints = (
{
horizontal = 1;
place = "{204.25, 51.33}";
type = Stem;
},
{
horizontal = 1;
place = "{682.75, 54.25}";
type = Stem;
},
{
horizontal = 1;
place = "{794.25, 143.66}";
type = Stem;
},
{
place = "{16.66, 613.34}";
type = Stem;
}
);
layerId = "43E2286E-6EE6-4840-9A6A-FE0C69444F4F";
paths = (
{
closed = 1;
nodes = (
"75.66 0 LINE",
"146.63 204.25 LINE",
"500.43 204.25 LINE",
"571.41 0 LINE",
"630 0 LINE",
"370.91 737 LINE",
"276.25 737 LINE",
"16.66 0 LINE"
);
},
{
closed = 1;
nodes = (
"312.87 682.75 LINE",
"334.12 682.75 LINE",
"482.59 255.58 LINE",
"164.46 255.58 LINE"
);
},
{
closed = 1;
nodes = (
"343.87 794.25 LINE",
"253.66 937.91 LINE",
"186.96 937.91 LINE",
"296.25 794.25 LINE"
);
}
);
width = 647;
}
);
leftKerningGroup = A;
note = Agrave;
rightKerningGroup = A;
unicode = 00C0;
},
{
glyphname = uni1EA2;
lastChange = "2019-09-03 16:29:54 +0000";
layers = (
{
hints = (
{
horizontal = 1;
place = "{204.25, 51.33}";
type = Stem;
},
{
horizontal = 1;
place = "{682.75, 54.25}";
type = Stem;
},
{
horizontal = 1;
place = "{794.25, 47.54}";
type = Stem;
},
{
horizontal = 1;
place = "{953.66, 38.09}";
type = Stem;
},
{
place = "{370.96, 43.45}";
type = Stem;
},
{
place = "{304.37, 41.04}";
type = Stem;
}
);
layerId = "43E2286E-6EE6-4840-9A6A-FE0C69444F4F";
paths = (
{
closed = 1;
nodes = (
"75.66 0 LINE",
"146.63 204.25 LINE",
"500.43 204.25 LINE",
"571.41 0 LINE",
"630 0 LINE",
"370.91 737 LINE",
"276.25 737 LINE",
"16.66 0 LINE"
);
},
{
closed = 1;
nodes = (
"312.87 682.75 LINE",
"334.12 682.75 LINE",
"482.59 255.58 LINE",
"164.46 255.58 LINE"
);
},
{
closed = 1;
nodes = (
"345.41 794.25 LINE",
"345.41 825.29 LINE",
"414.41 887.66 LINE",
"414.41 952.71 LINE",
"376.41 991.75 LINE",
"288.5 991.75 LINE",
"246.41 947.83 LINE",
"275.25 919.54 LINE",
"308.12 953.66 LINE",
"356.5 953.66 LINE",
"370.96 938.54 LINE",
"370.96 903.37 LINE",
"304.37 841.79 LINE",
"304.37 794.25 LINE"
);
}
);
width = 647;
}
);
leftKerningGroup = A;
note = uni1EA2;
rightKerningGroup = A;
unicode = 1EA2;
},
{
glyphname = uni0202;
lastChange = "2019-09-03 16:29:54 +0000";
layers = (
{
hints = (
{
horizontal = 1;
place = "{204.25, 51.33}";
type = Stem;
},
{
horizontal = 1;
place = "{682.75, 54.25}";
type = Stem;
},
{
horizontal = 1;
place = "{879.62, 39.96}";
type = Stem;
},
{
place = "{198.12, 40.79}";
type = Stem;
},
{
place = "{407.5, 40.79}";
type = Stem;
}
);
layerId = "43E2286E-6EE6-4840-9A6A-FE0C69444F4F";
paths = (
{
closed = 1;
nodes = (
"75.66 0 LINE",
"146.63 204.25 LINE",
"500.43 204.25 LINE",
"571.41 0 LINE",
"630 0 LINE",
"370.91 737 LINE",
"276.25 737 LINE",
"16.66 0 LINE"
);
},
{
closed = 1;
nodes = (
"312.87 682.75 LINE",
"334.12 682.75 LINE",
"482.59 255.58 LINE",
"164.46 255.58 LINE"
);
},
{
closed = 1;
nodes = (
"238.91 794.25 LINE",
"238.91 849.25 LINE",
"269.29 879.62 LINE",
"377.12 879.62 LINE",
"407.5 849.25 LINE",
"407.5 794.25 LINE",
"448.29 794.25 LINE",
"448.29 863.46 LINE",
"392.16 919.58 LINE",
"254.25 919.58 LINE",
"198.12 863.46 LINE",
"198.12 794.25 LINE"
);
}
);
width = 647;
}
);
leftKerningGroup = A;
note = uni0202;
rightKerningGroup = A;
unicode = 0202;
},
{
glyphname = Amacron;
lastChange = "2019-09-03 16:29:54 +0000";
layers = (
{
hints = (
{
horizontal = 1;
place = "{204.25, 51.33}";
type = Stem;
},
{
horizontal = 1;
place = "{682.75, 54.25}";
type = Stem;
},
{
horizontal = 1;
place = "{794.25, 43.96}";
type = Stem;
},
{
place = "{16.66, 613.34}";
type = Stem;
}
);
layerId = "43E2286E-6EE6-4840-9A6A-FE0C69444F4F";
paths = (
{
closed = 1;
nodes = (
"75.66 0 LINE",
"146.63 204.25 LINE",
"500.43 204.25 LINE",
"571.41 0 LINE",
"630 0 LINE",
"370.91 737 LINE",
"276.25 737 LINE",
"16.66 0 LINE"
);
},
{
closed = 1;
nodes = (
"312.87 682.75 LINE",
"334.12 682.75 LINE",
"482.59 255.58 LINE",
"164.46 255.58 LINE"
);
},
{
closed = 1;
nodes = (
"483.62 794.25 LINE",
"483.62 838.21 LINE",
"162.79 838.21 LINE",
"162.79 794.25 LINE"
);
}
);
width = 647;
}
);
leftKerningGroup = A;
note = Amacron;
rightKerningGroup = A;
unicode = 0100;
},
{
glyphname = Aogonek;
lastChange = "2019-09-03 18:35:26 +0000";
layers = (
{
hints = (
{
horizontal = 1;
place = "{-149.63, 41.88}";
type = Stem;
},
{
horizontal = 1;
place = "{204.25, 51.33}";
type = Stem;
},
{
horizontal = 1;
place = "{682.75, 54.25}";
type = Stem;
},
{
place = "{520.75, 41}";
type = Stem;
}
);
layerId = "43E2286E-6EE6-4840-9A6A-FE0C69444F4F";
paths = (
{
closed = 1;
nodes = (
"614.62 -149.63 LINE",
"614.62 -107.75 LINE",
"591.5 -107.75 LINE",
"561.75 -77 LINE",
"561.75 -45.13 LINE",
"630 0 LINE",
"370.91 737 LINE",
"276.25 737 LINE",
"16.66 0 LINE",
"75.66 0 LINE",
"146.63 204.25 LINE",
"500.43 204.25 LINE",
"571.37 0 LINE",
"520.75 -33 LINE",
"520.75 -96.75 LINE",
"573.5 -149.63 LINE"
);
},
{
closed = 1;
nodes = (
"312.87 682.75 LINE",
"334.12 682.75 LINE",
"482.59 255.58 LINE",
"164.46 255.58 LINE"
);
}
);
width = 591;
}
);
leftKerningGroup = A;
note = Aogonek;
rightKerningGroup = A;
unicode = 0104;
},
{
glyphname = Aring;
lastChange = "2019-09-03 16:29:54 +0000";
layers = (
{
hints = (
{
horizontal = 1;
place = "{204.25, 51.33}";
type = Stem;
},
{
horizontal = 1;
place = "{682.75, 54.25}";
type = Stem;
},
{
horizontal = 1;
place = "{794.25, 35.54}";
type = Stem;
},
{
horizontal = 1;
place = "{940.5, 35.54}";
type = Stem;
},
{
place = "{226.75, 41.04}";
type = Stem;
},
{
place = "{378.62, 41.04}";
type = Stem;
}
);
layerId = "43E2286E-6EE6-4840-9A6A-FE0C69444F4F";
paths = (
{
closed = 1;
nodes = (
"75.66 0 LINE",
"146.63 204.25 LINE",
"500.43 204.25 LINE",
"571.41 0 LINE",
"630 0 LINE",
"370.91 737 LINE",
"276.25 737 LINE",
"16.66 0 LINE"
);
},
{
closed = 1;
nodes = (
"312.87 682.75 LINE",
"334.12 682.75 LINE",
"482.59 255.58 LINE",
"164.46 255.58 LINE"
);
},
{
closed = 1;
nodes = (
"364.29 794.25 LINE",
"419.66 849.58 LINE",
"419.66 920.66 LINE",
"364.29 976.04 LINE",
"282.12 976.04 LINE",
"226.75 920.66 LINE",
"226.75 849.58 LINE",
"282.12 794.25 LINE"
);
},
{
closed = 1;
nodes = (
"267.79 862 LINE",
"267.79 908.21 LINE",
"300.12 940.5 LINE",
"346.29 940.5 LINE",
"378.62 908.21 LINE",
"378.62 862 LINE",
"346.29 829.79 LINE",
"300.12 829.79 LINE"
);
}
);
width = 647;
}
);
leftKerningGroup = A;
note = Aring;
rightKerningGroup = A;
unicode = 00C5;
},
{
glyphname = Aringacute;
lastChange = "2019-09-03 16:29:54 +0000";
layers = (
{
hints = (
{
horizontal = 1;
place = "{204.25, 51.33}";
type = Stem;
},
{
horizontal = 1;
place = "{682.75, 54.25}";
type = Stem;
},
{
horizontal = 1;
place = "{794.25, 35.54}";
type = Stem;
},
{
horizontal = 1;
place = "{940.5, 35.54}";
type = Stem;
},
{
horizontal = 1;
place = "{1000, 143.66}";
type = Stem;
},
{
place = "{226.75, 41.04}";
type = Stem;
},
{
place = "{378.62, 41.04}";
type = Stem;
}
);
layerId = "43E2286E-6EE6-4840-9A6A-FE0C69444F4F";
paths = (
{
closed = 1;
nodes = (
"75.66 0 LINE",
"146.63 204.25 LINE",
"500.43 204.25 LINE",
"571.41 0 LINE",
"630 0 LINE",
"370.91 737 LINE",
"276.25 737 LINE",
"16.66 0 LINE"
);
},
{
closed = 1;
nodes = (
"312.87 682.75 LINE",
"334.12 682.75 LINE",
"482.59 255.58 LINE",
"164.46 255.58 LINE"
);
},
{
closed = 1;
nodes = (
"364.29 794.25 LINE",
"419.66 849.58 LINE",
"419.66 920.66 LINE",
"364.29 976.04 LINE",
"282.12 976.04 LINE",
"226.75 920.66 LINE",
"226.75 849.58 LINE",
"282.12 794.25 LINE"
);
},
{
closed = 1;
nodes = (
"267.79 862 LINE",
"267.79 908.21 LINE",
"300.12 940.5 LINE",
"346.29 940.5 LINE",
"378.62 908.21 LINE",
"378.62 862 LINE",
"346.29 829.79 LINE",
"300.12 829.79 LINE"
);
},
{
closed = 1;
nodes = (
"347.79 1000 LINE",
"457.08 1143.66 LINE",
"390.37 1143.66 LINE",
"300.16 1000 LINE"
);
}
);
width = 647;
}
);
leftKerningGroup = A;
note = Aringacute;
rightKerningGroup = A;
unicode = 01FA;
},
{
glyphname = Atilde;
lastChange = "2019-09-03 16:29:54 +0000";
layers = (
{
hints = (
{
horizontal = 1;
place = "{204.25, 51.33}";
type = Stem;
},
{
horizontal = 1;
place = "{682.75, 54.25}";
type = Stem;
},
{
horizontal = 1;
place = "{794.25, 39.21}";
type = Stem;
},
{
horizontal = 1;
place = "{867.58, 39.21}";
type = Stem;
},
{
place = "{164.29, 34.29}";
type = Stem;
},
{
place = "{448.99, 34.3}";
type = Stem;
}
);
layerId = "43E2286E-6EE6-4840-9A6A-FE0C69444F4F";
paths = (
{
closed = 1;
nodes = (
"75.66 0 LINE",
"146.63 204.25 LINE",
"500.43 204.25 LINE",
"571.41 0 LINE",
"630 0 LINE",
"370.91 737 LINE",
"276.25 737 LINE",
"16.66 0 LINE"
);
},
{
closed = 1;
nodes = (
"312.87 682.75 LINE",
"334.12 682.75 LINE",
"482.59 255.58 LINE",
"164.46 255.58 LINE"
);
},
{
closed = 1;
nodes = (
"428.46 794.25 LINE",
"482.79 849.58 LINE",
"483.79 905.66 LINE",
"450.08 905.66 LINE",
"447.91 869.71 LINE",
"409.79 833.46 LINE",
"375.33 833.46 LINE",
"301.58 906.79 LINE",
"219.12 906.79 LINE",
"164.79 851.41 LINE",
"163.79 795.33 LINE",
"197.5 795.33 LINE",
"199.66 831.21 LINE",
"237.79 867.58 LINE",
"281.08 867.58 LINE",
"354.75 794.25 LINE"
);
}
);
width = 647;
}
);
leftKerningGroup = A;
note = Atilde;
rightKerningGroup = A;
unicode = 00C3;
},
{
glyphname = AE;
lastChange = "2019-09-03 16:29:54 +0000";
layers = (
{
hints = (
{
horizontal = 1;
place = "{0, 52.79}";
type = Stem;
},
{
horizontal = 1;
place = "{204.25, 51.33}";
type = Stem;
},
{
horizontal = 1;
place = "{362.62, 52.79}";
type = Stem;
},
{
horizontal = 1;
place = "{684.21, 52.79}";
type = Stem;
},
{
place = "{16.66, 877.17}";
type = Stem;
}
);
layerId = "43E2286E-6EE6-4840-9A6A-FE0C69444F4F";
paths = (
{
closed = 1;
nodes = (
"75.66 0 LINE",
"146.63 204.25 LINE",
"500.43 204.25 LINE",
"571.41 0 LINE",
"893.83 0 LINE",
"893.83 52.79 LINE",
"611.44 52.79 LINE",
"502.52 362.62 LINE",
"843.16 362.62 LINE",
"843.16 415.41 LINE",
"483.96 415.41 LINE",
"389.47 684.21 LINE",
"893.83 684.21 LINE",
"893.83 737 LINE",
"276.25 737 LINE",
"16.66 0 LINE"
);
},
{
closed = 1;
nodes = (
"312.88 682.75 LINE",
"334.13 682.75 LINE",
"482.6 255.58 LINE",
"164.47 255.58 LINE"
);
}
);
width = 947;
}
);
leftKerningGroup = A;
note = AE;
rightKerningGroup = AE;
unicode = 00C6;
},
{
glyphname = AEacute;
lastChange = "2019-09-03 16:29:54 +0000";
layers = (
{
hints = (
{
horizontal = 1;
place = "{0, 52.79}";
type = Stem;
},
{
horizontal = 1;
place = "{204.25, 51.33}";
type = Stem;
},
{
horizontal = 1;
place = "{362.62, 52.79}";
type = Stem;
},
{
horizontal = 1;
place = "{684.21, 52.79}";
type = Stem;
},
{
horizontal = 1;
place = "{794.25, 143.66}";
type = Stem;
},
{
place = "{16.66, 877.17}";
type = Stem;
}
);
layerId = "43E2286E-6EE6-4840-9A6A-FE0C69444F4F";
paths = (
{
closed = 1;
nodes = (
"75.66 0 LINE",
"146.63 204.25 LINE",
"500.43 204.25 LINE",
"571.41 0 LINE",
"893.83 0 LINE",
"893.83 52.79 LINE",
"611.44 52.79 LINE",
"502.52 362.62 LINE",
"843.16 362.62 LINE",
"843.16 415.41 LINE",
"483.96 415.41 LINE",
"389.47 684.21 LINE",
"893.83 684.21 LINE",
"893.83 737 LINE",
"276.25 737 LINE",
"16.66 0 LINE"
);
},
{
closed = 1;
nodes = (
"312.88 682.75 LINE",
"334.13 682.75 LINE",
"482.6 255.58 LINE",
"164.47 255.58 LINE"
);
},
{
closed = 1;
nodes = (
"348.29 794.25 LINE",
"457.58 937.91 LINE",
"390.87 937.91 LINE",
"300.66 794.25 LINE"
);
}
);
width = 947;
}
);
leftKerningGroup = A;
note = AEacute;
rightKerningGroup = AE;
unicode = 01FC;
},
{
glyphname = B;
lastChange = "2019-09-03 16:29:54 +0000";
layers = (
{
hints = (
{
horizontal = 1;
place = "{0, 51.38}";
type = Stem;
},
{
horizontal = 1;
place = "{363.42, 51.29}";
type = Stem;
},
{
horizontal = 1;
place = "{685.71, 51.29}";
type = Stem;
},
{
place = "{93.33, 56.65}";
type = Stem;
},
{
place = "{501.75, 56.5}";
type = Stem;
},
{
place = "{545.1, 56.4}";
type = Stem;
}
);
layerId = "43E2286E-6EE6-4840-9A6A-FE0C69444F4F";
paths = (
{
closed = 1;
nodes = (
"503.66 0 LINE",
"601.5 98.62 LINE",
"601.5 302.16 LINE",
"512.41 395.58 LINE",
"558.25 465.66 LINE",
"558.25 638.37 LINE",
"460.33 737 LINE",
"93.33 737 LINE",
"93.33 0 LINE"
);
},
{
closed = 1;
nodes = (
"149.98 363.38 LINE",
"472.96 363.46 LINE",
"545.08 287.62 LINE",
"545.12 117.33 LINE",
"479.79 51.41 LINE",
"149.98 51.34 LINE"
);
},
{
closed = 1;
nodes = (
"149.98 685.67 LINE",
"436.54 685.75 LINE",
"501.71 619.66 LINE",
"501.79 479.66 LINE",
"459.33 414.71 LINE",
"149.98 414.71 LINE"
);
}
);
width = 672;
}
);
leftKerningGroup = B;
note = B;
rightKerningGroup = B;
unicode = 0042;
},
{
glyphname = C;
lastChange = "2019-09-03 16:29:54 +0000";
layers = (
{
hints = (
{
horizontal = 1;
place = "{0, 51.29}";
type = Stem;
},
{
horizontal = 1;
place = "{685.62, 51.38}";
type = Stem;
},
{
place = "{76.66, 56.46}";
type = Stem;
}
);
layerId = "43E2286E-6EE6-4840-9A6A-FE0C69444F4F";
paths = (
{
closed = 1;
nodes = (
"499.41 0 LINE",
"604.25 105.58 LINE",
"568.33 141.91 LINE",
"478.12 51.33 LINE",
"198.37 51.25 LINE",
"133.21 117.33 LINE",
"133.04 619.66 LINE",
"198.37 685.58 LINE",
"471.54 685.66 LINE",
"559.58 597.33 LINE",
"595.46 633.58 LINE",
"492.83 737 LINE",
"174.54 737 LINE",
"76.66 638.37 LINE",
"76.66 98.62 LINE",
"174.54 0 LINE"
);
}
);
width = 644;
}
);
leftKerningGroup = C;
note = C;
rightKerningGroup = C;
unicode = 0043;
},
{
glyphname = Cacute;
lastChange = "2019-09-03 16:29:54 +0000";
layers = (
{
hints = (
{
horizontal = 1;
place = "{0, 51.29}";
type = Stem;
},
{
horizontal = 1;
place = "{685.62, 51.38}";
type = Stem;
},
{
horizontal = 1;
place = "{794.25, 143.66}";
type = Stem;
},
{
place = "{76.66, 56.46}";
type = Stem;
}
);
layerId = "43E2286E-6EE6-4840-9A6A-FE0C69444F4F";
paths = (
{
closed = 1;
nodes = (
"499.41 0 LINE",
"604.25 105.58 LINE",
"568.33 141.91 LINE",
"478.12 51.33 LINE",
"198.37 51.25 LINE",
"133.21 117.33 LINE",
"133.04 619.66 LINE",
"198.37 685.58 LINE",
"471.54 685.66 LINE",
"559.58 597.33 LINE",
"595.46 633.58 LINE",
"492.83 737 LINE",
"174.54 737 LINE",
"76.66 638.37 LINE",
"76.66 98.62 LINE",
"174.54 0 LINE"
);
},
{
closed = 1;
nodes = (
"360.58 794.25 LINE",
"469.87 937.91 LINE",
"403.16 937.91 LINE",
"312.96 794.25 LINE"
);
}
);
width = 644;
}
);
leftKerningGroup = C;
note = Cacute;
rightKerningGroup = C;
unicode = 0106;
},
{
glyphname = Ccaron;
lastChange = "2019-09-03 16:29:54 +0000";
layers = (
{
hints = (
{
horizontal = 1;
place = "{0, 51.29}";
type = Stem;
},
{
horizontal = 1;
place = "{685.62, 51.38}";
type = Stem;
},
{
horizontal = 1;
place = "{794.25, 38.21}";
type = Stem;
},
{
place = "{76.66, 56.46}";
type = Stem;
}
);
layerId = "43E2286E-6EE6-4840-9A6A-FE0C69444F4F";
paths = (
{
closed = 1;
nodes = (
"499.41 0 LINE",
"604.25 105.58 LINE",
"568.33 141.91 LINE",
"478.12 51.33 LINE",
"198.37 51.25 LINE",
"133.21 117.33 LINE",
"133.04 619.66 LINE",
"198.37 685.58 LINE",
"471.54 685.66 LINE",
"559.58 597.33 LINE",
"595.46 633.58 LINE",
"492.83 737 LINE",
"174.54 737 LINE",
"76.66 638.37 LINE",
"76.66 98.62 LINE",
"174.54 0 LINE"
);
},
{
closed = 1;
nodes = (
"371.41 794.25 LINE",
"475.91 933.58 LINE",
"427.54 933.58 LINE",
"340.58 832.46 LINE",
"328.91 832.46 LINE",
"241.96 933.58 LINE",
"193.58 933.58 LINE",
"298.08 794.25 LINE"
);
}
);
width = 644;
}
);
leftKerningGroup = C;
note = Ccaron;
rightKerningGroup = C;
unicode = 010C;
},
{
glyphname = Ccedilla;
lastChange = "2019-09-03 16:29:54 +0000";
layers = (
{
hints = (
{
horizontal = 1;
place = "{0, 51.29}";
type = Stem;
},
{
horizontal = 1;
place = "{685.62, 51.38}";
type = Stem;
},
{
place = "{76.66, 56.46}";
type = Stem;
}
);
layerId = "43E2286E-6EE6-4840-9A6A-FE0C69444F4F";
paths = (
{
closed = 1;
nodes = (
"323.33 -129.79 LINE",
"361.83 0 LINE",
"499.41 0 LINE",
"604.25 105.58 LINE",
"568.33 141.91 LINE",
"478.12 51.33 LINE",
"198.37 51.25 LINE",
"133.21 117.33 LINE",
"133.04 619.66 LINE",
"198.37 685.58 LINE",
"471.54 685.66 LINE",
"559.58 597.33 LINE",
"595.46 633.58 LINE",
"492.83 737 LINE",
"174.54 737 LINE",
"76.66 638.37 LINE",
"76.66 98.62 LINE",
"174.54 0 LINE",
"311.96 0 LINE",
"280.41 -129.79 LINE"
);
}
);
width = 644;
}
);
leftKerningGroup = C;
note = Ccedilla;
rightKerningGroup = C;
unicode = 00C7;
},
{
glyphname = Ccircumflex;
lastChange = "2019-09-03 16:29:54 +0000";
layers = (
{
hints = (
{
horizontal = 1;
place = "{0, 51.29}";
type = Stem;
},
{
horizontal = 1;
place = "{685.62, 51.38}";
type = Stem;
},
{
horizontal = 1;
place = "{895.37, 38.21}";
type = Stem;
},
{
place = "{76.66, 56.46}";
type = Stem;
}
);
layerId = "43E2286E-6EE6-4840-9A6A-FE0C69444F4F";
paths = (
{
closed = 1;
nodes = (
"499.41 0 LINE",
"604.25 105.58 LINE",
"568.33 141.91 LINE",
"478.12 51.33 LINE",
"198.37 51.25 LINE",
"133.21 117.33 LINE",
"133.04 619.66 LINE",
"198.37 685.58 LINE",
"471.54 685.66 LINE",
"559.58 597.33 LINE",
"595.46 633.58 LINE",
"492.83 737 LINE",
"174.54 737 LINE",
"76.66 638.37 LINE",
"76.66 98.62 LINE",
"174.54 0 LINE"
);
},
{
closed = 1;
nodes = (
"242.71 794.25 LINE",
"329.66 895.37 LINE",
"341.33 895.37 LINE",
"428.29 794.25 LINE",
"476.66 794.25 LINE",
"372.16 933.58 LINE",
"298.83 933.58 LINE",
"194.33 794.25 LINE"
);
}
);
width = 644;
}
);
leftKerningGroup = C;
note = Ccircumflex;
rightKerningGroup = C;
unicode = 0108;
},
{
glyphname = Cdotaccent;
lastChange = "2019-09-03 16:29:54 +0000";
layers = (
{
hints = (
{
horizontal = 1;
place = "{0, 51.29}";
type = Stem;
},
{
horizontal = 1;
place = "{685.62, 51.38}";
type = Stem;
},
{
horizontal = 1;
place = "{794.25, 110.71}";
type = Stem;
},
{
place = "{76.66, 56.46}";
type = Stem;
},
{
place = "{308, 55}";
type = Stem;
}
);
layerId = "43E2286E-6EE6-4840-9A6A-FE0C69444F4F";
paths = (
{
closed = 1;
nodes = (
"499.41 0 LINE",
"604.25 105.58 LINE",
"568.33 141.91 LINE",
"478.12 51.33 LINE",
"198.37 51.25 LINE",
"133.21 117.33 LINE",
"133.04 619.66 LINE",
"198.37 685.58 LINE",
"471.54 685.66 LINE",
"559.58 597.33 LINE",
"595.46 633.58 LINE",
"492.83 737 LINE",
"174.54 737 LINE",
"76.66 638.37 LINE",
"76.66 98.62 LINE",
"174.54 0 LINE"
);
},
{
closed = 1;
nodes = (
"363 794.25 LINE",
"363 904.96 LINE",
"308 904.96 LINE",
"308 794.25 LINE"
);
}
);
width = 644;
}
);
leftKerningGroup = C;
note = Cdotaccent;
rightKerningGroup = C;
unicode = 010A;
},
{
glyphname = D;
lastChange = "2019-09-03 16:29:54 +0000";
layers = (
{
hints = (
{
horizontal = 1;
place = "{0, 51.33}";
type = Stem;
},
{
horizontal = 1;
place = "{685.66, 51.34}";
type = Stem;
},
{
place = "{93.33, 56.65}";
type = Stem;
},
{
place = "{563.79, 56.46}";
type = Stem;
}
);
layerId = "43E2286E-6EE6-4840-9A6A-FE0C69444F4F";
paths = (
{
closed = 1;
nodes = (
"469.54 0 LINE",
"620.25 155.12 LINE",
"620.25 581.87 LINE",
"469.54 737 LINE",
"93.33 737 LINE",
"93.33 0 LINE"
);
},
{
closed = 1;
nodes = (
"149.98 685.66 LINE",
"445.54 685.66 LINE",
"563.79 563.58 LINE",
"563.79 173.5 LINE",
"445.62 51.33 LINE",
"149.98 51.33 LINE"
);
}
);
width = 690;
}
);
leftKerningGroup = B;
note = D;
rightKerningGroup = D;
unicode = 0044;
},
{
glyphname = uni01C4;
lastChange = "2019-09-03 16:29:54 +0000";
layers = (
{
hints = (
{
horizontal = 1;
place = "{0.06, 52.79}";
type = Stem;
},
{
horizontal = 1;
place = "{684.27, 52.79}";
type = Stem;
},
{
horizontal = 1;
place = "{794.31, 38.21}";
type = Stem;
},
{
place = "{93.33, 56.65}";
type = Stem;
},
{
place = "{563.79, 56.46}";
type = Stem;
},
{
place = "{777.71, 70.41}";
type = Stem;
},
{
place = "{1199.79, 69.67}";
type = Stem;
}
);
layerId = "43E2286E-6EE6-4840-9A6A-FE0C69444F4F";
paths = (
{
closed = 1;
nodes = (
"469.54 0 LINE",
"620.25 155.12 LINE",
"620.25 581.87 LINE",
"469.54 737 LINE",
"93.33 737 LINE",
"93.33 0 LINE"
);
},
{
closed = 1;
nodes = (
"149.98 685.66 LINE",
"445.54 685.66 LINE",
"563.79 563.58 LINE",
"563.79 173.5 LINE",
"445.62 51.33 LINE",
"149.98 51.33 LINE"
);
},
{
closed = 1;
nodes = (
"1279.04 0.06 LINE",
"1279.04 52.85 LINE",
"848.12 52.85 LINE",
"848.12 74.1 LINE",
"1269.46 668.1 LINE",
"1269.46 737.06 LINE",
"797.54 737.06 LINE",
"797.54 684.27 LINE",
"1199.79 684.27 LINE",
"1199.79 663.02 LINE",
"777.71 69.02 LINE",
"777.71 0.06 LINE"
);
},
{
closed = 1;
nodes = (
"1078.79 794.31 LINE",
"1183.29 933.64 LINE",
"1134.91 933.64 LINE",
"1047.96 832.52 LINE",
"1036.29 832.52 LINE",
"949.33 933.64 LINE",
"900.96 933.64 LINE",
"1005.46 794.31 LINE"
);
}
);
width = 1362;
}
);
leftKerningGroup = B;
note = uni01C4;
rightKerningGroup = uni01C4;
unicode = 01C4;
},
{
glyphname = Eth;
lastChange = "2019-09-03 16:29:54 +0000";
layers = (
{
hints = (
{
horizontal = 1;
place = "{0, 51.33}";
type = Stem;
},
{
horizontal = 1;
place = "{350.16, 47.67}";
type = Stem;
},
{
horizontal = 1;
place = "{685.66, 51.34}";
type = Stem;
},
{
place = "{93.33, 56.65}";
type = Stem;
},
{
place = "{563.79, 56.46}";
type = Stem;
}
);
layerId = "43E2286E-6EE6-4840-9A6A-FE0C69444F4F";
paths = (
{
closed = 1;
nodes = (
"469.54 0 LINE",
"620.25 155.12 LINE",
"620.25 581.87 LINE",
"469.54 737 LINE",
"93.33 737 LINE",
"93.33 397.83 LINE",
"16.37 397.83 LINE",
"16.37 350.16 LINE",
"93.33 350.16 LINE",
"93.33 0 LINE"
);
},
{
closed = 1;
nodes = (
"149.98 350.16 LINE",
"303.54 350.16 LINE",
"303.54 397.83 LINE",
"149.98 397.83 LINE",
"149.98 685.66 LINE",
"445.54 685.66 LINE",
"563.79 563.58 LINE",
"563.79 173.5 LINE",
"445.62 51.33 LINE",
"149.98 51.33 LINE"
);
}
);
width = 690;
}
);
leftKerningGroup = B;
note = Eth;
rightKerningGroup = D;
unicode = 00D0;
},
{
glyphname = Dcaron;
lastChange = "2019-09-03 16:29:54 +0000";
layers = (
{
hints = (
{
horizontal = 1;
place = "{0, 51.33}";
type = Stem;
},
{
horizontal = 1;
place = "{685.66, 51.34}";
type = Stem;
},
{
horizontal = 1;
place = "{794.25, 38.21}";
type = Stem;
},
{
place = "{93.33, 56.65}";
type = Stem;
},
{
place = "{563.79, 56.46}";
type = Stem;
}
);
layerId = "43E2286E-6EE6-4840-9A6A-FE0C69444F4F";
paths = (
{
closed = 1;
nodes = (
"469.54 0 LINE",
"620.25 155.12 LINE",
"620.25 581.87 LINE",
"469.54 737 LINE",
"93.33 737 LINE",
"93.33 0 LINE"
);
},
{
closed = 1;
nodes = (
"149.98 685.66 LINE",
"445.54 685.66 LINE",
"563.79 563.58 LINE",
"563.79 173.5 LINE",
"445.62 51.33 LINE",
"149.98 51.33 LINE"
);
},
{
closed = 1;
nodes = (
"355.08 794.25 LINE",
"459.58 933.58 LINE",
"411.21 933.58 LINE",
"324.25 832.46 LINE",
"312.58 832.46 LINE",
"225.62 933.58 LINE",
"177.25 933.58 LINE",
"281.75 794.25 LINE"
);
}
);
width = 690;
}
);
leftKerningGroup = B;
note = Dcaron;
rightKerningGroup = D;
unicode = 010E;
},
{
glyphname = Dcroat;
lastChange = "2019-09-03 16:29:54 +0000";
layers = (
{
hints = (
{
horizontal = 1;
place = "{0, 51.33}";
type = Stem;
},
{
horizontal = 1;
place = "{350.16, 47.67}";
type = Stem;
},
{
horizontal = 1;
place = "{685.66, 51.34}";
type = Stem;
},
{
place = "{93.33, 56.65}";
type = Stem;
},
{
place = "{563.79, 56.46}";
type = Stem;
}
);
layerId = "43E2286E-6EE6-4840-9A6A-FE0C69444F4F";
paths = (
{
closed = 1;
nodes = (
"469.54 0 LINE",
"620.25 155.12 LINE",
"620.25 581.87 LINE",
"469.54 737 LINE",
"93.33 737 LINE",
"93.33 397.83 LINE",
"16.37 397.83 LINE",
"16.37 350.16 LINE",
"93.33 350.16 LINE",
"93.33 0 LINE"
);
},
{
closed = 1;
nodes = (
"149.98 350.16 LINE",
"303.54 350.16 LINE",
"303.54 397.83 LINE",
"149.98 397.83 LINE",
"149.98 685.66 LINE",
"445.54 685.66 LINE",
"563.79 563.58 LINE",
"563.79 173.5 LINE",
"445.62 51.33 LINE",
"149.98 51.33 LINE"
);
}
);
width = 690;
}
);
leftKerningGroup = B;
note = Dcroat;
rightKerningGroup = D;
unicode = 0110;
},
{
glyphname = uni01C5;
lastChange = "2019-09-03 16:29:54 +0000";
layers = (
{
hints = (
{
horizontal = 1;
place = "{0, 47.66}";
type = Stem;
},
{
horizontal = 1;
place = "{474.83, 47.67}";
type = Stem;
},
{
horizontal = 1;
place = "{579.75, 38.21}";
type = Stem;
},
{
horizontal = 1;
place = "{685.66, 51.34}";
type = Stem;
},
{
place = "{93.33, 56.65}";
type = Stem;
},
{
place = "{563.79, 56.46}";
type = Stem;
},
{
horizontal = 1;
place = "{0, 51.33}";
type = Stem;
},
{
place = "{765.08, 48.42}";
type = Stem;
},
{
place = "{1116.33, 48.04}";
type = Stem;
}
);
layerId = "43E2286E-6EE6-4840-9A6A-FE0C69444F4F";
paths = (
{
closed = 1;
nodes = (
"469.54 0 LINE",
"620.25 155.12 LINE",
"620.25 581.87 LINE",
"469.54 737 LINE",
"93.33 737 LINE",
"93.33 0 LINE"
);
},
{
closed = 1;
nodes = (
"149.98 685.66 LINE",
"445.54 685.66 LINE",
"563.79 563.58 LINE",
"563.79 173.5 LINE",
"445.62 51.33 LINE",
"149.98 51.33 LINE"
);
},
{
closed = 1;
nodes = (
"1174.58 0 LINE",
"1174.58 47.66 LINE",
"813.5 47.66 LINE",
"817.5 48.75 LINE",
"1164.37 453.96 LINE",
"1164.37 522.5 LINE",
"790.37 522.5 LINE",
"790.37 474.83 LINE",
"1116.33 474.83 LINE",
"1112.33 474.12 LINE",
"765.08 68.54 LINE",
"765.08 0 LINE"
);
},
{
closed = 1;
nodes = (
"1013.25 579.75 LINE",
"1117.75 719.08 LINE",
"1069.37 719.08 LINE",
"982.41 617.96 LINE",
"970.75 617.96 LINE",
"883.79 719.08 LINE",
"835.41 719.08 LINE",
"939.91 579.75 LINE"
);
}
);
width = 1249;
}
);
leftKerningGroup = B;
note = uni01C5;
unicode = 01C5;
},
{
glyphname = E;
lastChange = "2019-09-03 16:29:54 +0000";
layers = (
{
hints = (
{
horizontal = 1;
place = "{0, 52.79}";
type = Stem;
},
{
horizontal = 1;
place = "{362.62, 52.79}";
type = Stem;
},
{
horizontal = 1;
place = "{684.21, 52.79}";
type = Stem;
},
{
place = "{93.33, 56.65}";
type = Stem;
}
);
layerId = "43E2286E-6EE6-4840-9A6A-FE0C69444F4F";
paths = (
{
closed = 1;
nodes = (
"561.91 0 LINE",
"561.91 52.79 LINE",
"149.98 52.79 LINE",
"149.98 362.62 LINE",
"511.33 362.62 LINE",
"511.33 415.41 LINE",
"149.98 415.41 LINE",
"149.98 684.21 LINE",
"561.91 684.21 LINE",
"561.91 737 LINE",
"93.33 737 LINE",
"93.33 0 LINE"
);
}
);
width = 615;
}
);
leftKerningGroup = B;
note = E;
rightKerningGroup = AE;
unicode = 0045;
},
{
glyphname = Eacute;
lastChange = "2019-09-03 16:29:54 +0000";
layers = (
{
hints = (
{
horizontal = 1;
place = "{0, 52.79}";
type = Stem;
},
{
horizontal = 1;
place = "{362.62, 52.79}";
type = Stem;
},
{
horizontal = 1;
place = "{684.21, 52.79}";
type = Stem;
},
{
horizontal = 1;
place = "{794.25, 143.66}";
type = Stem;
},
{
place = "{93.33, 56.65}";
type = Stem;
}
);
layerId = "43E2286E-6EE6-4840-9A6A-FE0C69444F4F";
paths = (
{
closed = 1;
nodes = (
"561.91 0 LINE",
"561.91 52.79 LINE",
"149.98 52.79 LINE",
"149.98 362.62 LINE",
"511.33 362.62 LINE",
"511.33 415.41 LINE",
"149.98 415.41 LINE",
"149.98 684.21 LINE",
"561.91 684.21 LINE",
"561.91 737 LINE",
"93.33 737 LINE",
"93.33 0 LINE"
);
},
{
closed = 1;
nodes = (
"352.71 794.25 LINE",
"462 937.91 LINE",
"395.29 937.91 LINE",
"305.08 794.25 LINE"
);
}
);
width = 615;
}
);
leftKerningGroup = B;
note = Eacute;
rightKerningGroup = AE;
unicode = 00C9;
},
{
glyphname = Ebreve;
lastChange = "2019-09-03 16:29:54 +0000";
layers = (
{
hints = (
{
horizontal = 1;
place = "{0, 52.79}";
type = Stem;
},
{
horizontal = 1;
place = "{362.62, 52.79}";
type = Stem;
},
{
horizontal = 1;
place = "{684.21, 52.79}";
type = Stem;
},
{
horizontal = 1;
place = "{794.25, 39.91}";
type = Stem;
},
{
place = "{93.33, 56.65}";
type = Stem;
},
{
place = "{202.54, 40.79}";
type = Stem;
},
{
place = "{411.91, 40.8}";
type = Stem;
}
);
layerId = "43E2286E-6EE6-4840-9A6A-FE0C69444F4F";
paths = (
{
closed = 1;
nodes = (
"561.91 0 LINE",
"561.91 52.79 LINE",
"149.98 52.79 LINE",
"149.98 362.62 LINE",
"511.33 362.62 LINE",
"511.33 415.41 LINE",
"149.98 415.41 LINE",
"149.98 684.21 LINE",
"561.91 684.21 LINE",
"561.91 737 LINE",
"93.33 737 LINE",
"93.33 0 LINE"
);
},
{
closed = 1;
nodes = (
"396.58 794.25 LINE",
"452.71 850.33 LINE",
"452.71 919.58 LINE",
"411.91 919.58 LINE",
"411.91 864.58 LINE",
"381.54 834.16 LINE",
"273.71 834.16 LINE",
"243.33 864.58 LINE",
"243.33 919.58 LINE",
"202.54 919.58 LINE",
"202.54 850.33 LINE",
"258.66 794.25 LINE"
);
}
);
width = 615;
}
);
leftKerningGroup = B;
note = Ebreve;
rightKerningGroup = AE;
unicode = 0114;
},
{
glyphname = Ecaron;
lastChange = "2019-09-03 16:29:54 +0000";
layers = (
{
hints = (
{
horizontal = 1;
place = "{0, 52.79}";
type = Stem;
},
{
horizontal = 1;
place = "{362.62, 52.79}";
type = Stem;
},
{
horizontal = 1;
place = "{684.21, 52.79}";
type = Stem;
},
{
horizontal = 1;
place = "{794.25, 38.21}";
type = Stem;
},
{
place = "{93.33, 56.65}";
type = Stem;
}
);
layerId = "43E2286E-6EE6-4840-9A6A-FE0C69444F4F";
paths = (
{
closed = 1;
nodes = (
"561.91 0 LINE",
"561.91 52.79 LINE",
"149.98 52.79 LINE",
"149.98 362.62 LINE",
"511.33 362.62 LINE",
"511.33 415.41 LINE",
"149.98 415.41 LINE",
"149.98 684.21 LINE",
"561.91 684.21 LINE",
"561.91 737 LINE",
"93.33 737 LINE",
"93.33 0 LINE"
);
},
{
closed = 1;
nodes = (
"363.54 794.25 LINE",
"468.04 933.58 LINE",
"419.66 933.58 LINE",
"332.71 832.46 LINE",
"321.04 832.46 LINE",
"234.08 933.58 LINE",
"185.71 933.58 LINE",
"290.21 794.25 LINE"
);
}
);
width = 615;
}
);
leftKerningGroup = B;
note = Ecaron;
rightKerningGroup = AE;
unicode = 011A;
},
{
glyphname = Ecircumflex;
lastChange = "2019-09-03 16:29:54 +0000";
layers = (
{
hints = (
{
horizontal = 1;
place = "{0, 52.79}";
type = Stem;
},
{
horizontal = 1;
place = "{362.62, 52.79}";
type = Stem;
},
{
horizontal = 1;
place = "{684.21, 52.79}";
type = Stem;
},
{
horizontal = 1;
place = "{895.37, 38.21}";
type = Stem;
},
{
place = "{93.33, 56.65}";
type = Stem;
}
);
layerId = "43E2286E-6EE6-4840-9A6A-FE0C69444F4F";
paths = (
{
closed = 1;
nodes = (
"561.91 0 LINE",
"561.91 52.79 LINE",
"149.98 52.79 LINE",
"149.98 362.62 LINE",
"511.33 362.62 LINE",
"511.33 415.41 LINE",
"149.98 415.41 LINE",
"149.98 684.21 LINE",
"561.91 684.21 LINE",
"561.91 737 LINE",
"93.33 737 LINE",
"93.33 0 LINE"
);
},
{
closed = 1;
nodes = (
"234.83 794.25 LINE",
"321.79 895.37 LINE",
"333.46 895.37 LINE",
"420.41 794.25 LINE",
"468.79 794.25 LINE",
"364.29 933.58 LINE",
"290.96 933.58 LINE",
"186.46 794.25 LINE"
);
}
);
width = 615;
}
);
leftKerningGroup = B;
note = Ecircumflex;
rightKerningGroup = AE;
unicode = 00CA;
},
{
glyphname = uni1EBE;
lastChange = "2019-09-03 16:29:54 +0000";
layers = (
{
hints = (
{
horizontal = 1;
place = "{0, 52.79}";
type = Stem;
},
{
horizontal = 1;
place = "{362.62, 52.79}";
type = Stem;
},
{
horizontal = 1;
place = "{684.21, 52.79}";
type = Stem;
},
{
horizontal = 1;
place = "{865.41, 143.67}";
type = Stem;
},
{
place = "{93.33, 56.65}";
type = Stem;
},
{
horizontal = 1;
place = "{895.37, 38.21}";
type = Stem;
}
);
layerId = "43E2286E-6EE6-4840-9A6A-FE0C69444F4F";
paths = (
{
closed = 1;
nodes = (
"561.91 0 LINE",
"561.91 52.79 LINE",
"149.98 52.79 LINE",
"149.98 362.62 LINE",
"511.33 362.62 LINE",
"511.33 415.41 LINE",
"149.98 415.41 LINE",
"149.98 684.21 LINE",
"561.91 684.21 LINE",
"561.91 737 LINE",
"93.33 737 LINE",
"93.33 0 LINE"
);
},
{
closed = 1;
nodes = (
"234.83 794.25 LINE",
"321.79 895.37 LINE",
"333.46 895.37 LINE",
"420.41 794.25 LINE",
"468.79 794.25 LINE",
"364.29 933.58 LINE",
"290.96 933.58 LINE",
"186.46 794.25 LINE"
);
},
{
closed = 1;
nodes = (
"510.12 865.41 LINE",
"619.41 1009.08 LINE",
"552.71 1009.08 LINE",
"462.5 865.41 LINE"
);
}
);
width = 615;
}
);
leftKerningGroup = B;
note = uni1EBE;
rightKerningGroup = AE;
unicode = 1EBE;
},
{
glyphname = uni1EC6;
lastChange = "2019-09-03 16:29:54 +0000";
layers = (
{
hints = (
{
horizontal = 1;
place = "{-167.96, 110.71}";
type = Stem;
},
{
horizontal = 1;
place = "{0, 52.79}";
type = Stem;
},
{
horizontal = 1;
place = "{362.62, 52.79}";
type = Stem;
},
{
horizontal = 1;
place = "{684.21, 52.79}";
type = Stem;
},
{
horizontal = 1;
place = "{895.37, 38.21}";
type = Stem;
},
{
place = "{93.33, 56.65}";
type = Stem;
},
{
place = "{300.12, 55}";
type = Stem;
}
);
layerId = "43E2286E-6EE6-4840-9A6A-FE0C69444F4F";
paths = (
{
closed = 1;
nodes = (
"561.91 0 LINE",
"561.91 52.79 LINE",
"149.98 52.79 LINE",
"149.98 362.62 LINE",
"511.33 362.62 LINE",
"511.33 415.41 LINE",
"149.98 415.41 LINE",
"149.98 684.21 LINE",
"561.91 684.21 LINE",
"561.91 737 LINE",
"93.33 737 LINE",
"93.33 0 LINE"
);
},
{
closed = 1;
nodes = (
"355.12 -167.96 LINE",
"355.12 -57.25 LINE",
"300.12 -57.25 LINE",
"300.12 -167.96 LINE"
);
},
{
closed = 1;
nodes = (
"234.83 794.25 LINE",
"321.79 895.37 LINE",
"333.46 895.37 LINE",
"420.41 794.25 LINE",
"468.79 794.25 LINE",
"364.29 933.58 LINE",
"290.96 933.58 LINE",
"186.46 794.25 LINE"
);
}
);
width = 615;
}
);
leftKerningGroup = B;
note = uni1EC6;
rightKerningGroup = AE;
unicode = 1EC6;
},
{
glyphname = uni1EC0;
lastChange = "2019-09-03 16:29:54 +0000";
layers = (
{
hints = (
{
horizontal = 1;
place = "{0, 52.79}";
type = Stem;
},
{
horizontal = 1;
place = "{362.62, 52.79}";
type = Stem;
},
{
horizontal = 1;
place = "{684.21, 52.79}";
type = Stem;
},
{
horizontal = 1;
place = "{865.41, 143.67}";
type = Stem;
},
{
place = "{93.33, 56.65}";
type = Stem;
},
{
horizontal = 1;
place = "{895.37, 38.21}";
type = Stem;
}
);
layerId = "43E2286E-6EE6-4840-9A6A-FE0C69444F4F";
paths = (
{
closed = 1;
nodes = (
"561.91 0 LINE",
"561.91 52.79 LINE",
"149.98 52.79 LINE",
"149.98 362.62 LINE",
"511.33 362.62 LINE",
"511.33 415.41 LINE",
"149.98 415.41 LINE",
"149.98 684.21 LINE",
"561.91 684.21 LINE",
"561.91 737 LINE",
"93.33 737 LINE",
"93.33 0 LINE"
);
},
{
closed = 1;
nodes = (
"200.33 865.41 LINE",
"110.12 1009.08 LINE",
"43.41 1009.08 LINE",
"152.71 865.41 LINE"
);
},
{
closed = 1;
nodes = (
"234.83 794.25 LINE",
"321.79 895.37 LINE",
"333.46 895.37 LINE",
"420.41 794.25 LINE",
"468.79 794.25 LINE",
"364.29 933.58 LINE",
"290.96 933.58 LINE",
"186.46 794.25 LINE"
);
}
);
width = 615;
}
);
leftKerningGroup = B;
note = uni1EC0;
rightKerningGroup = AE;
unicode = 1EC0;
},
{
glyphname = uni1EC2;
lastChange = "2019-09-03 16:29:54 +0000";
layers = (
{
hints = (
{
horizontal = 1;
place = "{0, 52.79}";
type = Stem;
},
{
horizontal = 1;
place = "{362.62, 52.79}";
type = Stem;
},
{
horizontal = 1;
place = "{684.21, 52.79}";
type = Stem;
},
{
horizontal = 1;
place = "{895.37, 38.21}";
type = Stem;
},
{
horizontal = 1;
place = "{1024.83, 38.08}";
type = Stem;
},
{
place = "{93.33, 56.65}";
type = Stem;
},
{
place = "{513.96, 43.45}";
type = Stem;
},
{
horizontal = 1;
place = "{865.41, 47.55}";
type = Stem;
},
{
place = "{447.37, 41.04}";
type = Stem;
}
);
layerId = "43E2286E-6EE6-4840-9A6A-FE0C69444F4F";
paths = (
{
closed = 1;
nodes = (
"561.91 0 LINE",
"561.91 52.79 LINE",
"149.98 52.79 LINE",
"149.98 362.62 LINE",
"511.33 362.62 LINE",
"511.33 415.41 LINE",
"149.98 415.41 LINE",
"149.98 684.21 LINE",
"561.91 684.21 LINE",
"561.91 737 LINE",
"93.33 737 LINE",
"93.33 0 LINE"
);
},
{
closed = 1;
nodes = (
"234.83 794.25 LINE",
"321.79 895.37 LINE",
"333.46 895.37 LINE",
"420.41 794.25 LINE",
"468.79 794.25 LINE",
"364.29 933.58 LINE",
"290.96 933.58 LINE",
"186.46 794.25 LINE"
);
},
{
closed = 1;
nodes = (
"488.41 865.41 LINE",
"488.41 896.46 LINE",
"557.41 958.83 LINE",
"557.41 1023.87 LINE",
"519.41 1062.91 LINE",
"431.5 1062.91 LINE",
"389.41 1019 LINE",
"418.25 990.71 LINE",
"451.12 1024.83 LINE",
"499.5 1024.83 LINE",
"513.96 1009.71 LINE",
"513.96 974.54 LINE",
"447.37 912.96 LINE",
"447.37 865.41 LINE"
);
}
);
width = 615;
}
);
leftKerningGroup = B;
note = uni1EC2;
rightKerningGroup = AE;
unicode = 1EC2;
},
{
glyphname = uni1EC4;
lastChange = "2019-09-03 16:29:54 +0000";
layers = (
{
hints = (
{
horizontal = 1;
place = "{0, 52.79}";
type = Stem;
},
{
horizontal = 1;
place = "{362.62, 52.79}";
type = Stem;
},
{
horizontal = 1;
place = "{684.21, 52.79}";
type = Stem;
},
{
horizontal = 1;
place = "{957.54, 39.21}";
type = Stem;
},
{
horizontal = 1;
place = "{1030.87, 39.21}";
type = Stem;
},
{
place = "{93.33, 56.65}";
type = Stem;
},
{
place = "{174.12, 34.29}";
type = Stem;
},
{
place = "{458.83, 34.29}";
type = Stem;
},
{
horizontal = 1;
place = "{895.37, 38.21}";
type = Stem;
}
);
layerId = "43E2286E-6EE6-4840-9A6A-FE0C69444F4F";
paths = (
{
closed = 1;
nodes = (
"561.91 0 LINE",
"561.91 52.79 LINE",
"149.98 52.79 LINE",
"149.98 362.62 LINE",
"511.33 362.62 LINE",
"511.33 415.41 LINE",
"149.98 415.41 LINE",
"149.98 684.21 LINE",
"561.91 684.21 LINE",
"561.91 737 LINE",
"93.33 737 LINE",
"93.33 0 LINE"
);
},
{
closed = 1;
nodes = (
"234.83 794.25 LINE",
"321.79 895.37 LINE",
"333.46 895.37 LINE",
"420.41 794.25 LINE",
"468.79 794.25 LINE",
"364.29 933.58 LINE",
"290.96 933.58 LINE",
"186.46 794.25 LINE"
);
},
{
closed = 1;
nodes = (
"438.29 957.54 LINE",
"492.62 1012.87 LINE",
"493.62 1068.96 LINE",
"459.91 1068.96 LINE",
"457.75 1033 LINE",
"419.62 996.75 LINE",
"385.16 996.75 LINE",
"311.41 1070.08 LINE",
"228.96 1070.08 LINE",
"174.62 1014.71 LINE",
"173.62 958.62 LINE",
"207.33 958.62 LINE",
"209.5 994.5 LINE",
"247.62 1030.87 LINE",
"290.91 1030.87 LINE",
"364.58 957.54 LINE"
);
}
);
width = 615;
}
);
leftKerningGroup = B;
note = uni1EC4;
rightKerningGroup = AE;
unicode = 1EC4;
},
{
glyphname = uni0204;
lastChange = "2019-09-03 16:29:54 +0000";
layers = (
{
hints = (
{
horizontal = 1;
place = "{0, 52.79}";
type = Stem;
},
{
horizontal = 1;
place = "{362.62, 52.79}";
type = Stem;
},
{
horizontal = 1;
place = "{684.21, 52.79}";
type = Stem;
},
{
horizontal = 1;
place = "{794.25, 143.66}";
type = Stem;
},
{
place = "{93.33, 56.65}";
type = Stem;
}
);
layerId = "43E2286E-6EE6-4840-9A6A-FE0C69444F4F";
paths = (
{
closed = 1;
nodes = (
"561.91 0 LINE",
"561.91 52.79 LINE",
"149.98 52.79 LINE",
"149.98 362.62 LINE",
"511.33 362.62 LINE",
"511.33 415.41 LINE",
"149.98 415.41 LINE",
"149.98 684.21 LINE",
"561.91 684.21 LINE",
"561.91 737 LINE",
"93.33 737 LINE",
"93.33 0 LINE"
);
},
{
closed = 1;
nodes = (
"283.62 794.25 LINE",
"193.37 937.91 LINE",
"130.33 937.91 LINE",
"239.62 794.25 LINE"
);
},
{
closed = 1;
nodes = (
"421.5 794.25 LINE",
"331.25 937.91 LINE",
"268.21 937.91 LINE",
"377.5 794.25 LINE"
);
}
);
width = 615;
}
);
leftKerningGroup = B;
note = uni0204;
rightKerningGroup = AE;
unicode = 0204;
},
{
glyphname = Edieresis;
lastChange = "2019-09-03 16:29:54 +0000";
layers = (
{
hints = (
{
horizontal = 1;
place = "{0, 52.79}";
type = Stem;
},
{
horizontal = 1;
place = "{362.62, 52.79}";
type = Stem;
},
{
horizontal = 1;
place = "{684.21, 52.79}";
type = Stem;
},
{
horizontal = 1;
place = "{794.25, 110.83}";
type = Stem;
},
{
place = "{93.33, 56.65}";
type = Stem;
},
{
place = "{167.21, 55}";
type = Stem;
},
{
place = "{433.04, 55}";
type = Stem;
}
);
layerId = "43E2286E-6EE6-4840-9A6A-FE0C69444F4F";
paths = (
{
closed = 1;
nodes = (
"561.91 0 LINE",
"561.91 52.79 LINE",
"149.98 52.79 LINE",
"149.98 362.62 LINE",
"511.33 362.62 LINE",
"511.33 415.41 LINE",
"149.98 415.41 LINE",
"149.98 684.21 LINE",
"561.91 684.21 LINE",
"561.91 737 LINE",
"93.33 737 LINE",
"93.33 0 LINE"
);
},
{
closed = 1;
nodes = (
"222.21 794.25 LINE",
"222.21 905.08 LINE",
"167.21 905.08 LINE",
"167.21 794.25 LINE"
);
},
{
closed = 1;
nodes = (
"488.04 794.25 LINE",
"488.04 905.08 LINE",
"433.04 905.08 LINE",
"433.04 794.25 LINE"
);
}
);
width = 615;
}
);
leftKerningGroup = B;
note = Edieresis;
rightKerningGroup = AE;
unicode = 00CB;
},
{
glyphname = Edotaccent;
lastChange = "2019-09-03 16:29:54 +0000";
layers = (
{
hints = (
{
horizontal = 1;
place = "{0, 52.79}";
type = Stem;
},
{
horizontal = 1;
place = "{362.62, 52.79}";
type = Stem;
},
{
horizontal = 1;
place = "{684.21, 52.79}";
type = Stem;
},
{
horizontal = 1;
place = "{794.25, 110.71}";
type = Stem;
},
{
place = "{93.33, 56.65}";
type = Stem;
},
{
place = "{300.12, 55}";
type = Stem;
}
);
layerId = "43E2286E-6EE6-4840-9A6A-FE0C69444F4F";
paths = (
{
closed = 1;
nodes = (
"561.91 0 LINE",
"561.91 52.79 LINE",
"149.98 52.79 LINE",
"149.98 362.62 LINE",
"511.33 362.62 LINE",
"511.33 415.41 LINE",
"149.98 415.41 LINE",
"149.98 684.21 LINE",
"561.91 684.21 LINE",
"561.91 737 LINE",
"93.33 737 LINE",
"93.33 0 LINE"
);
},
{
closed = 1;
nodes = (
"355.12 794.25 LINE",
"355.12 904.96 LINE",
"300.12 904.96 LINE",
"300.12 794.25 LINE"
);
}
);
width = 615;
}
);
leftKerningGroup = B;
note = Edotaccent;
rightKerningGroup = AE;
unicode = 0116;
},
{
glyphname = uni1EB8;
lastChange = "2019-09-03 16:29:54 +0000";
layers = (
{
hints = (
{
horizontal = 1;
place = "{-167.96, 110.71}";
type = Stem;
},
{
horizontal = 1;
place = "{0, 52.79}";
type = Stem;
},
{
horizontal = 1;
place = "{362.62, 52.79}";
type = Stem;
},
{
horizontal = 1;
place = "{684.21, 52.79}";
type = Stem;
},
{
place = "{93.33, 56.65}";
type = Stem;
},
{
place = "{300.12, 55}";
type = Stem;
}
);
layerId = "43E2286E-6EE6-4840-9A6A-FE0C69444F4F";
paths = (
{
closed = 1;
nodes = (
"561.91 0 LINE",
"561.91 52.79 LINE",
"149.98 52.79 LINE",
"149.98 362.62 LINE",
"511.33 362.62 LINE",
"511.33 415.41 LINE",
"149.98 415.41 LINE",
"149.98 684.21 LINE",
"561.91 684.21 LINE",
"561.91 737 LINE",
"93.33 737 LINE",
"93.33 0 LINE"
);
},
{
closed = 1;
nodes = (
"355.12 -167.96 LINE",
"355.12 -57.25 LINE",
"300.12 -57.25 LINE",
"300.12 -167.96 LINE"
);
}
);
width = 615;
}
);
leftKerningGroup = B;
note = uni1EB8;
rightKerningGroup = AE;
unicode = 1EB8;
},
{
glyphname = Egrave;
lastChange = "2019-09-03 16:29:54 +0000";
layers = (
{
hints = (
{
horizontal = 1;
place = "{0, 52.79}";
type = Stem;
},
{
horizontal = 1;
place = "{362.62, 52.79}";
type = Stem;
},
{
horizontal = 1;
place = "{684.21, 52.79}";
type = Stem;
},
{
horizontal = 1;
place = "{794.25, 143.66}";
type = Stem;
},
{
place = "{93.33, 56.65}";
type = Stem;
}
);
layerId = "43E2286E-6EE6-4840-9A6A-FE0C69444F4F";
paths = (
{
closed = 1;
nodes = (
"561.91 0 LINE",
"561.91 52.79 LINE",
"149.98 52.79 LINE",
"149.98 362.62 LINE",
"511.33 362.62 LINE",
"511.33 415.41 LINE",
"149.98 415.41 LINE",
"149.98 684.21 LINE",
"561.91 684.21 LINE",
"561.91 737 LINE",
"93.33 737 LINE",
"93.33 0 LINE"
);
},
{
closed = 1;
nodes = (
"348.29 794.25 LINE",
"258.08 937.91 LINE",
"191.37 937.91 LINE",
"300.66 794.25 LINE"
);
}
);
width = 615;
}
);
leftKerningGroup = B;
note = Egrave;
rightKerningGroup = AE;
unicode = 00C8;
},
{
glyphname = uni1EBA;
lastChange = "2019-09-03 16:29:54 +0000";
layers = (
{
hints = (
{
horizontal = 1;
place = "{0, 52.79}";
type = Stem;
},
{
horizontal = 1;
place = "{362.62, 52.79}";
type = Stem;
},
{
horizontal = 1;
place = "{684.21, 52.79}";
type = Stem;
},
{
horizontal = 1;
place = "{794.25, 47.54}";
type = Stem;
},
{
horizontal = 1;
place = "{953.66, 38.09}";
type = Stem;
},
{
place = "{93.33, 56.65}";
type = Stem;
},
{
place = "{375.37, 43.46}";
type = Stem;
},
{
place = "{308.79, 41.04}";
type = Stem;
}
);
layerId = "43E2286E-6EE6-4840-9A6A-FE0C69444F4F";
paths = (
{
closed = 1;
nodes = (
"561.91 0 LINE",
"561.91 52.79 LINE",
"149.98 52.79 LINE",
"149.98 362.62 LINE",
"511.33 362.62 LINE",
"511.33 415.41 LINE",
"149.98 415.41 LINE",
"149.98 684.21 LINE",
"561.91 684.21 LINE",
"561.91 737 LINE",
"93.33 737 LINE",
"93.33 0 LINE"
);
},
{
closed = 1;
nodes = (
"349.83 794.25 LINE",
"349.83 825.29 LINE",
"418.83 887.66 LINE",
"418.83 952.71 LINE",
"380.83 991.75 LINE",
"292.91 991.75 LINE",
"250.83 947.83 LINE",
"279.66 919.54 LINE",
"312.54 953.66 LINE",
"360.91 953.66 LINE",
"375.37 938.54 LINE",
"375.37 903.37 LINE",
"308.79 841.79 LINE",
"308.79 794.25 LINE"
);
}
);
width = 615;
}
);
leftKerningGroup = B;
note = uni1EBA;
rightKerningGroup = AE;
unicode = 1EBA;
},
{
glyphname = uni0206;
lastChange = "2019-09-03 16:29:54 +0000";
layers = (
{
hints = (
{
horizontal = 1;
place = "{0, 52.79}";
type = Stem;
},
{
horizontal = 1;
place = "{362.62, 52.79}";
type = Stem;
},
{
horizontal = 1;
place = "{684.21, 52.79}";
type = Stem;
},
{
horizontal = 1;
place = "{879.62, 39.96}";
type = Stem;
},
{
place = "{93.33, 56.65}";
type = Stem;
},
{
place = "{202.54, 40.79}";
type = Stem;
},
{
place = "{411.91, 40.8}";
type = Stem;
}
);
layerId = "43E2286E-6EE6-4840-9A6A-FE0C69444F4F";
paths = (
{
closed = 1;
nodes = (
"561.91 0 LINE",
"561.91 52.79 LINE",
"149.98 52.79 LINE",
"149.98 362.62 LINE",
"511.33 362.62 LINE",
"511.33 415.41 LINE",
"149.98 415.41 LINE",
"149.98 684.21 LINE",
"561.91 684.21 LINE",
"561.91 737 LINE",
"93.33 737 LINE",
"93.33 0 LINE"
);
},
{
closed = 1;
nodes = (
"243.33 794.25 LINE",
"243.33 849.25 LINE",
"273.71 879.62 LINE",
"381.54 879.62 LINE",
"411.91 849.25 LINE",
"411.91 794.25 LINE",
"452.71 794.25 LINE",
"452.71 863.46 LINE",
"396.58 919.58 LINE",
"258.66 919.58 LINE",
"202.54 863.46 LINE",
"202.54 794.25 LINE"
);
}
);
width = 615;
}
);
leftKerningGroup = B;
note = uni0206;
rightKerningGroup = AE;
unicode = 0206;
},
{
glyphname = Emacron;
lastChange = "2019-09-03 16:29:54 +0000";
layers = (
{
hints = (
{
horizontal = 1;
place = "{0, 52.79}";
type = Stem;
},
{
horizontal = 1;
place = "{362.62, 52.79}";
type = Stem;
},
{
horizontal = 1;
place = "{684.21, 52.79}";
type = Stem;
},
{
horizontal = 1;
place = "{794.25, 43.96}";
type = Stem;
},
{
place = "{93.33, 56.65}";
type = Stem;
}
);
layerId = "43E2286E-6EE6-4840-9A6A-FE0C69444F4F";
paths = (
{
closed = 1;
nodes = (
"561.91 0 LINE",
"561.91 52.79 LINE",
"149.98 52.79 LINE",
"149.98 362.62 LINE",
"511.33 362.62 LINE",
"511.33 415.41 LINE",
"149.98 415.41 LINE",
"149.98 684.21 LINE",
"561.91 684.21 LINE",
"561.91 737 LINE",
"93.33 737 LINE",
"93.33 0 LINE"
);
},
{
closed = 1;
nodes = (
"488.04 794.25 LINE",
"488.04 838.21 LINE",
"167.21 838.21 LINE",
"167.21 794.25 LINE"
);
}
);
width = 615;
}
);
leftKerningGroup = B;
note = Emacron;
rightKerningGroup = AE;
unicode = 0112;
},
{
glyphname = Eogonek;
lastChange = "2019-09-03 18:35:36 +0000";
layers = (
{
hints = (
{
horizontal = 1;
place = "{-149.63, 41.79}";
type = Stem;
},
{
horizontal = 1;
place = "{0, 52.79}";
type = Stem;
},
{
horizontal = 1;
place = "{362.62, 52.79}";
type = Stem;
},
{
horizontal = 1;
place = "{684.21, 52.79}";
type = Stem;
},
{
place = "{93.33, 56.65}";
type = Stem;
},
{
place = "{470.91, 39.96}";
type = Stem;
}
);
layerId = "43E2286E-6EE6-4840-9A6A-FE0C69444F4F";
paths = (
{
closed = 1;
nodes = (
"562 -150 LINE",
"562 -108 LINE",
"537 -108 LINE",
"508 -80 LINE",
"508 -41 LINE",
"561.91 0 LINE",
"561.91 52.79 LINE",
"149.98 52.79 LINE",
"149.98 362.62 LINE",
"511.33 362.62 LINE",
"511.33 415.41 LINE",
"149.98 415.41 LINE",
"149.98 684.21 LINE",
"561.91 684.21 LINE",
"561.91 737 LINE",
"93.33 737 LINE",
"93.33 0 LINE",
"511 0 LINE",
"468 -33 LINE",
"468 -97 LINE",
"521 -150 LINE"
);
}
);
width = 615;
}
);
leftKerningGroup = B;
note = Eogonek;
rightKerningGroup = AE;
unicode = 0118;
},
{
glyphname = uni1EBC;
lastChange = "2019-09-03 16:29:54 +0000";
layers = (
{
hints = (
{
horizontal = 1;
place = "{0, 52.79}";
type = Stem;
},
{
horizontal = 1;
place = "{362.62, 52.79}";
type = Stem;
},
{
horizontal = 1;
place = "{684.21, 52.79}";
type = Stem;
},
{
horizontal = 1;
place = "{794.25, 39.21}";
type = Stem;
},
{
horizontal = 1;
place = "{867.58, 39.21}";
type = Stem;
},
{
place = "{93.33, 56.65}";
type = Stem;
},
{
place = "{168.71, 34.28}";
type = Stem;
},
{
place = "{453.41, 34.3}";
type = Stem;
}
);
layerId = "43E2286E-6EE6-4840-9A6A-FE0C69444F4F";
paths = (
{
closed = 1;
nodes = (
"561.91 0 LINE",
"561.91 52.79 LINE",
"149.98 52.79 LINE",
"149.98 362.62 LINE",
"511.33 362.62 LINE",
"511.33 415.41 LINE",
"149.98 415.41 LINE",
"149.98 684.21 LINE",
"561.91 684.21 LINE",
"561.91 737 LINE",
"93.33 737 LINE",
"93.33 0 LINE"
);
},
{
closed = 1;
nodes = (
"432.87 794.25 LINE",
"487.21 849.58 LINE",
"488.21 905.66 LINE",
"454.5 905.66 LINE",
"452.33 869.71 LINE",
"414.21 833.46 LINE",
"379.75 833.46 LINE",
"306 906.79 LINE",
"223.54 906.79 LINE",
"169.21 851.41 LINE",
"168.21 795.33 LINE",
"201.91 795.33 LINE",
"204.08 831.21 LINE",
"242.21 867.58 LINE",
"285.5 867.58 LINE",
"359.16 794.25 LINE"
);
}
);
width = 615;
}
);
leftKerningGroup = B;
note = uni1EBC;
rightKerningGroup = AE;
unicode = 1EBC;
},
{
glyphname = F;
lastChange = "2019-09-03 16:29:54 +0000";
layers = (
{
hints = (
{
horizontal = 1;
place = "{347.25, 52.79}";
type = Stem;
},
{
horizontal = 1;
place = "{684.21, 52.79}";
type = Stem;
},
{
place = "{93.33, 56.65}";
type = Stem;
}
);
layerId = "43E2286E-6EE6-4840-9A6A-FE0C69444F4F";
paths = (
{
closed = 1;
nodes = (
"149.98 0 LINE",
"149.98 347.25 LINE",
"501.08 347.25 LINE",
"501.08 400.04 LINE",
"149.98 400.04 LINE",
"149.98 684.21 LINE",
"550.91 684.21 LINE",
"550.91 737 LINE",
"93.33 737 LINE",
"93.33 0 LINE"
);
}
);
width = 571;
}
);
leftKerningGroup = B;
note = F;
rightKerningGroup = F;
unicode = 0046;
},
{
glyphname = G;
lastChange = "2019-09-03 16:29:54 +0000";
layers = (
{
hints = (
{
horizontal = 1;
place = "{0, 51.29}";
type = Stem;
},
{
horizontal = 1;
place = "{318.25, 51.33}";
type = Stem;
},
{
horizontal = 1;
place = "{685.62, 51.38}";
type = Stem;
},
{
place = "{76.66, 56.46}";
type = Stem;
},
{
place = "{561.79, 49.12}";
type = Stem;
}
);
layerId = "43E2286E-6EE6-4840-9A6A-FE0C69444F4F";
paths = (
{
closed = 1;
nodes = (
"463.87 0 LINE",
"561.79 96.46 LINE",
"561.79 0 LINE",
"610.91 0 LINE",
"610.91 369.58 LINE",
"390.5 369.58 LINE",
"390.5 318.25 LINE",
"561.79 318.25 LINE",
"561.79 162.65 LINE",
"449.04 51.33 LINE",
"198.37 51.25 LINE",
"133.21 117.33 LINE",
"133.04 619.66 LINE",
"198.37 685.58 LINE",
"487.29 685.66 LINE",
"575.29 597.33 LINE",
"611.21 633.58 LINE",
"508.54 737 LINE",
"174.54 737 LINE",
"76.66 638.37 LINE",
"76.66 98.62 LINE",
"173.54 0 LINE"
);
}
);
width = 702;
}
);
leftKerningGroup = C;
note = G;
rightKerningGroup = G;
unicode = 0047;
},
{
glyphname = Gbreve;
lastChange = "2019-09-03 16:29:54 +0000";
layers = (
{
hints = (
{
horizontal = 1;
place = "{0, 51.29}";
type = Stem;
},
{
horizontal = 1;
place = "{318.25, 51.33}";
type = Stem;
},
{
horizontal = 1;
place = "{685.62, 51.38}";
type = Stem;
},
{
horizontal = 1;
place = "{794.25, 39.91}";
type = Stem;
},
{
place = "{76.66, 56.46}";
type = Stem;
},
{
place = "{220.5, 40.79}";
type = Stem;
},
{
place = "{429.87, 40.79}";
type = Stem;
},
{
place = "{561.79, 49.12}";
type = Stem;
}
);
layerId = "43E2286E-6EE6-4840-9A6A-FE0C69444F4F";
paths = (
{
closed = 1;
nodes = (
"463.87 0 LINE",
"561.79 96.46 LINE",
"561.79 0 LINE",
"610.91 0 LINE",
"610.91 369.58 LINE",
"390.5 369.58 LINE",
"390.5 318.25 LINE",
"561.79 318.25 LINE",
"561.79 162.65 LINE",
"449.04 51.33 LINE",
"198.37 51.25 LINE",
"133.21 117.33 LINE",
"133.04 619.66 LINE",
"198.37 685.58 LINE",
"487.29 685.66 LINE",
"575.29 597.33 LINE",
"611.21 633.58 LINE",
"508.54 737 LINE",
"174.54 737 LINE",
"76.66 638.37 LINE",
"76.66 98.62 LINE",
"173.54 0 LINE"
);
},
{
closed = 1;
nodes = (
"414.54 794.25 LINE",
"470.66 850.33 LINE",
"470.66 919.58 LINE",
"429.87 919.58 LINE",
"429.87 864.58 LINE",
"399.5 834.16 LINE",
"291.66 834.16 LINE",
"261.29 864.58 LINE",
"261.29 919.58 LINE",
"220.5 919.58 LINE",
"220.5 850.33 LINE",
"276.62 794.25 LINE"
);
}
);
width = 702;
}
);
leftKerningGroup = C;
note = Gbreve;
rightKerningGroup = G;
unicode = 011E;
},
{
glyphname = Gcaron;
lastChange = "2019-09-03 16:29:54 +0000";
layers = (
{
hints = (
{
horizontal = 1;
place = "{0, 51.29}";
type = Stem;
},
{
horizontal = 1;
place = "{318.25, 51.33}";
type = Stem;
},
{
horizontal = 1;
place = "{685.62, 51.38}";
type = Stem;
},
{
horizontal = 1;
place = "{794.25, 38.21}";
type = Stem;
},
{
place = "{76.66, 56.46}";
type = Stem;
},
{
place = "{561.79, 49.12}";
type = Stem;
}
);
layerId = "43E2286E-6EE6-4840-9A6A-FE0C69444F4F";
paths = (
{
closed = 1;
nodes = (
"463.87 0 LINE",
"561.79 96.46 LINE",
"561.79 0 LINE",
"610.91 0 LINE",
"610.91 369.58 LINE",
"390.5 369.58 LINE",
"390.5 318.25 LINE",
"561.79 318.25 LINE",
"561.79 162.65 LINE",
"449.04 51.33 LINE",
"198.37 51.25 LINE",
"133.21 117.33 LINE",
"133.04 619.66 LINE",
"198.37 685.58 LINE",
"487.29 685.66 LINE",
"575.29 597.33 LINE",
"611.21 633.58 LINE",
"508.54 737 LINE",
"174.54 737 LINE",
"76.66 638.37 LINE",
"76.66 98.62 LINE",
"173.54 0 LINE"
);
},
{
closed = 1;
nodes = (
"381.5 794.25 LINE",
"486 933.58 LINE",
"437.62 933.58 LINE",
"350.66 832.46 LINE",
"339 832.46 LINE",
"252.04 933.58 LINE",
"203.66 933.58 LINE",
"308.16 794.25 LINE"
);
}
);
width = 702;
}
);
leftKerningGroup = C;
note = Gcaron;
rightKerningGroup = G;
unicode = 01E6;
},
{
glyphname = Gcircumflex;
lastChange = "2019-09-03 16:29:54 +0000";
layers = (
{
hints = (
{
horizontal = 1;
place = "{0, 51.29}";
type = Stem;
},
{
horizontal = 1;
place = "{318.25, 51.33}";
type = Stem;
},
{
horizontal = 1;
place = "{685.62, 51.38}";
type = Stem;
},
{
horizontal = 1;
place = "{895.37, 38.21}";
type = Stem;
},
{
place = "{76.66, 56.46}";
type = Stem;
},
{
place = "{561.79, 49.12}";
type = Stem;
}
);
layerId = "43E2286E-6EE6-4840-9A6A-FE0C69444F4F";
paths = (
{
closed = 1;
nodes = (
"463.87 0 LINE",
"561.79 96.46 LINE",
"561.79 0 LINE",
"610.91 0 LINE",
"610.91 369.58 LINE",
"390.5 369.58 LINE",
"390.5 318.25 LINE",
"561.79 318.25 LINE",
"561.79 162.65 LINE",
"449.04 51.33 LINE",
"198.37 51.25 LINE",
"133.21 117.33 LINE",
"133.04 619.66 LINE",
"198.37 685.58 LINE",
"487.29 685.66 LINE",
"575.29 597.33 LINE",
"611.21 633.58 LINE",
"508.54 737 LINE",
"174.54 737 LINE",
"76.66 638.37 LINE",
"76.66 98.62 LINE",
"173.54 0 LINE"
);
},
{
closed = 1;
nodes = (
"252.79 794.25 LINE",
"339.75 895.37 LINE",
"351.41 895.37 LINE",
"438.37 794.25 LINE",
"486.75 794.25 LINE",
"382.25 933.58 LINE",
"308.91 933.58 LINE",
"204.41 794.25 LINE"
);
}
);
width = 702;
}
);
leftKerningGroup = C;
note = Gcircumflex;
rightKerningGroup = G;
unicode = 011C;
},
{
glyphname = uni0122;
lastChange = "2019-09-03 16:29:54 +0000";
layers = (
{
hints = (
{
horizontal = 1;
place = "{-224.42, 167.17}";
type = Stem;
},
{
horizontal = 1;
place = "{0, 51.29}";
type = Stem;
},
{
horizontal = 1;
place = "{318.25, 51.33}";
type = Stem;
},
{
horizontal = 1;
place = "{685.62, 51.38}";
type = Stem;
},
{
place = "{76.66, 56.46}";
type = Stem;
},
{
place = "{561.79, 49.12}";
type = Stem;
}
);
layerId = "43E2286E-6EE6-4840-9A6A-FE0C69444F4F";
paths = (
{
closed = 1;
nodes = (
"463.87 0 LINE",
"561.79 96.46 LINE",
"561.79 0 LINE",
"610.91 0 LINE",
"610.91 369.58 LINE",
"390.5 369.58 LINE",
"390.5 318.25 LINE",
"561.79 318.25 LINE",
"561.79 162.65 LINE",
"449.04 51.33 LINE",
"198.37 51.25 LINE",
"133.21 117.33 LINE",
"133.04 619.66 LINE",
"198.37 685.58 LINE",
"487.29 685.66 LINE",
"575.29 597.33 LINE",
"611.21 633.58 LINE",
"508.54 737 LINE",
"174.54 737 LINE",
"76.66 638.37 LINE",
"76.66 98.62 LINE",
"173.54 0 LINE"
);
},
{
closed = 1;
nodes = (
"296.87 -224.42 LINE",
"357.41 -57.25 LINE",
"300.58 -57.25 LINE",
"262.04 -224.42 LINE"
);
}
);
width = 702;
}
);
leftKerningGroup = C;
note = uni0122;
rightKerningGroup = G;
unicode = 0122;
},
{
glyphname = Gdotaccent;
lastChange = "2019-09-03 16:29:54 +0000";
layers = (
{
hints = (
{
horizontal = 1;
place = "{0, 51.29}";
type = Stem;
},
{
horizontal = 1;
place = "{318.25, 51.33}";
type = Stem;
},
{
horizontal = 1;
place = "{685.62, 51.38}";
type = Stem;
},
{
horizontal = 1;
place = "{794.25, 110.71}";
type = Stem;
},
{
place = "{76.66, 56.46}";
type = Stem;
},
{
place = "{318.08, 55}";
type = Stem;
},
{
place = "{561.79, 49.12}";
type = Stem;
}
);
layerId = "43E2286E-6EE6-4840-9A6A-FE0C69444F4F";
paths = (
{
closed = 1;
nodes = (
"463.87 0 LINE",
"561.79 96.46 LINE",
"561.79 0 LINE",
"610.91 0 LINE",
"610.91 369.58 LINE",
"390.5 369.58 LINE",
"390.5 318.25 LINE",
"561.79 318.25 LINE",
"561.79 162.65 LINE",
"449.04 51.33 LINE",
"198.37 51.25 LINE",
"133.21 117.33 LINE",
"133.04 619.66 LINE",
"198.37 685.58 LINE",
"487.29 685.66 LINE",
"575.29 597.33 LINE",
"611.21 633.58 LINE",
"508.54 737 LINE",
"174.54 737 LINE",
"76.66 638.37 LINE",
"76.66 98.62 LINE",
"173.54 0 LINE"
);
},
{
closed = 1;
nodes = (
"373.08 794.25 LINE",
"373.08 904.96 LINE",
"318.08 904.96 LINE",
"318.08 794.25 LINE"
);
}
);
width = 702;
}
);
leftKerningGroup = C;
note = Gdotaccent;
rightKerningGroup = G;
unicode = 0120;
},
{
glyphname = H;
lastChange = "2019-09-03 16:29:54 +0000";
layers = (
{
hints = (
{
horizontal = 1;
place = "{363.37, 51.34}";
type = Stem;
},
{
place = "{93.33, 56.65}";
type = Stem;
},
{
place = "{557.87, 56.65}";
type = Stem;
}
);
layerId = "43E2286E-6EE6-4840-9A6A-FE0C69444F4F";
paths = (
{
closed = 1;
nodes = (
"149.98 0 LINE",
"149.98 363.37 LINE",
"557.87 363.37 LINE",
"557.87 0 LINE",
"614.52 0 LINE",
"614.52 737 LINE",
"557.87 737 LINE",
"557.87 414.71 LINE",
"149.98 414.71 LINE",
"149.98 737 LINE",
"93.33 737 LINE",
"93.33 0 LINE"
);
}
);
width = 708;
}
);
leftKerningGroup = B;
note = H;
rightKerningGroup = H;
unicode = 0048;
},
{
glyphname = Hbar;
lastChange = "2019-09-03 16:29:54 +0000";
layers = (
{
hints = (
{
horizontal = 1;
place = "{363.37, 51.34}";
type = Stem;
},
{
horizontal = 1;
place = "{559.25, 47.66}";
type = Stem;
},
{
place = "{93.33, 56.65}";
type = Stem;
},
{
place = "{557.87, 56.65}";
type = Stem;
}
);
layerId = "43E2286E-6EE6-4840-9A6A-FE0C69444F4F";
paths = (
{
closed = 1;
nodes = (
"149.98 0 LINE",
"149.98 363.37 LINE",
"557.87 363.37 LINE",
"557.87 0 LINE",
"614.52 0 LINE",
"614.52 559.25 LINE",
"686.66 559.25 LINE",
"686.66 606.91 LINE",
"614.52 606.91 LINE",
"614.52 737 LINE",
"557.87 737 LINE",
"557.87 606.91 LINE",
"149.98 606.91 LINE",
"149.98 737 LINE",
"93.33 737 LINE",
"93.33 606.91 LINE",
"21 606.91 LINE",
"21 559.25 LINE",
"93.33 559.25 LINE",
"93.33 0 LINE"
);
},
{
closed = 1;
nodes = (
"149.98 559.25 LINE",
"557.87 559.25 LINE",
"557.87 414.71 LINE",
"149.98 414.71 LINE"
);
}
);
width = 708;
}
);
leftKerningGroup = B;
note = Hbar;
rightKerningGroup = H;
unicode = 0126;
},
{
glyphname = Hcircumflex;
lastChange = "2019-09-03 16:29:54 +0000";
layers = (
{
hints = (
{
horizontal = 1;
place = "{363.37, 51.34}";
type = Stem;
},
{
horizontal = 1;
place = "{895.37, 38.21}";
type = Stem;
},
{
place = "{93.33, 56.65}";
type = Stem;
},
{
place = "{557.87, 56.65}";
type = Stem;
}
);
layerId = "43E2286E-6EE6-4840-9A6A-FE0C69444F4F";
paths = (
{
closed = 1;
nodes = (
"149.98 0 LINE",
"149.98 363.37 LINE",
"557.87 363.37 LINE",
"557.87 0 LINE",
"614.52 0 LINE",
"614.52 737 LINE",
"557.87 737 LINE",
"557.87 414.71 LINE",
"149.98 414.71 LINE",
"149.98 737 LINE",
"93.33 737 LINE",
"93.33 0 LINE"
);
},
{
closed = 1;
nodes = (
"259.41 794.25 LINE",
"346.37 895.37 LINE",
"358.04 895.37 LINE",
"445 794.25 LINE",
"493.37 794.25 LINE",
"388.87 933.58 LINE",
"315.54 933.58 LINE",
"211.04 794.25 LINE"
);
}
);
width = 708;
}
);
leftKerningGroup = B;
note = Hcircumflex;
rightKerningGroup = H;
unicode = 0124;
},
{
glyphname = I;
lastChange = "2019-09-03 16:29:54 +0000";
layers = (
{
hints = (
{
horizontal = 1;
place = "{0, 52.79}";
type = Stem;
},
{
horizontal = 1;
place = "{684.21, 52.79}";
type = Stem;
},
{
place = "{168.91, 56.65}";
type = Stem;
}
);
layerId = "43E2286E-6EE6-4840-9A6A-FE0C69444F4F";
paths = (
{
closed = 1;
nodes = (
"331 0 LINE",
"331 52.79 LINE",
"225.56 52.79 LINE",
"225.56 684.21 LINE",
"331 684.21 LINE",
"331 737 LINE",
"63.33 737 LINE",
"63.33 684.21 LINE",
"168.91 684.21 LINE",
"168.91 52.79 LINE",
"63.33 52.79 LINE",
"63.33 0 LINE"
);
}
);
width = 394;
}
);
leftKerningGroup = B;
note = I;
rightKerningGroup = H;
unicode = 0049;
},
{
glyphname = Iacute;
lastChange = "2019-09-03 16:29:54 +0000";
layers = (
{
hints = (
{
horizontal = 1;
place = "{0, 52.79}";
type = Stem;
},
{
horizontal = 1;
place = "{684.21, 52.79}";
type = Stem;
},
{
horizontal = 1;
place = "{794.25, 143.66}";
type = Stem;
},
{
place = "{168.91, 56.65}";
type = Stem;
}
);
layerId = "43E2286E-6EE6-4840-9A6A-FE0C69444F4F";
paths = (
{
closed = 1;
nodes = (
"331 0 LINE",
"331 52.79 LINE",
"225.56 52.79 LINE",
"225.56 684.21 LINE",
"331 684.21 LINE",
"331 737 LINE",
"63.33 737 LINE",
"63.33 684.21 LINE",
"168.91 684.21 LINE",
"168.91 52.79 LINE",
"63.33 52.79 LINE",
"63.33 0 LINE"
);
},
{
closed = 1;
nodes = (
"222.25 794.25 LINE",
"331.54 937.91 LINE",
"264.83 937.91 LINE",
"174.62 794.25 LINE"
);
}
);
width = 394;
}
);
leftKerningGroup = B;
note = Iacute;
rightKerningGroup = H;
unicode = 00CD;
},
{
glyphname = Ibreve;
lastChange = "2019-09-03 16:29:54 +0000";
layers = (
{
hints = (
{
horizontal = 1;
place = "{0, 52.79}";
type = Stem;
},
{
horizontal = 1;
place = "{684.21, 52.79}";
type = Stem;
},
{
horizontal = 1;
place = "{794.25, 39.91}";
type = Stem;
},
{
place = "{72.08, 40.79}";
type = Stem;
},
{
place = "{168.91, 56.65}";
type = Stem;
},
{
place = "{281.46, 40.79}";
type = Stem;
}
);
layerId = "43E2286E-6EE6-4840-9A6A-FE0C69444F4F";
paths = (
{
closed = 1;
nodes = (
"331 0 LINE",
"331 52.79 LINE",
"225.56 52.79 LINE",
"225.56 684.21 LINE",
"331 684.21 LINE",
"331 737 LINE",
"63.33 737 LINE",
"63.33 684.21 LINE",
"168.91 684.21 LINE",
"168.91 52.79 LINE",
"63.33 52.79 LINE",
"63.33 0 LINE"
);
},
{
closed = 1;
nodes = (
"266.12 794.25 LINE",
"322.25 850.33 LINE",
"322.25 919.58 LINE",
"281.46 919.58 LINE",
"281.46 864.58 LINE",
"251.08 834.16 LINE",
"143.25 834.16 LINE",
"112.87 864.58 LINE",
"112.87 919.58 LINE",
"72.08 919.58 LINE",
"72.08 850.33 LINE",
"128.21 794.25 LINE"
);
}
);
width = 394;
}
);
leftKerningGroup = B;
note = Ibreve;
rightKerningGroup = H;
unicode = 012C;
},
{
glyphname = Icircumflex;
lastChange = "2019-09-03 16:29:54 +0000";
layers = (
{
hints = (
{
horizontal = 1;
place = "{0, 52.79}";
type = Stem;
},
{
horizontal = 1;
place = "{684.21, 52.79}";
type = Stem;
},
{
horizontal = 1;
place = "{895.37, 38.21}";
type = Stem;
},
{
place = "{168.91, 56.65}";
type = Stem;
}
);
layerId = "43E2286E-6EE6-4840-9A6A-FE0C69444F4F";
paths = (
{
closed = 1;
nodes = (
"331 0 LINE",
"331 52.79 LINE",
"225.56 52.79 LINE",
"225.56 684.21 LINE",
"331 684.21 LINE",
"331 737 LINE",
"63.33 737 LINE",
"63.33 684.21 LINE",
"168.91 684.21 LINE",
"168.91 52.79 LINE",
"63.33 52.79 LINE",
"63.33 0 LINE"
);
},
{
closed = 1;
nodes = (
"104.37 794.25 LINE",
"191.33 895.37 LINE",
"203 895.37 LINE",
"289.96 794.25 LINE",
"338.33 794.25 LINE",
"233.83 933.58 LINE",
"160.5 933.58 LINE",
"56 794.25 LINE"
);
}
);
width = 394;
}
);
leftKerningGroup = B;
note = Icircumflex;
rightKerningGroup = H;
unicode = 00CE;
},
{
glyphname = uni0208;
lastChange = "2019-09-03 16:29:54 +0000";
layers = (
{
hints = (
{
horizontal = 1;
place = "{0, 52.79}";
type = Stem;
},
{
horizontal = 1;
place = "{684.21, 52.79}";
type = Stem;
},
{
horizontal = 1;
place = "{794.25, 143.66}";
type = Stem;
},
{
place = "{168.91, 56.65}";
type = Stem;
}
);
layerId = "43E2286E-6EE6-4840-9A6A-FE0C69444F4F";
paths = (
{
closed = 1;
nodes = (
"331 0 LINE",
"331 52.79 LINE",
"225.56 52.79 LINE",
"225.56 684.21 LINE",
"331 684.21 LINE",
"331 737 LINE",
"63.33 737 LINE",
"63.33 684.21 LINE",
"168.91 684.21 LINE",
"168.91 52.79 LINE",
"63.33 52.79 LINE",
"63.33 0 LINE"
);
},
{
closed = 1;
nodes = (
"153.16 794.25 LINE",
"62.91 937.91 LINE",
"-0.13 937.91 LINE",
"109.16 794.25 LINE"
);
},
{
closed = 1;
nodes = (
"291.04 794.25 LINE",
"200.79 937.91 LINE",
"137.75 937.91 LINE",
"247.04 794.25 LINE"
);
}
);
width = 394;
}
);
leftKerningGroup = B;
note = uni0208;
rightKerningGroup = H;
unicode = 0208;
},
{
glyphname = Idieresis;
lastChange = "2019-09-03 16:29:54 +0000";
layers = (
{
hints = (
{
horizontal = 1;
place = "{0, 52.79}";
type = Stem;
},
{
horizontal = 1;
place = "{684.21, 52.79}";
type = Stem;
},
{
horizontal = 1;
place = "{794.25, 110.83}";
type = Stem;
},
{
place = "{36.75, 55}";
type = Stem;
},
{
place = "{168.91, 56.65}";
type = Stem;
},
{
place = "{302.58, 55}";
type = Stem;
}
);
layerId = "43E2286E-6EE6-4840-9A6A-FE0C69444F4F";
paths = (
{
closed = 1;
nodes = (
"331 0 LINE",
"331 52.79 LINE",
"225.56 52.79 LINE",
"225.56 684.21 LINE",
"331 684.21 LINE",
"331 737 LINE",
"63.33 737 LINE",
"63.33 684.21 LINE",
"168.91 684.21 LINE",
"168.91 52.79 LINE",
"63.33 52.79 LINE",
"63.33 0 LINE"
);
},
{
closed = 1;
nodes = (
"91.75 794.25 LINE",
"91.75 905.08 LINE",
"36.75 905.08 LINE",
"36.75 794.25 LINE"
);
},
{
closed = 1;
nodes = (
"357.58 794.25 LINE",
"357.58 905.08 LINE",
"302.58 905.08 LINE",
"302.58 794.25 LINE"
);
}
);
width = 394;
}
);
leftKerningGroup = B;
note = Idieresis;
rightKerningGroup = H;
unicode = 00CF;
},
{
glyphname = Idotaccent;
lastChange = "2019-09-03 16:29:54 +0000";
layers = (
{
hints = (
{
horizontal = 1;
place = "{0, 52.79}";
type = Stem;
},
{
horizontal = 1;
place = "{684.21, 52.79}";
type = Stem;
},
{
horizontal = 1;
place = "{794.25, 110.71}";
type = Stem;
},
{
place = "{168.91, 56.65}";
type = Stem;
}
);
layerId = "43E2286E-6EE6-4840-9A6A-FE0C69444F4F";
paths = (
{
closed = 1;
nodes = (
"331 0 LINE",
"331 52.79 LINE",
"225.56 52.79 LINE",
"225.56 684.21 LINE",
"331 684.21 LINE",
"331 737 LINE",
"63.33 737 LINE",
"63.33 684.21 LINE",
"168.91 684.21 LINE",
"168.91 52.79 LINE",
"63.33 52.79 LINE",
"63.33 0 LINE"
);
},
{
closed = 1;
nodes = (
"224.66 794.25 LINE",
"224.66 904.96 LINE",
"169.66 904.96 LINE",
"169.66 794.25 LINE"
);
}
);
width = 394;
}
);
leftKerningGroup = B;
note = Idotaccent;
rightKerningGroup = H;
unicode = 0130;
},
{
glyphname = uni1ECA;
lastChange = "2019-09-03 16:29:54 +0000";
layers = (
{
hints = (
{
horizontal = 1;
place = "{-167.96, 110.71}";
type = Stem;
},
{
horizontal = 1;
place = "{0, 52.79}";
type = Stem;
},
{
horizontal = 1;
place = "{684.21, 52.79}";
type = Stem;
},
{
place = "{168.91, 56.65}";
type = Stem;
}
);
layerId = "43E2286E-6EE6-4840-9A6A-FE0C69444F4F";
paths = (
{
closed = 1;
nodes = (
"331 0 LINE",
"331 52.79 LINE",
"225.56 52.79 LINE",
"225.56 684.21 LINE",
"331 684.21 LINE",
"331 737 LINE",
"63.33 737 LINE",
"63.33 684.21 LINE",
"168.91 684.21 LINE",
"168.91 52.79 LINE",
"63.33 52.79 LINE",
"63.33 0 LINE"
);
},
{
closed = 1;
nodes = (
"224.66 -167.96 LINE",
"224.66 -57.25 LINE",
"169.66 -57.25 LINE",
"169.66 -167.96 LINE"
);
}
);
width = 394;
}
);
leftKerningGroup = B;
note = uni1ECA;
rightKerningGroup = H;
unicode = 1ECA;
},
{
glyphname = Igrave;
lastChange = "2019-09-03 16:29:54 +0000";
layers = (
{
hints = (
{
horizontal = 1;
place = "{0, 52.79}";
type = Stem;
},
{
horizontal = 1;
place = "{684.21, 52.79}";
type = Stem;
},
{
horizontal = 1;
place = "{794.25, 143.66}";
type = Stem;
},
{
place = "{168.91, 56.65}";
type = Stem;
}
);
layerId = "43E2286E-6EE6-4840-9A6A-FE0C69444F4F";
paths = (
{
closed = 1;
nodes = (
"331 0 LINE",
"331 52.79 LINE",
"225.56 52.79 LINE",
"225.56 684.21 LINE",
"331 684.21 LINE",
"331 737 LINE",
"63.33 737 LINE",
"63.33 684.21 LINE",
"168.91 684.21 LINE",
"168.91 52.79 LINE",
"63.33 52.79 LINE",
"63.33 0 LINE"
);
},
{
closed = 1;
nodes = (
"217.83 794.25 LINE",
"127.62 937.91 LINE",
"60.91 937.91 LINE",
"170.21 794.25 LINE"
);
}
);
width = 394;
}
);
leftKerningGroup = B;
note = Igrave;
rightKerningGroup = H;
unicode = 00CC;
},
{
glyphname = uni1EC8;
lastChange = "2019-09-03 16:29:54 +0000";
layers = (
{
hints = (
{
horizontal = 1;
place = "{0, 52.79}";
type = Stem;
},
{
horizontal = 1;
place = "{684.21, 52.79}";
type = Stem;
},
{
horizontal = 1;
place = "{794.25, 47.54}";
type = Stem;
},
{
horizontal = 1;
place = "{953.66, 38.09}";
type = Stem;
},
{
place = "{168.91, 56.65}";
type = Stem;
},
{
place = "{244.91, 43.46}";
type = Stem;
},
{
place = "{178.33, 41.04}";
type = Stem;
}
);
layerId = "43E2286E-6EE6-4840-9A6A-FE0C69444F4F";
paths = (
{
closed = 1;
nodes = (
"331 0 LINE",
"331 52.79 LINE",
"225.56 52.79 LINE",
"225.56 684.21 LINE",
"331 684.21 LINE",
"331 737 LINE",
"63.33 737 LINE",
"63.33 684.21 LINE",
"168.91 684.21 LINE",
"168.91 52.79 LINE",
"63.33 52.79 LINE",
"63.33 0 LINE"
);
},
{
closed = 1;
nodes = (
"219.37 794.25 LINE",
"219.37 825.29 LINE",
"288.37 887.66 LINE",
"288.37 952.71 LINE",
"250.37 991.75 LINE",
"162.46 991.75 LINE",
"120.37 947.83 LINE",
"149.21 919.54 LINE",
"182.08 953.66 LINE",
"230.46 953.66 LINE",
"244.91 938.54 LINE",
"244.91 903.37 LINE",
"178.33 841.79 LINE",
"178.33 794.25 LINE"
);
}
);
width = 394;
}
);
leftKerningGroup = B;
note = uni1EC8;
rightKerningGroup = H;
unicode = 1EC8;
},
{
glyphname = uni020A;
lastChange = "2019-09-03 16:29:54 +0000";
layers = (
{
hints = (
{
horizontal = 1;
place = "{0, 52.79}";
type = Stem;
},
{
horizontal = 1;
place = "{684.21, 52.79}";
type = Stem;
},
{
horizontal = 1;
place = "{879.62, 39.96}";
type = Stem;
},
{
place = "{72.08, 40.79}";
type = Stem;
},
{
place = "{168.91, 56.65}";
type = Stem;
},
{
place = "{281.46, 40.79}";
type = Stem;
}
);
layerId = "43E2286E-6EE6-4840-9A6A-FE0C69444F4F";
paths = (
{
closed = 1;
nodes = (
"331 0 LINE",
"331 52.79 LINE",
"225.56 52.79 LINE",
"225.56 684.21 LINE",
"331 684.21 LINE",
"331 737 LINE",
"63.33 737 LINE",
"63.33 684.21 LINE",
"168.91 684.21 LINE",
"168.91 52.79 LINE",
"63.33 52.79 LINE",
"63.33 0 LINE"
);
},
{
closed = 1;
nodes = (
"112.87 794.25 LINE",
"112.87 849.25 LINE",
"143.25 879.62 LINE",
"251.08 879.62 LINE",
"281.46 849.25 LINE",
"281.46 794.25 LINE",
"322.25 794.25 LINE",
"322.25 863.46 LINE",
"266.12 919.58 LINE",
"128.21 919.58 LINE",
"72.08 863.46 LINE",
"72.08 794.25 LINE"
);
}
);
width = 394;
}
);
leftKerningGroup = B;
note = uni020A;
rightKerningGroup = H;
unicode = 020A;
},
{
glyphname = Imacron;
lastChange = "2019-09-03 16:29:54 +0000";
layers = (
{
hints = (
{
horizontal = 1;
place = "{0, 52.79}";
type = Stem;
},
{
horizontal = 1;
place = "{684.21, 52.79}";
type = Stem;
},
{
horizontal = 1;
place = "{794.25, 43.96}";
type = Stem;
},
{
place = "{168.91, 56.65}";
type = Stem;
}
);
layerId = "43E2286E-6EE6-4840-9A6A-FE0C69444F4F";
paths = (
{
closed = 1;
nodes = (
"331 0 LINE",
"331 52.79 LINE",
"225.56 52.79 LINE",
"225.56 684.21 LINE",
"331 684.21 LINE",
"331 737 LINE",
"63.33 737 LINE",
"63.33 684.21 LINE",
"168.91 684.21 LINE",
"168.91 52.79 LINE",
"63.33 52.79 LINE",
"63.33 0 LINE"
);
},
{
closed = 1;
nodes = (
"357.58 794.25 LINE",
"357.58 838.21 LINE",
"36.75 838.21 LINE",
"36.75 794.25 LINE"
);
}
);
width = 394;
}
);
leftKerningGroup = B;
note = Imacron;
rightKerningGroup = H;
unicode = 012A;
},
{
glyphname = Iogonek;
lastChange = "2019-09-03 16:29:54 +0000";
layers = (
{
hints = (
{
horizontal = 1;
place = "{-149.63, 41.79}";
type = Stem;
},
{
horizontal = 1;
place = "{0, 52.79}";
type = Stem;
},
{
horizontal = 1;
place = "{684.21, 52.79}";
type = Stem;
},
{
place = "{168.91, 56.65}";
type = Stem;
},
{
place = "{237.5, 39.96}";
type = Stem;
}
);
layerId = "43E2286E-6EE6-4840-9A6A-FE0C69444F4F";
paths = (
{
closed = 1;
nodes = (
"331 -149.63 LINE",
"331 -107.84 LINE",
"305.71 -107.84 LINE",
"277.46 -79.59 LINE",
"277.46 -41.25 LINE",
"331 0 LINE",
"331 52.79 LINE",
"225.56 52.79 LINE",
"225.56 684.21 LINE",
"331 684.21 LINE",
"331 737 LINE",
"63.33 737 LINE",
"63.33 684.21 LINE",
"168.91 684.21 LINE",
"168.91 52.79 LINE",
"63.33 52.79 LINE",
"63.33 0 LINE",
"280.37 0 LINE",
"237.5 -33 LINE",
"237.5 -96.75 LINE",
"290.29 -149.63 LINE"
);
}
);
width = 394;
}
);
leftKerningGroup = B;
note = Iogonek;
rightKerningGroup = H;
unicode = 012E;
},
{
glyphname = Itilde;
lastChange = "2019-09-03 16:29:54 +0000";
layers = (
{
hints = (
{
horizontal = 1;
place = "{0, 52.79}";
type = Stem;
},
{
horizontal = 1;
place = "{684.21, 52.79}";
type = Stem;
},
{
horizontal = 1;
place = "{794.25, 39.21}";
type = Stem;
},
{
horizontal = 1;
place = "{867.58, 39.21}";
type = Stem;
},
{
place = "{38.25, 34.29}";
type = Stem;
},
{
place = "{168.91, 56.65}";
type = Stem;
},
{
place = "{322.95, 34.3}";
type = Stem;
}
);
layerId = "43E2286E-6EE6-4840-9A6A-FE0C69444F4F";
paths = (
{
closed = 1;
nodes = (
"331 0 LINE",
"331 52.79 LINE",
"225.56 52.79 LINE",
"225.56 684.21 LINE",
"331 684.21 LINE",
"331 737 LINE",
"63.33 737 LINE",
"63.33 684.21 LINE",
"168.91 684.21 LINE",
"168.91 52.79 LINE",
"63.33 52.79 LINE",
"63.33 0 LINE"
);
},
{
closed = 1;
nodes = (
"302.41 794.25 LINE",
"356.75 849.58 LINE",
"357.75 905.66 LINE",
"324.04 905.66 LINE",
"321.87 869.71 LINE",
"283.75 833.46 LINE",
"249.29 833.46 LINE",
"175.54 906.79 LINE",
"93.08 906.79 LINE",
"38.75 851.41 LINE",
"37.75 795.33 LINE",
"71.46 795.33 LINE",
"73.62 831.21 LINE",
"111.75 867.58 LINE",
"155.04 867.58 LINE",
"228.71 794.25 LINE"
);
}
);
width = 394;
}
);
leftKerningGroup = B;
note = Itilde;
rightKerningGroup = H;
unicode = 0128;
},
{
glyphname = J;
lastChange = "2019-09-03 16:29:54 +0000";
layers = (
{
hints = (
{
horizontal = 1;
place = "{0, 51.31}";
type = Stem;
},
{
place = "{60, 56.5}";
type = Stem;
},
{
place = "{416.41, 56.42}";
type = Stem;
}
);
layerId = "43E2286E-6EE6-4840-9A6A-FE0C69444F4F";
paths = (
{
closed = 1;
nodes = (
"375 0 LINE",
"472.83 98.62 LINE",
"472.83 737 LINE",
"416.37 737 LINE",
"416.46 117.33 LINE",
"351.12 51.37 LINE",
"181.71 51.25 LINE",
"116.54 117.33 LINE",
"116.46 266.58 LINE",
"60 266.58 LINE",
"60 98.62 LINE",
"157.83 0 LINE"
);
}
);
width = 566;
}
);
leftKerningGroup = J;
note = J;
unicode = 004A;
},
{
glyphname = Jcircumflex;
lastChange = "2019-09-03 16:29:54 +0000";
layers = (
{
hints = (
{
horizontal = 1;
place = "{0, 51.31}";
type = Stem;
},
{
horizontal = 1;
place = "{895.37, 38.21}";
type = Stem;
},
{
place = "{60, 56.5}";
type = Stem;
},
{
place = "{416.41, 56.42}";
type = Stem;
}
);
layerId = "43E2286E-6EE6-4840-9A6A-FE0C69444F4F";
paths = (
{
closed = 1;
nodes = (
"375 0 LINE",
"472.83 98.62 LINE",
"472.83 737 LINE",
"416.37 737 LINE",
"416.46 117.33 LINE",
"351.12 51.37 LINE",
"181.71 51.25 LINE",
"116.54 117.33 LINE",
"116.46 266.58 LINE",
"60 266.58 LINE",
"60 98.62 LINE",
"157.83 0 LINE"
);
},
{
closed = 1;
nodes = (
"351.83 794.25 LINE",
"438.79 895.37 LINE",
"450.46 895.37 LINE",
"537.41 794.25 LINE",
"585.79 794.25 LINE",
"481.29 933.58 LINE",
"407.96 933.58 LINE",
"303.46 794.25 LINE"
);
}
);
width = 566;
}
);
note = Jcircumflex;
unicode = 0134;
},
{
glyphname = K;
lastChange = "2019-09-30 12:15:37 +0000";
layers = (
{
hints = (
{
horizontal = 1;
place = "{0, 737}";
type = Stem;
},
{
place = "{93.33, 56.65}";
type = Stem;
}
);
layerId = "43E2286E-6EE6-4840-9A6A-FE0C69444F4F";
paths = (
{
closed = 1;
nodes = (
"149.98 0 LINE",
"149.98 237.56 LINE",
"274.43 377.73 LINE",
"536.75 0 LINE",
"603.66 0 LINE",
"312.71 420.85 LINE",
"593.41 737 LINE",
"525.96 737 LINE",
"150 317 LINE",
"149.98 737 LINE",
"93.33 737 LINE",
"93.33 0 LINE"
);
}
);
width = 632;
}
);
leftKerningGroup = B;
note = K;
rightKerningGroup = K;
unicode = 004B;
},
{
glyphname = uni0136;
lastChange = "2019-09-30 12:15:45 +0000";
layers = (
{
hints = (
{
horizontal = 1;
place = "{-224.42, 167.17}";
type = Stem;
},
{
place = "{93.33, 56.65}";
type = Stem;
}
);
layerId = "43E2286E-6EE6-4840-9A6A-FE0C69444F4F";
paths = (
{
closed = 1;
nodes = (
"299.16 -224.42 LINE",
"359.71 -57.25 LINE",
"302.87 -57.25 LINE",
"264.33 -224.42 LINE"
);
},
{
closed = 1;
nodes = (
"149.98 0 LINE",
"149.98 237.56 LINE",
"274.43 377.73 LINE",
"536.75 0 LINE",
"603.66 0 LINE",
"312.71 420.85 LINE",
"593.41 737 LINE",
"525.96 737 LINE",
"150 317 LINE",
"149.98 737 LINE",
"93.33 737 LINE",
"93.33 0 LINE"
);
}
);
width = 632;
}
);
leftKerningGroup = B;
note = uni0136;
rightKerningGroup = K;
unicode = 0136;
},
{
glyphname = L;
lastChange = "2019-09-03 16:29:54 +0000";
layers = (
{
hints = (
{
horizontal = 1;
place = "{0, 52.79}";
type = Stem;
},
{
place = "{93.33, 56.65}";
type = Stem;
}
);
layerId = "43E2286E-6EE6-4840-9A6A-FE0C69444F4F";
paths = (
{
closed = 1;
nodes = (
"536.91 0 LINE",
"536.91 52.79 LINE",
"149.98 52.79 LINE",
"149.98 737 LINE",
"93.33 737 LINE",
"93.33 0 LINE"
);
}
);
width = 547;
}
);
leftKerningGroup = B;
note = L;
rightKerningGroup = L;
unicode = 004C;
},
{
glyphname = uni01C7;
lastChange = "2019-09-03 16:29:54 +0000";
layers = (
{
hints = (
{
horizontal = 1;
place = "{0, 52.79}";
type = Stem;
},
{
place = "{93.33, 56.65}";
type = Stem;
},
{
place = "{621.08, 56.5}";
type = Stem;
},
{
place = "{977.5, 56.41}";
type = Stem;
}
);
layerId = "43E2286E-6EE6-4840-9A6A-FE0C69444F4F";
paths = (
{
closed = 1;
nodes = (
"536.91 0 LINE",
"536.91 52.79 LINE",
"149.98 52.79 LINE",
"149.98 737 LINE",
"93.33 737 LINE",
"93.33 0 LINE"
);
},
{
closed = 1;
nodes = (
"936.08 0 LINE",
"1033.91 98.62 LINE",
"1033.91 737 LINE",
"977.46 737 LINE",
"977.54 117.33 LINE",
"912.21 51.37 LINE",
"742.79 51.25 LINE",
"677.62 117.33 LINE",
"677.54 266.58 LINE",
"621.08 266.58 LINE",
"621.08 98.62 LINE",
"718.91 0 LINE"
);
}
);
width = 1127;
}
);
leftKerningGroup = B;
note = uni01C7;
unicode = 01C7;
},
{
glyphname = Lacute;
lastChange = "2019-09-03 16:29:54 +0000";
layers = (
{
hints = (
{
horizontal = 1;
place = "{0, 52.79}";
type = Stem;
},
{
horizontal = 1;
place = "{794.25, 143.66}";
type = Stem;
},
{
place = "{93.33, 56.65}";
type = Stem;
}
);
layerId = "43E2286E-6EE6-4840-9A6A-FE0C69444F4F";
paths = (
{
closed = 1;
nodes = (
"536.91 0 LINE",
"536.91 52.79 LINE",
"149.98 52.79 LINE",
"149.98 737 LINE",
"93.33 737 LINE",
"93.33 0 LINE"
);
},
{
closed = 1;
nodes = (
"146.62 794.25 LINE",
"255.91 937.91 LINE",
"189.21 937.91 LINE",
"99 794.25 LINE"
);
}
);
width = 547;
}
);
leftKerningGroup = B;
note = Lacute;
rightKerningGroup = L;
unicode = 0139;
},
{
glyphname = Lcaron;
lastChange = "2019-09-03 16:29:54 +0000";
layers = (
{
hints = (
{
horizontal = 1;
place = "{0, 52.79}";
type = Stem;
},
{
horizontal = 1;
place = "{569.83, 167.17}";
type = Stem;
},
{
place = "{93.33, 56.65}";
type = Stem;
}
);
layerId = "43E2286E-6EE6-4840-9A6A-FE0C69444F4F";
paths = (
{
closed = 1;
nodes = (
"536.91 0 LINE",
"536.91 52.79 LINE",
"149.98 52.79 LINE",
"149.98 737 LINE",
"93.33 737 LINE",
"93.33 0 LINE"
);
},
{
closed = 1;
nodes = (
"347 569.83 LINE",
"407.54 737 LINE",
"350.71 737 LINE",
"312.16 569.83 LINE"
);
}
);
width = 547;
}
);
leftKerningGroup = B;
note = Lcaron;
rightKerningGroup = L;
unicode = 013D;
},
{
glyphname = uni013B;
lastChange = "2019-09-03 16:29:54 +0000";
layers = (
{
hints = (
{
horizontal = 1;
place = "{-224.42, 167.17}";
type = Stem;
},
{
horizontal = 1;
place = "{0, 52.79}";
type = Stem;
},
{
place = "{93.33, 56.65}";
type = Stem;
}
);
layerId = "43E2286E-6EE6-4840-9A6A-FE0C69444F4F";
paths = (
{
closed = 1;
nodes = (
"536.91 0 LINE",
"536.91 52.79 LINE",
"149.98 52.79 LINE",
"149.98 737 LINE",
"93.33 737 LINE",
"93.33 0 LINE"
);
},
{
closed = 1;
nodes = (
"281.83 -224.42 LINE",
"342.37 -57.25 LINE",
"285.54 -57.25 LINE",
"247 -224.42 LINE"
);
}
);
width = 547;
}
);
leftKerningGroup = B;
note = uni013B;
rightKerningGroup = L;
unicode = 013B;
},
{
glyphname = Ldot;
lastChange = "2019-09-03 16:29:54 +0000";
layers = (
{
hints = (
{
horizontal = 1;
place = "{0, 52.79}";
type = Stem;
},
{
horizontal = 1;
place = "{331.02, 110.71}";
type = Stem;
},
{
place = "{93.33, 56.65}";
type = Stem;
},
{
place = "{334.04, 55}";
type = Stem;
}
);
layerId = "43E2286E-6EE6-4840-9A6A-FE0C69444F4F";
paths = (
{
closed = 1;
nodes = (
"536.91 0 LINE",
"536.91 52.79 LINE",
"149.98 52.79 LINE",
"149.98 737 LINE",
"93.33 737 LINE",
"93.33 0 LINE"
);
},
{
closed = 1;
nodes = (
"389.04 331.02 LINE",
"389.04 441.73 LINE",
"334.04 441.73 LINE",
"334.04 331.02 LINE"
);
}
);
width = 547;
}
);
leftKerningGroup = B;
note = Ldot;
rightKerningGroup = L;
unicode = 013F;
},
{
glyphname = uni01C8;
lastChange = "2019-09-03 16:29:54 +0000";
layers = (
{
hints = (
{
horizontal = 1;
place = "{-187, 47.66}";
type = Stem;
},
{
horizontal = 1;
place = "{0, 52.79}";
type = Stem;
},
{
horizontal = 1;
place = "{579.75, 110.71}";
type = Stem;
},
{
place = "{93.33, 56.65}";
type = Stem;
},
{
place = "{648.25, 55}";
type = Stem;
}
);
layerId = "43E2286E-6EE6-4840-9A6A-FE0C69444F4F";
paths = (
{
closed = 1;
nodes = (
"536.91 0 LINE",
"536.91 52.79 LINE",
"149.98 52.79 LINE",
"149.98 737 LINE",
"93.33 737 LINE",
"93.33 0 LINE"
);
},
{
closed = 1;
nodes = (
"619.58 -187 LINE",
"703.25 -103.42 LINE",
"703.25 522.5 LINE",
"648.25 522.5 LINE",
"648.25 -84.71 LINE",
"595 -139.34 LINE",
"496.08 -139.34 LINE",
"496.08 -187 LINE"
);
},
{
closed = 1;
nodes = (
"703.25 579.75 LINE",
"703.25 690.46 LINE",
"648.25 690.46 LINE",
"648.25 579.75 LINE"
);
}
);
width = 792;
}
);
leftKerningGroup = B;
note = uni01C8;
rightKerningGroup = uni01C8;
unicode = 01C8;
},
{
glyphname = Lslash;
lastChange = "2019-09-03 16:29:54 +0000";
layers = (
{
hints = (
{
horizontal = 1;
place = "{0, 52.79}";
type = Stem;
},
{
place = "{93.33, 56.65}";
type = Stem;
}
);
layerId = "43E2286E-6EE6-4840-9A6A-FE0C69444F4F";
paths = (
{
closed = 1;
nodes = (
"536.91 0 LINE",
"536.91 52.79 LINE",
"149.98 52.79 LINE",
"149.98 356.33 LINE",
"346 442.21 LINE",
"346 499.08 LINE",
"149.98 413.21 LINE",
"149.98 737 LINE",
"93.33 737 LINE",
"93.33 388.39 LINE",
"27 359.33 LINE",
"27 302.46 LINE",
"93.33 331.52 LINE",
"93.33 0 LINE"
);
}
);
width = 547;
}
);
leftKerningGroup = B;
note = Lslash;
rightKerningGroup = L;
unicode = 0141;
},
{
glyphname = M;
lastChange = "2019-09-03 16:29:54 +0000";
layers = (
{
hints = (
{
horizontal = 1;
place = "{648.25, 88.75}";
type = Stem;
},
{
place = "{93.33, 56.65}";
type = Stem;
},
{
place = "{724.79, 56.65}";
type = Stem;
}
);
layerId = "43E2286E-6EE6-4840-9A6A-FE0C69444F4F";
paths = (
{
closed = 1;
nodes = (
"149.98 0 LINE",
"149.98 648.25 LINE",
"163.04 648.25 LINE",
"421.12 0 LINE",
"453.46 0 LINE",
"711.54 648.25 LINE",
"724.79 648.25 LINE",
"724.79 0 LINE",
"781.44 0 LINE",
"781.44 737 LINE",
"691.79 737 LINE",
"437.21 93.21 LINE",
"182.62 737 LINE",
"93.33 737 LINE",
"93.33 0 LINE"
);
}
);
width = 875;
}
);
leftKerningGroup = B;
note = M;
rightKerningGroup = H;
unicode = 004D;
},
{
glyphname = N;
lastChange = "2019-09-03 16:29:54 +0000";
layers = (
{
hints = (
{
horizontal = 1;
place = "{0, 88.75}";
type = Stem;
},
{
horizontal = 1;
place = "{648.25, 88.75}";
type = Stem;
},
{
place = "{93.33, 56.65}";
type = Stem;
},
{
place = "{547.21, 56.65}";
type = Stem;
}
);
layerId = "43E2286E-6EE6-4840-9A6A-FE0C69444F4F";
paths = (
{
closed = 1;
nodes = (
"149.98 0 LINE",
"149.98 648.25 LINE",
"171 648.25 LINE",
"523.04 0 LINE",
"603.86 0 LINE",
"603.86 737 LINE",
"547.21 737 LINE",
"547.21 88.75 LINE",
"534.04 88.75 LINE",
"182 737 LINE",
"93.33 737 LINE",
"93.33 0 LINE"
);
}
);
width = 697;
}
);
leftKerningGroup = B;
note = N;
rightKerningGroup = H;
unicode = 004E;
},
{
glyphname = uni01CA;
lastChange = "2019-09-03 16:29:54 +0000";
layers = (
{
hints = (
{
horizontal = 1;
place = "{0, 88.75}";
type = Stem;
},
{
horizontal = 1;
place = "{648.25, 88.75}";
type = Stem;
},
{
place = "{93.33, 56.65}";
type = Stem;
},
{
place = "{547.21, 56.65}";
type = Stem;
},
{
place = "{781.87, 56.5}";
type = Stem;
},
{
place = "{1138.29, 56.42}";
type = Stem;
},
{
horizontal = 1;
place = "{0, 51.31}";
type = Stem;
}
);
layerId = "43E2286E-6EE6-4840-9A6A-FE0C69444F4F";
paths = (
{
closed = 1;
nodes = (
"149.98 0 LINE",
"149.98 648.25 LINE",
"171 648.25 LINE",
"523.04 0 LINE",
"603.86 0 LINE",
"603.86 737 LINE",
"547.21 737 LINE",
"547.21 88.75 LINE",
"534.04 88.75 LINE",
"182 737 LINE",
"93.33 737 LINE",
"93.33 0 LINE"
);
},
{
closed = 1;
nodes = (
"1096.87 0 LINE",
"1194.71 98.62 LINE",
"1194.71 737 LINE",
"1138.25 737 LINE",
"1138.33 117.33 LINE",
"1073 51.37 LINE",
"903.58 51.25 LINE",
"838.41 117.33 LINE",
"838.33 266.58 LINE",
"781.87 266.58 LINE",
"781.87 98.62 LINE",
"879.71 0 LINE"
);
}
);
width = 1288;
}
);
leftKerningGroup = B;
note = uni01CA;
unicode = 01CA;
},
{
glyphname = Nacute;
lastChange = "2019-09-03 16:29:54 +0000";
layers = (
{
hints = (
{
horizontal = 1;
place = "{0, 88.75}";
type = Stem;
},
{
horizontal = 1;
place = "{648.25, 88.75}";
type = Stem;
},
{
horizontal = 1;
place = "{794.25, 143.66}";
type = Stem;
},
{
place = "{93.33, 56.65}";
type = Stem;
},
{
place = "{547.21, 56.65}";
type = Stem;
}
);
layerId = "43E2286E-6EE6-4840-9A6A-FE0C69444F4F";
paths = (
{
closed = 1;
nodes = (
"149.98 0 LINE",
"149.98 648.25 LINE",
"171 648.25 LINE",
"523.04 0 LINE",
"603.86 0 LINE",
"603.86 737 LINE",
"547.21 737 LINE",
"547.21 88.75 LINE",
"534.04 88.75 LINE",
"182 737 LINE",
"93.33 737 LINE",
"93.33 0 LINE"
);
},
{
closed = 1;
nodes = (
"387.91 794.25 LINE",
"497.21 937.91 LINE",
"430.5 937.91 LINE",
"340.29 794.25 LINE"
);
}
);
width = 697;
}
);
leftKerningGroup = B;
note = Nacute;
rightKerningGroup = H;
unicode = 0143;
},
{
glyphname = Ncaron;
lastChange = "2019-09-03 16:29:54 +0000";
layers = (
{
hints = (
{
horizontal = 1;
place = "{0, 88.75}";
type = Stem;
},
{
horizontal = 1;
place = "{648.25, 88.75}";
type = Stem;
},
{
horizontal = 1;
place = "{794.25, 38.21}";
type = Stem;
},
{
place = "{93.33, 56.65}";
type = Stem;
},
{
place = "{547.21, 56.65}";
type = Stem;
}
);
layerId = "43E2286E-6EE6-4840-9A6A-FE0C69444F4F";
paths = (
{
closed = 1;
nodes = (
"149.98 0 LINE",
"149.98 648.25 LINE",
"171 648.25 LINE",
"523.04 0 LINE",
"603.86 0 LINE",
"603.86 737 LINE",
"547.21 737 LINE",
"547.21 88.75 LINE",
"534.04 88.75 LINE",
"182 737 LINE",
"93.33 737 LINE",
"93.33 0 LINE"
);
},
{
closed = 1;
nodes = (
"398.75 794.25 LINE",
"503.25 933.58 LINE",
"454.87 933.58 LINE",
"367.91 832.46 LINE",
"356.25 832.46 LINE",
"269.29 933.58 LINE",
"220.91 933.58 LINE",
"325.41 794.25 LINE"
);
}
);
width = 697;
}
);
leftKerningGroup = B;
note = Ncaron;
rightKerningGroup = H;
unicode = 0147;
},
{
glyphname = uni0145;
lastChange = "2019-09-03 16:29:54 +0000";
layers = (
{
hints = (
{
horizontal = 1;
place = "{-224.42, 167.17}";
type = Stem;
},
{
horizontal = 1;
place = "{0, 88.75}";
type = Stem;
},
{
horizontal = 1;
place = "{648.25, 88.75}";
type = Stem;
},
{
place = "{93.33, 56.65}";
type = Stem;
},
{
place = "{547.21, 56.65}";
type = Stem;
}
);
layerId = "43E2286E-6EE6-4840-9A6A-FE0C69444F4F";
paths = (
{
closed = 1;
nodes = (
"149.98 0 LINE",
"149.98 648.25 LINE",
"171 648.25 LINE",
"523.04 0 LINE",
"603.86 0 LINE",
"603.86 737 LINE",
"547.21 737 LINE",
"547.21 88.75 LINE",
"534.04 88.75 LINE",
"182 737 LINE",
"93.33 737 LINE",
"93.33 0 LINE"
);
},
{
closed = 1;
nodes = (
"317.08 -224.42 LINE",
"377.62 -57.25 LINE",
"320.79 -57.25 LINE",
"282.25 -224.42 LINE"
);
}
);
width = 697;
}
);
leftKerningGroup = B;
note = uni0145;
rightKerningGroup = H;
unicode = 0145;
},
{
glyphname = Eng;
lastChange = "2019-09-03 16:29:54 +0000";
layers = (
{
hints = (
{
horizontal = 1;
place = "{-187, 47.75}";
type = Stem;
},
{
horizontal = 1;
place = "{0, 88.62}";
type = Stem;
},
{
horizontal = 1;
place = "{648.25, 88.75}";
type = Stem;
},
{
place = "{93.43, 56.65}";
type = Stem;
},
{
place = "{547.37, 56.63}";
type = Stem;
}
);
layerId = "43E2286E-6EE6-4840-9A6A-FE0C69444F4F";
paths = (
{
closed = 1;
nodes = (
"523.25 -187 LINE",
"604 -103.38 LINE",
"604 737 LINE",
"547.37 737 LINE",
"547.37 88.62 LINE",
"534.12 88.62 LINE",
"182.12 737 LINE",
"93.43 737 LINE",
"93.43 0 LINE",
"150.08 0 LINE",
"150.08 648.25 LINE",
"171.12 648.25 LINE",
"523.12 0 LINE",
"547.37 0 LINE",
"547.37 -83.13 LINE",
"495.37 -139.25 LINE",
"402.12 -139.25 LINE",
"402.12 -187 LINE"
);
}
);
width = 697;
}
);
leftKerningGroup = B;
note = Eng;
rightKerningGroup = H;
unicode = 014A;
},
{
glyphname = uni01CB;
lastChange = "2019-09-03 16:29:54 +0000";
layers = (
{
hints = (
{
horizontal = 1;
place = "{-187, 47.66}";
type = Stem;
},
{
horizontal = 1;
place = "{0, 88.75}";
type = Stem;
},
{
horizontal = 1;
place = "{579.75, 110.71}";
type = Stem;
},
{
place = "{93.33, 56.65}";
type = Stem;
},
{
place = "{547.21, 56.65}";
type = Stem;
},
{
place = "{809.12, 55}";
type = Stem;
},
{
horizontal = 1;
place = "{648.25, 88.75}";
type = Stem;
}
);
layerId = "43E2286E-6EE6-4840-9A6A-FE0C69444F4F";
paths = (
{
closed = 1;
nodes = (
"149.98 0 LINE",
"149.98 648.25 LINE",
"171 648.25 LINE",
"523.04 0 LINE",
"603.86 0 LINE",
"603.86 737 LINE",
"547.21 737 LINE",
"547.21 88.75 LINE",
"534.04 88.75 LINE",
"182 737 LINE",
"93.33 737 LINE",
"93.33 0 LINE"
);
},
{
closed = 1;
nodes = (
"780.46 -187 LINE",
"864.12 -103.42 LINE",
"864.12 522.5 LINE",
"809.12 522.5 LINE",
"809.12 -84.71 LINE",
"755.87 -139.34 LINE",
"656.96 -139.34 LINE",
"656.96 -187 LINE"
);
},
{
closed = 1;
nodes = (
"864.12 579.75 LINE",
"864.12 690.46 LINE",
"809.12 690.46 LINE",
"809.12 579.75 LINE"
);
}
);
width = 952;
}
);
leftKerningGroup = B;
note = uni01CB;
rightKerningGroup = uni01C8;
unicode = 01CB;
},
{
glyphname = Ntilde;
lastChange = "2019-09-03 16:29:54 +0000";
layers = (
{
hints = (
{
horizontal = 1;
place = "{0, 88.75}";
type = Stem;
},
{
horizontal = 1;
place = "{648.25, 88.75}";
type = Stem;
},
{
horizontal = 1;
place = "{794.25, 39.21}";
type = Stem;
},
{
horizontal = 1;
place = "{867.58, 39.21}";
type = Stem;
},
{
place = "{93.33, 56.65}";
type = Stem;
},
{
place = "{203.91, 34.29}";
type = Stem;
},
{
place = "{547.21, 56.65}";
type = Stem;
},
{
place = "{488.62, 34.29}";
type = Stem;
}
);
layerId = "43E2286E-6EE6-4840-9A6A-FE0C69444F4F";
paths = (
{
closed = 1;
nodes = (
"149.98 0 LINE",
"149.98 648.25 LINE",
"171 648.25 LINE",
"523.04 0 LINE",
"603.86 0 LINE",
"603.86 737 LINE",
"547.21 737 LINE",
"547.21 88.75 LINE",
"534.04 88.75 LINE",
"182 737 LINE",
"93.33 737 LINE",
"93.33 0 LINE"
);
},
{
closed = 1;
nodes = (
"468.08 794.25 LINE",
"522.41 849.58 LINE",
"523.41 905.66 LINE",
"489.71 905.66 LINE",
"487.54 869.71 LINE",
"449.41 833.46 LINE",
"414.96 833.46 LINE",
"341.21 906.79 LINE",
"258.75 906.79 LINE",
"204.41 851.41 LINE",
"203.41 795.33 LINE",
"237.12 795.33 LINE",
"239.29 831.21 LINE",
"277.41 867.58 LINE",
"320.71 867.58 LINE",
"394.37 794.25 LINE"
);
}
);
width = 697;
}
);
leftKerningGroup = B;
note = Ntilde;
rightKerningGroup = H;
unicode = 00D1;
},
{
glyphname = O;
lastChange = "2019-09-03 16:29:54 +0000";
layers = (
{
hints = (
{
horizontal = 1;
place = "{0, 51.35}";
type = Stem;
},
{
horizontal = 1;
place = "{685.65, 51.35}";
type = Stem;
},
{
place = "{76.66, 56.46}";
type = Stem;
},
{
place = "{551.85, 56.48}";
type = Stem;
}
);
layerId = "43E2286E-6EE6-4840-9A6A-FE0C69444F4F";
paths = (
{
closed = 1;
nodes = (
"510.46 0 LINE",
"608.33 98.62 LINE",
"608.33 638.37 LINE",
"510.46 737 LINE",
"174.54 737 LINE",
"76.66 638.37 LINE",
"76.66 98.62 LINE",
"174.54 0 LINE"
);
},
{
closed = 1;
nodes = (
"133.21 117.33 LINE",
"133.04 619.66 LINE",
"198.37 685.58 LINE",
"486.58 685.71 LINE",
"551.79 619.66 LINE",
"551.91 117.37 LINE",
"486.62 51.41 LINE",
"198.41 51.29 LINE"
);
}
);
width = 685;
}
);
leftKerningGroup = C;
note = O;
rightKerningGroup = O;
unicode = 004F;
},
{
glyphname = Oacute;
lastChange = "2019-09-03 16:29:54 +0000";
layers = (
{
hints = (
{
horizontal = 1;
place = "{0, 51.35}";
type = Stem;
},
{
horizontal = 1;
place = "{685.65, 51.35}";
type = Stem;
},
{
horizontal = 1;
place = "{794.25, 143.66}";
type = Stem;
},
{
place = "{76.66, 56.46}";
type = Stem;
},
{
place = "{551.85, 56.48}";
type = Stem;
}
);
layerId = "43E2286E-6EE6-4840-9A6A-FE0C69444F4F";
paths = (
{
closed = 1;
nodes = (
"510.46 0 LINE",
"608.33 98.62 LINE",
"608.33 638.37 LINE",
"510.46 737 LINE",
"174.54 737 LINE",
"76.66 638.37 LINE",
"76.66 98.62 LINE",
"174.54 0 LINE"
);
},
{
closed = 1;
nodes = (
"133.21 117.33 LINE",
"133.04 619.66 LINE",
"198.37 685.58 LINE",
"486.58 685.71 LINE",
"551.79 619.66 LINE",
"551.91 117.37 LINE",
"486.62 51.41 LINE",
"198.41 51.29 LINE"
);
},
{
closed = 1;
nodes = (
"367.58 794.25 LINE",
"476.87 937.91 LINE",
"410.16 937.91 LINE",
"319.96 794.25 LINE"
);
}
);
width = 685;
}
);
leftKerningGroup = C;
note = Oacute;
rightKerningGroup = O;
unicode = 00D3;
},
{
glyphname = Obreve;
lastChange = "2019-09-03 16:29:54 +0000";
layers = (
{
hints = (
{
horizontal = 1;
place = "{0, 51.35}";
type = Stem;
},
{
horizontal = 1;
place = "{685.65, 51.35}";
type = Stem;
},
{
horizontal = 1;
place = "{794.25, 39.91}";
type = Stem;
},
{
place = "{76.66, 56.46}";
type = Stem;
},
{
place = "{217.41, 40.8}";
type = Stem;
},
{
place = "{426.79, 40.79}";
type = Stem;
},
{
place = "{551.85, 56.48}";
type = Stem;
}
);
layerId = "43E2286E-6EE6-4840-9A6A-FE0C69444F4F";
paths = (
{
closed = 1;
nodes = (
"510.46 0 LINE",
"608.33 98.62 LINE",
"608.33 638.37 LINE",
"510.46 737 LINE",
"174.54 737 LINE",
"76.66 638.37 LINE",
"76.66 98.62 LINE",
"174.54 0 LINE"
);
},
{
closed = 1;
nodes = (
"133.21 117.33 LINE",
"133.04 619.66 LINE",
"198.37 685.58 LINE",
"486.58 685.71 LINE",
"551.79 619.66 LINE",
"551.91 117.37 LINE",
"486.62 51.41 LINE",
"198.41 51.29 LINE"
);
},
{
closed = 1;
nodes = (
"411.46 794.25 LINE",
"467.58 850.33 LINE",
"467.58 919.58 LINE",
"426.79 919.58 LINE",
"426.79 864.58 LINE",
"396.41 834.16 LINE",
"288.58 834.16 LINE",
"258.21 864.58 LINE",
"258.21 919.58 LINE",
"217.41 919.58 LINE",
"217.41 850.33 LINE",
"273.54 794.25 LINE"
);
}
);
width = 685;
}
);
leftKerningGroup = C;
note = Obreve;
rightKerningGroup = O;
unicode = 014E;
},
{
glyphname = Ocircumflex;
lastChange = "2019-09-03 16:29:54 +0000";
layers = (
{
hints = (
{
horizontal = 1;
place = "{0, 51.35}";
type = Stem;
},
{
horizontal = 1;
place = "{685.65, 51.35}";
type = Stem;
},
{
horizontal = 1;
place = "{895.37, 38.21}";
type = Stem;
},
{
place = "{76.66, 56.46}";
type = Stem;
},
{
place = "{551.85, 56.48}";
type = Stem;
}
);
layerId = "43E2286E-6EE6-4840-9A6A-FE0C69444F4F";
paths = (
{
closed = 1;
nodes = (
"510.46 0 LINE",
"608.33 98.62 LINE",
"608.33 638.37 LINE",
"510.46 737 LINE",
"174.54 737 LINE",
"76.66 638.37 LINE",
"76.66 98.62 LINE",
"174.54 0 LINE"
);
},
{
closed = 1;
nodes = (
"133.21 117.33 LINE",
"133.04 619.66 LINE",
"198.37 685.58 LINE",
"486.58 685.71 LINE",
"551.79 619.66 LINE",
"551.91 117.37 LINE",
"486.62 51.41 LINE",
"198.41 51.29 LINE"
);
},
{
closed = 1;
nodes = (
"249.71 794.25 LINE",
"336.66 895.37 LINE",
"348.33 895.37 LINE",
"435.29 794.25 LINE",
"483.66 794.25 LINE",
"379.16 933.58 LINE",
"305.83 933.58 LINE",
"201.33 794.25 LINE"
);
}
);
width = 685;
}
);
leftKerningGroup = C;
note = Ocircumflex;
rightKerningGroup = O;
unicode = 00D4;
},
{
glyphname = uni1ED0;
lastChange = "2019-09-03 16:29:54 +0000";
layers = (
{
hints = (
{
horizontal = 1;
place = "{0, 51.35}";
type = Stem;
},
{
horizontal = 1;
place = "{685.65, 51.35}";
type = Stem;
},
{
horizontal = 1;
place = "{865.41, 143.67}";
type = Stem;
},
{
place = "{76.66, 56.46}";
type = Stem;
},
{
place = "{551.85, 56.48}";
type = Stem;
},
{
horizontal = 1;
place = "{895.37, 38.21}";
type = Stem;
}
);
layerId = "43E2286E-6EE6-4840-9A6A-FE0C69444F4F";
paths = (
{
closed = 1;
nodes = (
"510.46 0 LINE",
"608.33 98.62 LINE",
"608.33 638.37 LINE",
"510.46 737 LINE",
"174.54 737 LINE",
"76.66 638.37 LINE",
"76.66 98.62 LINE",
"174.54 0 LINE"
);
},
{
closed = 1;
nodes = (
"133.21 117.33 LINE",
"133.04 619.66 LINE",
"198.37 685.58 LINE",
"486.58 685.71 LINE",
"551.79 619.66 LINE",
"551.91 117.37 LINE",
"486.62 51.41 LINE",
"198.41 51.29 LINE"
);
},
{
closed = 1;
nodes = (
"249.71 794.25 LINE",
"336.66 895.37 LINE",
"348.33 895.37 LINE",
"435.29 794.25 LINE",
"483.66 794.25 LINE",
"379.16 933.58 LINE",
"305.83 933.58 LINE",
"201.33 794.25 LINE"
);
},
{
closed = 1;
nodes = (
"525 865.41 LINE",
"634.29 1009.08 LINE",
"567.58 1009.08 LINE",
"477.37 865.41 LINE"
);
}
);
width = 685;
}
);
leftKerningGroup = C;
note = uni1ED0;
rightKerningGroup = O;
unicode = 1ED0;
},
{
glyphname = uni1ED8;
lastChange = "2019-09-03 16:29:54 +0000";
layers = (
{
hints = (
{
horizontal = 1;
place = "{-167.96, 110.71}";
type = Stem;
},
{
horizontal = 1;
place = "{0, 51.35}";
type = Stem;
},
{
horizontal = 1;
place = "{685.65, 51.35}";
type = Stem;
},
{
horizontal = 1;
place = "{895.37, 38.21}";
type = Stem;
},
{
place = "{76.66, 56.46}";
type = Stem;
},
{
place = "{315, 55}";
type = Stem;
},
{
place = "{551.85, 56.48}";
type = Stem;
}
);
layerId = "43E2286E-6EE6-4840-9A6A-FE0C69444F4F";
paths = (
{
closed = 1;
nodes = (
"510.46 0 LINE",
"608.33 98.62 LINE",
"608.33 638.37 LINE",
"510.46 737 LINE",
"174.54 737 LINE",
"76.66 638.37 LINE",
"76.66 98.62 LINE",
"174.54 0 LINE"
);
},
{
closed = 1;
nodes = (
"370 -167.96 LINE",
"370 -57.25 LINE",
"315 -57.25 LINE",
"315 -167.96 LINE"
);
},
{
closed = 1;
nodes = (
"133.21 117.33 LINE",
"133.04 619.66 LINE",
"198.37 685.58 LINE",
"486.58 685.71 LINE",
"551.79 619.66 LINE",
"551.91 117.37 LINE",
"486.62 51.41 LINE",
"198.41 51.29 LINE"
);
},
{
closed = 1;
nodes = (
"249.71 794.25 LINE",
"336.66 895.37 LINE",
"348.33 895.37 LINE",
"435.29 794.25 LINE",
"483.66 794.25 LINE",
"379.16 933.58 LINE",
"305.83 933.58 LINE",
"201.33 794.25 LINE"
);
}
);
width = 685;
}
);
leftKerningGroup = C;
note = uni1ED8;
rightKerningGroup = O;
unicode = 1ED8;
},
{
glyphname = uni1ED2;
lastChange = "2019-09-03 16:29:54 +0000";
layers = (
{
hints = (
{
horizontal = 1;
place = "{0, 51.35}";
type = Stem;
},
{
horizontal = 1;
place = "{685.65, 51.35}";
type = Stem;
},
{
horizontal = 1;
place = "{865.41, 143.67}";
type = Stem;
},
{
place = "{76.66, 56.46}";
type = Stem;
},
{
place = "{551.85, 56.48}";
type = Stem;
},
{
horizontal = 1;
place = "{895.37, 38.21}";
type = Stem;
}
);
layerId = "43E2286E-6EE6-4840-9A6A-FE0C69444F4F";
paths = (
{
closed = 1;
nodes = (
"510.46 0 LINE",
"608.33 98.62 LINE",
"608.33 638.37 LINE",
"510.46 737 LINE",
"174.54 737 LINE",
"76.66 638.37 LINE",
"76.66 98.62 LINE",
"174.54 0 LINE"
);
},
{
closed = 1;
nodes = (
"133.21 117.33 LINE",
"133.04 619.66 LINE",
"198.37 685.58 LINE",
"486.58 685.71 LINE",
"551.79 619.66 LINE",
"551.91 117.37 LINE",
"486.62 51.41 LINE",
"198.41 51.29 LINE"
);
},
{
closed = 1;
nodes = (
"215.21 865.41 LINE",
"125 1009.08 LINE",
"58.29 1009.08 LINE",
"167.58 865.41 LINE"
);
},
{
closed = 1;
nodes = (
"249.71 794.25 LINE",
"336.66 895.37 LINE",
"348.33 895.37 LINE",
"435.29 794.25 LINE",
"483.66 794.25 LINE",
"379.16 933.58 LINE",
"305.83 933.58 LINE",
"201.33 794.25 LINE"
);
}
);
width = 685;
}
);
leftKerningGroup = C;
note = uni1ED2;
rightKerningGroup = O;
unicode = 1ED2;
},
{
glyphname = uni1ED4;
lastChange = "2019-09-03 16:29:54 +0000";
layers = (
{
hints = (
{
horizontal = 1;
place = "{0, 51.35}";
type = Stem;
},
{
horizontal = 1;
place = "{685.65, 51.35}";
type = Stem;
},
{
horizontal = 1;
place = "{865.41, 47.55}";
type = Stem;
},
{
horizontal = 1;
place = "{1024.83, 38.08}";
type = Stem;
},
{
place = "{76.66, 56.46}";
type = Stem;
},
{
place = "{462.25, 41.04}";
type = Stem;
},
{
place = "{551.85, 56.48}";
type = Stem;
},
{
place = "{528.83, 43.46}";
type = Stem;
},
{
horizontal = 1;
place = "{895.37, 38.21}";
type = Stem;
}
);
layerId = "43E2286E-6EE6-4840-9A6A-FE0C69444F4F";
paths = (
{
closed = 1;
nodes = (
"510.46 0 LINE",
"608.33 98.62 LINE",
"608.33 638.37 LINE",
"510.46 737 LINE",
"174.54 737 LINE",
"76.66 638.37 LINE",
"76.66 98.62 LINE",
"174.54 0 LINE"
);
},
{
closed = 1;
nodes = (
"133.21 117.33 LINE",
"133.04 619.66 LINE",
"198.37 685.58 LINE",
"486.58 685.71 LINE",
"551.79 619.66 LINE",
"551.91 117.37 LINE",
"486.62 51.41 LINE",
"198.41 51.29 LINE"
);
},
{
closed = 1;
nodes = (
"249.71 794.25 LINE",
"336.66 895.37 LINE",
"348.33 895.37 LINE",
"435.29 794.25 LINE",
"483.66 794.25 LINE",
"379.16 933.58 LINE",
"305.83 933.58 LINE",
"201.33 794.25 LINE"
);
},
{
closed = 1;
nodes = (
"503.29 865.41 LINE",
"503.29 896.46 LINE",
"572.29 958.83 LINE",
"572.29 1023.87 LINE",
"534.29 1062.91 LINE",
"446.37 1062.91 LINE",
"404.29 1019 LINE",
"433.12 990.71 LINE",
"466 1024.83 LINE",
"514.37 1024.83 LINE",
"528.83 1009.71 LINE",
"528.83 974.54 LINE",
"462.25 912.96 LINE",
"462.25 865.41 LINE"
);
}
);
width = 685;
}
);
leftKerningGroup = C;
note = uni1ED4;
rightKerningGroup = O;
unicode = 1ED4;
},
{
glyphname = uni1ED6;
lastChange = "2019-09-03 16:29:54 +0000";
layers = (
{
hints = (
{
horizontal = 1;
place = "{0, 51.35}";
type = Stem;
},
{
horizontal = 1;
place = "{685.65, 51.35}";
type = Stem;
},
{
horizontal = 1;
place = "{957.54, 39.21}";
type = Stem;
},
{
horizontal = 1;
place = "{1030.87, 39.21}";
type = Stem;
},
{
place = "{76.66, 56.46}";
type = Stem;
},
{
place = "{189, 34.29}";
type = Stem;
},
{
place = "{473.7, 34.3}";
type = Stem;
},
{
place = "{551.85, 56.48}";
type = Stem;
},
{
horizontal = 1;
place = "{895.37, 38.21}";
type = Stem;
}
);
layerId = "43E2286E-6EE6-4840-9A6A-FE0C69444F4F";
paths = (
{
closed = 1;
nodes = (
"510.46 0 LINE",
"608.33 98.62 LINE",
"608.33 638.37 LINE",
"510.46 737 LINE",
"174.54 737 LINE",
"76.66 638.37 LINE",
"76.66 98.62 LINE",
"174.54 0 LINE"
);
},
{
closed = 1;
nodes = (
"133.21 117.33 LINE",
"133.04 619.66 LINE",
"198.37 685.58 LINE",
"486.58 685.71 LINE",
"551.79 619.66 LINE",
"551.91 117.37 LINE",
"486.62 51.41 LINE",
"198.41 51.29 LINE"
);
},
{
closed = 1;
nodes = (
"249.71 794.25 LINE",
"336.66 895.37 LINE",
"348.33 895.37 LINE",
"435.29 794.25 LINE",
"483.66 794.25 LINE",
"379.16 933.58 LINE",
"305.83 933.58 LINE",
"201.33 794.25 LINE"
);
},
{
closed = 1;
nodes = (
"453.16 957.54 LINE",
"507.5 1012.87 LINE",
"508.5 1068.96 LINE",
"474.79 1068.96 LINE",
"472.62 1033 LINE",
"434.5 996.75 LINE",
"400.04 996.75 LINE",
"326.29 1070.08 LINE",
"243.83 1070.08 LINE",
"189.5 1014.71 LINE",
"188.5 958.62 LINE",
"222.21 958.62 LINE",
"224.37 994.5 LINE",
"262.5 1030.87 LINE",
"305.79 1030.87 LINE",
"379.46 957.54 LINE"
);
}
);
width = 685;
}
);
leftKerningGroup = C;
note = uni1ED6;
rightKerningGroup = O;
unicode = 1ED6;
},
{
glyphname = uni020C;
lastChange = "2019-09-03 16:29:54 +0000";
layers = (
{
hints = (
{
horizontal = 1;
place = "{0, 51.35}";
type = Stem;
},
{
horizontal = 1;
place = "{685.65, 51.35}";
type = Stem;
},
{
horizontal = 1;
place = "{794.25, 143.66}";
type = Stem;
},
{
place = "{76.66, 56.46}";
type = Stem;
},
{
place = "{551.85, 56.48}";
type = Stem;
}
);
layerId = "43E2286E-6EE6-4840-9A6A-FE0C69444F4F";
paths = (
{
closed = 1;
nodes = (
"510.46 0 LINE",
"608.33 98.62 LINE",
"608.33 638.37 LINE",
"510.46 737 LINE",
"174.54 737 LINE",
"76.66 638.37 LINE",
"76.66 98.62 LINE",
"174.54 0 LINE"
);
},
{
closed = 1;
nodes = (
"133.21 117.33 LINE",
"133.04 619.66 LINE",
"198.37 685.58 LINE",
"486.58 685.71 LINE",
"551.79 619.66 LINE",
"551.91 117.37 LINE",
"486.62 51.41 LINE",
"198.41 51.29 LINE"
);
},
{
closed = 1;
nodes = (
"298.5 794.25 LINE",
"208.25 937.91 LINE",
"145.21 937.91 LINE",
"254.5 794.25 LINE"
);
},
{
closed = 1;
nodes = (
"436.37 794.25 LINE",
"346.12 937.91 LINE",
"283.08 937.91 LINE",
"392.37 794.25 LINE"
);
}
);
width = 685;
}
);
leftKerningGroup = C;
note = uni020C;
rightKerningGroup = O;
unicode = 020C;
},
{
glyphname = Odieresis;
lastChange = "2019-09-03 16:29:54 +0000";
layers = (
{
hints = (
{
horizontal = 1;
place = "{0, 51.35}";
type = Stem;
},
{
horizontal = 1;
place = "{685.65, 51.35}";
type = Stem;
},
{
horizontal = 1;
place = "{794.25, 110.83}";
type = Stem;
},
{
place = "{76.66, 56.46}";
type = Stem;
},
{
place = "{182.08, 55}";
type = Stem;
},
{
place = "{447.91, 55}";
type = Stem;
},
{
place = "{551.85, 56.48}";
type = Stem;
}
);
layerId = "43E2286E-6EE6-4840-9A6A-FE0C69444F4F";
paths = (
{
closed = 1;
nodes = (
"510.46 0 LINE",
"608.33 98.62 LINE",
"608.33 638.37 LINE",
"510.46 737 LINE",
"174.54 737 LINE",
"76.66 638.37 LINE",
"76.66 98.62 LINE",
"174.54 0 LINE"
);
},
{
closed = 1;
nodes = (
"133.21 117.33 LINE",
"133.04 619.66 LINE",
"198.37 685.58 LINE",
"486.58 685.71 LINE",
"551.79 619.66 LINE",
"551.91 117.37 LINE",
"486.62 51.41 LINE",
"198.41 51.29 LINE"
);
},
{
closed = 1;
nodes = (
"237.08 794.25 LINE",
"237.08 905.08 LINE",
"182.08 905.08 LINE",
"182.08 794.25 LINE"
);
},
{
closed = 1;
nodes = (
"502.91 794.25 LINE",
"502.91 905.08 LINE",
"447.91 905.08 LINE",
"447.91 794.25 LINE"
);
}
);
width = 685;
}
);
leftKerningGroup = C;
note = Odieresis;
rightKerningGroup = O;
unicode = 00D6;
},
{
glyphname = uni022A;
lastChange = "2019-09-03 16:29:54 +0000";
layers = (
{
hints = (
{
horizontal = 1;
place = "{0, 51.35}";
type = Stem;
},
{
horizontal = 1;
place = "{685.65, 51.35}";
type = Stem;
},
{
horizontal = 1;
place = "{794.25, 110.83}";
type = Stem;
},
{
horizontal = 1;
place = "{943.41, 43.96}";
type = Stem;
},
{
place = "{76.66, 56.46}";
type = Stem;
},
{
place = "{182.08, 55}";
type = Stem;
},
{
place = "{447.91, 55}";
type = Stem;
},
{
place = "{551.85, 56.48}";
type = Stem;
}
);
layerId = "43E2286E-6EE6-4840-9A6A-FE0C69444F4F";
paths = (
{
closed = 1;
nodes = (
"510.46 0 LINE",
"608.33 98.62 LINE",
"608.33 638.37 LINE",
"510.46 737 LINE",
"174.54 737 LINE",
"76.66 638.37 LINE",
"76.66 98.62 LINE",
"174.54 0 LINE"
);
},
{
closed = 1;
nodes = (
"133.21 117.33 LINE",
"133.04 619.66 LINE",
"198.37 685.58 LINE",
"486.58 685.71 LINE",
"551.79 619.66 LINE",
"551.91 117.37 LINE",
"486.62 51.41 LINE",
"198.41 51.29 LINE"
);
},
{
closed = 1;
nodes = (
"237.08 794.25 LINE",
"237.08 905.08 LINE",
"182.08 905.08 LINE",
"182.08 794.25 LINE"
);
},
{
closed = 1;
nodes = (
"502.91 943.41 LINE",
"502.91 987.37 LINE",
"182.08 987.37 LINE",
"182.08 943.41 LINE"
);
},
{
closed = 1;
nodes = (
"502.91 794.25 LINE",
"502.91 905.08 LINE",
"447.91 905.08 LINE",
"447.91 794.25 LINE"
);
}
);
width = 685;
}
);
leftKerningGroup = C;
note = uni022A;
rightKerningGroup = O;
unicode = 022A;
},
{
glyphname = uni0230;
lastChange = "2019-09-03 16:29:54 +0000";
layers = (
{
hints = (
{
horizontal = 1;
place = "{0, 51.35}";
type = Stem;
},
{
horizontal = 1;
place = "{685.65, 51.35}";
type = Stem;
},
{
horizontal = 1;
place = "{794.25, 110.71}";
type = Stem;
},
{
horizontal = 1;
place = "{943.33, 43.96}";
type = Stem;
},
{
place = "{76.66, 56.46}";
type = Stem;
},
{
place = "{315, 55}";
type = Stem;
},
{
place = "{551.85, 56.48}";
type = Stem;
}
);
layerId = "43E2286E-6EE6-4840-9A6A-FE0C69444F4F";
paths = (
{
closed = 1;
nodes = (
"510.46 0 LINE",
"608.33 98.62 LINE",
"608.33 638.37 LINE",
"510.46 737 LINE",
"174.54 737 LINE",
"76.66 638.37 LINE",
"76.66 98.62 LINE",
"174.54 0 LINE"
);
},
{
closed = 1;
nodes = (
"133.21 117.33 LINE",
"133.04 619.66 LINE",
"198.37 685.58 LINE",
"486.58 685.71 LINE",
"551.79 619.66 LINE",
"551.91 117.37 LINE",
"486.62 51.41 LINE",
"198.41 51.29 LINE"
);
},
{
closed = 1;
nodes = (
"370 794.25 LINE",
"370 904.96 LINE",
"315 904.96 LINE",
"315 794.25 LINE"
);
},
{
closed = 1;
nodes = (
"502.91 943.33 LINE",
"502.91 987.29 LINE",
"182.08 987.29 LINE",
"182.08 943.33 LINE"
);
}
);
width = 685;
}
);
leftKerningGroup = C;
note = uni0230;
rightKerningGroup = O;
unicode = 0230;
},
{
glyphname = uni1ECC;
lastChange = "2019-09-03 16:29:54 +0000";
layers = (
{
hints = (
{
horizontal = 1;
place = "{-167.96, 110.71}";
type = Stem;
},
{
horizontal = 1;
place = "{0, 51.35}";
type = Stem;
},
{
horizontal = 1;
place = "{685.65, 51.35}";
type = Stem;
},
{
place = "{76.66, 56.46}";
type = Stem;
},
{
place = "{315, 55}";
type = Stem;
},
{
place = "{551.85, 56.48}";
type = Stem;
}
);
layerId = "43E2286E-6EE6-4840-9A6A-FE0C69444F4F";
paths = (
{
closed = 1;
nodes = (
"510.46 0 LINE",
"608.33 98.62 LINE",
"608.33 638.37 LINE",
"510.46 737 LINE",
"174.54 737 LINE",
"76.66 638.37 LINE",
"76.66 98.62 LINE",
"174.54 0 LINE"
);
},
{
closed = 1;
nodes = (
"370 -167.96 LINE",
"370 -57.25 LINE",
"315 -57.25 LINE",
"315 -167.96 LINE"
);
},
{
closed = 1;
nodes = (
"133.21 117.33 LINE",
"133.04 619.66 LINE",
"198.37 685.58 LINE",
"486.58 685.71 LINE",
"551.79 619.66 LINE",
"551.91 117.37 LINE",
"486.62 51.41 LINE",
"198.41 51.29 LINE"
);
}
);
width = 685;
}
);
leftKerningGroup = C;
note = uni1ECC;
rightKerningGroup = O;
unicode = 1ECC;
},
{
glyphname = Ograve;
lastChange = "2019-09-03 16:29:54 +0000";
layers = (
{
hints = (
{
horizontal = 1;
place = "{0, 51.35}";
type = Stem;
},
{
horizontal = 1;
place = "{685.65, 51.35}";
type = Stem;
},
{
horizontal = 1;
place = "{794.25, 143.66}";
type = Stem;
},
{
place = "{76.66, 56.46}";
type = Stem;
},
{
place = "{551.85, 56.48}";
type = Stem;
}
);
layerId = "43E2286E-6EE6-4840-9A6A-FE0C69444F4F";
paths = (
{
closed = 1;
nodes = (
"510.46 0 LINE",
"608.33 98.62 LINE",
"608.33 638.37 LINE",
"510.46 737 LINE",
"174.54 737 LINE",
"76.66 638.37 LINE",
"76.66 98.62 LINE",
"174.54 0 LINE"
);
},
{
closed = 1;
nodes = (
"133.21 117.33 LINE",
"133.04 619.66 LINE",
"198.37 685.58 LINE",
"486.58 685.71 LINE",
"551.79 619.66 LINE",
"551.91 117.37 LINE",
"486.62 51.41 LINE",
"198.41 51.29 LINE"
);
},
{
closed = 1;
nodes = (
"363.16 794.25 LINE",
"272.96 937.91 LINE",
"206.25 937.91 LINE",
"315.54 794.25 LINE"
);
}
);
width = 685;
}
);
leftKerningGroup = C;
note = Ograve;
rightKerningGroup = O;
unicode = 00D2;
},
{
glyphname = uni1ECE;
lastChange = "2019-09-03 16:29:54 +0000";
layers = (
{
hints = (
{
horizontal = 1;
place = "{0, 51.35}";
type = Stem;
},
{
horizontal = 1;
place = "{685.65, 51.35}";
type = Stem;
},
{
horizontal = 1;
place = "{794.25, 47.54}";
type = Stem;
},
{
horizontal = 1;
place = "{953.66, 38.09}";
type = Stem;
},
{
place = "{76.66, 56.46}";
type = Stem;
},
{
place = "{323.66, 41.05}";
type = Stem;
},
{
place = "{390.25, 43.46}";
type = Stem;
},
{
place = "{551.85, 56.48}";
type = Stem;
}
);
layerId = "43E2286E-6EE6-4840-9A6A-FE0C69444F4F";
paths = (
{
closed = 1;
nodes = (
"510.46 0 LINE",
"608.33 98.62 LINE",
"608.33 638.37 LINE",
"510.46 737 LINE",
"174.54 737 LINE",
"76.66 638.37 LINE",
"76.66 98.62 LINE",
"174.54 0 LINE"
);
},
{
closed = 1;
nodes = (
"133.21 117.33 LINE",
"133.04 619.66 LINE",
"198.37 685.58 LINE",
"486.58 685.71 LINE",
"551.79 619.66 LINE",
"551.91 117.37 LINE",
"486.62 51.41 LINE",
"198.41 51.29 LINE"
);
},
{
closed = 1;
nodes = (
"364.71 794.25 LINE",
"364.71 825.29 LINE",
"433.71 887.66 LINE",
"433.71 952.71 LINE",
"395.71 991.75 LINE",
"307.79 991.75 LINE",
"265.71 947.83 LINE",
"294.54 919.54 LINE",
"327.41 953.66 LINE",
"375.79 953.66 LINE",
"390.25 938.54 LINE",
"390.25 903.37 LINE",
"323.66 841.79 LINE",
"323.66 794.25 LINE"
);
}
);
width = 685;
}
);
leftKerningGroup = C;
note = uni1ECE;
rightKerningGroup = O;
unicode = 1ECE;
},
{
glyphname = Ohorn;
lastChange = "2019-09-03 16:29:54 +0000";
layers = (
{
hints = (
{
horizontal = 1;
place = "{0, 51.35}";
type = Stem;
},
{
horizontal = 1;
place = "{685.65, 51.35}";
type = Stem;
},
{
place = "{76.66, 56.46}";
type = Stem;
},
{
place = "{551.85, 56.48}";
type = Stem;
},
{
horizontal = 1;
place = "{624.46, 39.95}";
type = Stem;
}
);
layerId = "43E2286E-6EE6-4840-9A6A-FE0C69444F4F";
paths = (
{
closed = 1;
nodes = (
"510.46 0 LINE",
"608.33 98.62 LINE",
"608.33 624.46 LINE",
"668.16 624.46 LINE",
"721.41 802.54 LINE",
"662.08 802.54 LINE",
"633.71 664.41 LINE",
"582.49 664.41 LINE",
"510.46 737 LINE",
"174.54 737 LINE",
"76.66 638.37 LINE",
"76.66 98.62 LINE",
"174.54 0 LINE"
);
},
{
closed = 1;
nodes = (
"133.21 117.33 LINE",
"133.04 619.66 LINE",
"198.37 685.58 LINE",
"486.58 685.71 LINE",
"551.79 619.66 LINE",
"551.91 117.37 LINE",
"486.62 51.41 LINE",
"198.41 51.29 LINE"
);
}
);
width = 685;
}
);
leftKerningGroup = C;
note = Ohorn;
rightKerningGroup = O;
unicode = 01A0;
},
{
glyphname = uni1EDA;
lastChange = "2019-09-03 16:29:54 +0000";
layers = (
{
hints = (
{
horizontal = 1;
place = "{0, 51.35}";
type = Stem;
},
{
horizontal = 1;
place = "{685.65, 51.35}";
type = Stem;
},
{
horizontal = 1;
place = "{794.25, 143.66}";
type = Stem;
},
{
place = "{76.66, 56.46}";
type = Stem;
},
{
place = "{551.85, 56.48}";
type = Stem;
},
{
horizontal = 1;
place = "{624.46, 39.95}";
type = Stem;
}
);
layerId = "43E2286E-6EE6-4840-9A6A-FE0C69444F4F";
paths = (
{
closed = 1;
nodes = (
"510.46 0 LINE",
"608.33 98.62 LINE",
"608.33 624.46 LINE",
"668.16 624.46 LINE",
"721.41 802.54 LINE",
"662.08 802.54 LINE",
"633.71 664.41 LINE",
"582.49 664.41 LINE",
"510.46 737 LINE",
"174.54 737 LINE",
"76.66 638.37 LINE",
"76.66 98.62 LINE",
"174.54 0 LINE"
);
},
{
closed = 1;
nodes = (
"133.21 117.33 LINE",
"133.04 619.66 LINE",
"198.37 685.58 LINE",
"486.58 685.71 LINE",
"551.79 619.66 LINE",
"551.91 117.37 LINE",
"486.62 51.41 LINE",
"198.41 51.29 LINE"
);
},
{
closed = 1;
nodes = (
"367.58 794.25 LINE",
"476.87 937.91 LINE",
"410.16 937.91 LINE",
"319.96 794.25 LINE"
);
}
);
width = 685;
}
);
leftKerningGroup = C;
note = uni1EDA;
rightKerningGroup = O;
unicode = 1EDA;
},
{
glyphname = uni1EE2;
lastChange = "2019-09-03 16:29:54 +0000";
layers = (
{
hints = (
{
horizontal = 1;
place = "{-167.96, 110.71}";
type = Stem;
},
{
horizontal = 1;
place = "{0, 51.35}";
type = Stem;
},
{
horizontal = 1;
place = "{685.65, 51.35}";
type = Stem;
},
{
place = "{76.66, 56.46}";
type = Stem;
},
{
place = "{315, 55}";
type = Stem;
},
{
place = "{551.85, 56.48}";
type = Stem;
},
{
horizontal = 1;
place = "{624.46, 39.95}";
type = Stem;
}
);
layerId = "43E2286E-6EE6-4840-9A6A-FE0C69444F4F";
paths = (
{
closed = 1;
nodes = (
"510.46 0 LINE",
"608.33 98.62 LINE",
"608.33 624.46 LINE",
"668.16 624.46 LINE",
"721.41 802.54 LINE",
"662.08 802.54 LINE",
"633.71 664.41 LINE",
"582.49 664.41 LINE",
"510.46 737 LINE",
"174.54 737 LINE",
"76.66 638.37 LINE",
"76.66 98.62 LINE",
"174.54 0 LINE"
);
},
{
closed = 1;
nodes = (
"370 -167.96 LINE",
"370 -57.25 LINE",
"315 -57.25 LINE",
"315 -167.96 LINE"
);
},
{
closed = 1;
nodes = (
"133.21 117.33 LINE",
"133.04 619.66 LINE",
"198.37 685.58 LINE",
"486.58 685.71 LINE",
"551.79 619.66 LINE",
"551.91 117.37 LINE",
"486.62 51.41 LINE",
"198.41 51.29 LINE"
);
}
);
width = 685;
}
);
leftKerningGroup = C;
note = uni1EE2;
rightKerningGroup = O;
unicode = 1EE2;
},
{
glyphname = uni1EDC;
lastChange = "2019-09-03 16:29:54 +0000";
layers = (
{
hints = (
{
horizontal = 1;
place = "{0, 51.35}";
type = Stem;
},
{
horizontal = 1;
place = "{685.65, 51.35}";
type = Stem;
},
{
horizontal = 1;
place = "{794.25, 143.66}";
type = Stem;
},
{
place = "{76.66, 56.46}";
type = Stem;
},
{
place = "{551.85, 56.48}";
type = Stem;
},
{
horizontal = 1;
place = "{624.46, 39.95}";
type = Stem;
}
);
layerId = "43E2286E-6EE6-4840-9A6A-FE0C69444F4F";
paths = (
{
closed = 1;
nodes = (
"510.46 0 LINE",
"608.33 98.62 LINE",
"608.33 624.46 LINE",
"668.16 624.46 LINE",
"721.41 802.54 LINE",
"662.08 802.54 LINE",
"633.71 664.41 LINE",
"582.49 664.41 LINE",
"510.46 737 LINE",
"174.54 737 LINE",
"76.66 638.37 LINE",
"76.66 98.62 LINE",
"174.54 0 LINE"
);
},
{
closed = 1;
nodes = (
"133.21 117.33 LINE",
"133.04 619.66 LINE",
"198.37 685.58 LINE",
"486.58 685.71 LINE",
"551.79 619.66 LINE",
"551.91 117.37 LINE",
"486.62 51.41 LINE",
"198.41 51.29 LINE"
);
},
{
closed = 1;
nodes = (
"363.16 794.25 LINE",
"272.96 937.91 LINE",
"206.25 937.91 LINE",
"315.54 794.25 LINE"
);
}
);
width = 685;
}
);
leftKerningGroup = C;
note = uni1EDC;
rightKerningGroup = O;
unicode = 1EDC;
},
{
glyphname = uni1EDE;
lastChange = "2019-09-03 16:29:54 +0000";
layers = (
{
hints = (
{
horizontal = 1;
place = "{0, 51.35}";
type = Stem;
},
{
horizontal = 1;
place = "{685.65, 51.35}";
type = Stem;
},
{
horizontal = 1;
place = "{794.25, 47.54}";
type = Stem;
},
{
horizontal = 1;
place = "{953.66, 38.09}";
type = Stem;
},
{
place = "{76.66, 56.46}";
type = Stem;
},
{
place = "{390.25, 43.46}";
type = Stem;
},
{
place = "{551.85, 56.48}";
type = Stem;
},
{
place = "{323.66, 41.05}";
type = Stem;
},
{
horizontal = 1;
place = "{624.46, 39.95}";
type = Stem;
}
);
layerId = "43E2286E-6EE6-4840-9A6A-FE0C69444F4F";
paths = (
{
closed = 1;
nodes = (
"510.46 0 LINE",
"608.33 98.62 LINE",
"608.33 624.46 LINE",
"668.16 624.46 LINE",
"721.41 802.54 LINE",
"662.08 802.54 LINE",
"633.71 664.41 LINE",
"582.49 664.41 LINE",
"510.46 737 LINE",
"174.54 737 LINE",
"76.66 638.37 LINE",
"76.66 98.62 LINE",
"174.54 0 LINE"
);
},
{
closed = 1;
nodes = (
"133.21 117.33 LINE",
"133.04 619.66 LINE",
"198.37 685.58 LINE",
"486.58 685.71 LINE",
"551.79 619.66 LINE",
"551.91 117.37 LINE",
"486.62 51.41 LINE",
"198.41 51.29 LINE"
);
},
{
closed = 1;
nodes = (
"364.71 794.25 LINE",
"364.71 825.29 LINE",
"433.71 887.66 LINE",
"433.71 952.71 LINE",
"395.71 991.75 LINE",
"307.79 991.75 LINE",
"265.71 947.83 LINE",
"294.54 919.54 LINE",
"327.41 953.66 LINE",
"375.79 953.66 LINE",
"390.25 938.54 LINE",
"390.25 903.37 LINE",
"323.66 841.79 LINE",
"323.66 794.25 LINE"
);
}
);
width = 685;
}
);
leftKerningGroup = C;
note = uni1EDE;
rightKerningGroup = O;
unicode = 1EDE;
},
{
glyphname = uni1EE0;
lastChange = "2019-09-03 16:29:54 +0000";
layers = (
{
hints = (
{
horizontal = 1;
place = "{0, 51.35}";
type = Stem;
},
{
horizontal = 1;
place = "{685.65, 51.35}";
type = Stem;
},
{
horizontal = 1;
place = "{794.25, 39.21}";
type = Stem;
},
{
horizontal = 1;
place = "{867.58, 39.21}";
type = Stem;
},
{
place = "{76.66, 56.46}";
type = Stem;
},
{
place = "{183.58, 34.29}";
type = Stem;
},
{
place = "{468.29, 34.29}";
type = Stem;
},
{
place = "{551.85, 56.48}";
type = Stem;
},
{
horizontal = 1;
place = "{624.46, 39.95}";
type = Stem;
}
);
layerId = "43E2286E-6EE6-4840-9A6A-FE0C69444F4F";
paths = (
{
closed = 1;
nodes = (
"510.46 0 LINE",
"608.33 98.62 LINE",
"608.33 624.46 LINE",
"668.16 624.46 LINE",
"721.41 802.54 LINE",
"662.08 802.54 LINE",
"633.71 664.41 LINE",
"582.49 664.41 LINE",
"510.46 737 LINE",
"174.54 737 LINE",
"76.66 638.37 LINE",
"76.66 98.62 LINE",
"174.54 0 LINE"
);
},
{
closed = 1;
nodes = (
"133.21 117.33 LINE",
"133.04 619.66 LINE",
"198.37 685.58 LINE",
"486.58 685.71 LINE",
"551.79 619.66 LINE",
"551.91 117.37 LINE",
"486.62 51.41 LINE",
"198.41 51.29 LINE"
);
},
{
closed = 1;
nodes = (
"447.75 794.25 LINE",
"502.08 849.58 LINE",
"503.08 905.66 LINE",
"469.37 905.66 LINE",
"467.21 869.71 LINE",
"429.08 833.46 LINE",
"394.62 833.46 LINE",
"320.87 906.79 LINE",
"238.41 906.79 LINE",
"184.08 851.41 LINE",
"183.08 795.33 LINE",
"216.79 795.33 LINE",
"218.96 831.21 LINE",
"257.08 867.58 LINE",
"300.37 867.58 LINE",
"374.04 794.25 LINE"
);
}
);
width = 685;
}
);
leftKerningGroup = C;
note = uni1EE0;
rightKerningGroup = O;
unicode = 1EE0;
},
{
glyphname = Ohungarumlaut;
lastChange = "2019-09-03 16:29:54 +0000";
layers = (
{
hints = (
{
horizontal = 1;
place = "{0, 51.35}";
type = Stem;
},
{
horizontal = 1;
place = "{685.65, 51.35}";
type = Stem;
},
{
horizontal = 1;
place = "{794.25, 143.66}";
type = Stem;
},
{
place = "{76.66, 56.46}";
type = Stem;
},
{
place = "{551.85, 56.48}";
type = Stem;
}
);
layerId = "43E2286E-6EE6-4840-9A6A-FE0C69444F4F";
paths = (
{
closed = 1;
nodes = (
"510.46 0 LINE",
"608.33 98.62 LINE",
"608.33 638.37 LINE",
"510.46 737 LINE",
"174.54 737 LINE",
"76.66 638.37 LINE",
"76.66 98.62 LINE",
"174.54 0 LINE"
);
},
{
closed = 1;
nodes = (
"133.21 117.33 LINE",
"133.04 619.66 LINE",
"198.37 685.58 LINE",
"486.58 685.71 LINE",
"551.79 619.66 LINE",
"551.91 117.37 LINE",
"486.62 51.41 LINE",
"198.41 51.29 LINE"
);
},
{
closed = 1;
nodes = (
"293.33 794.25 LINE",
"402.62 937.91 LINE",
"339.58 937.91 LINE",
"249.33 794.25 LINE"
);
},
{
closed = 1;
nodes = (
"431.21 794.25 LINE",
"540.5 937.91 LINE",
"477.46 937.91 LINE",
"387.21 794.25 LINE"
);
}
);
width = 685;
}
);
leftKerningGroup = C;
note = Ohungarumlaut;
rightKerningGroup = O;
unicode = 0150;
},
{
glyphname = uni020E;
lastChange = "2019-09-03 16:29:54 +0000";
layers = (
{
hints = (
{
horizontal = 1;
place = "{0, 51.35}";
type = Stem;
},
{
horizontal = 1;
place = "{685.65, 51.35}";
type = Stem;
},
{
horizontal = 1;
place = "{879.62, 39.96}";
type = Stem;
},
{
place = "{76.66, 56.46}";
type = Stem;
},
{
place = "{217.41, 40.8}";
type = Stem;
},
{
place = "{426.79, 40.79}";
type = Stem;
},
{
place = "{551.85, 56.48}";
type = Stem;
}
);
layerId = "43E2286E-6EE6-4840-9A6A-FE0C69444F4F";
paths = (
{
closed = 1;
nodes = (
"510.46 0 LINE",
"608.33 98.62 LINE",
"608.33 638.37 LINE",
"510.46 737 LINE",
"174.54 737 LINE",
"76.66 638.37 LINE",
"76.66 98.62 LINE",
"174.54 0 LINE"
);
},
{
closed = 1;
nodes = (
"133.21 117.33 LINE",
"133.04 619.66 LINE",
"198.37 685.58 LINE",
"486.58 685.71 LINE",
"551.79 619.66 LINE",
"551.91 117.37 LINE",
"486.62 51.41 LINE",
"198.41 51.29 LINE"
);
},
{
closed = 1;
nodes = (
"258.21 794.25 LINE",
"258.21 849.25 LINE",
"288.58 879.62 LINE",
"396.41 879.62 LINE",
"426.79 849.25 LINE",
"426.79 794.25 LINE",
"467.58 794.25 LINE",
"467.58 863.46 LINE",
"411.46 919.58 LINE",
"273.54 919.58 LINE",
"217.41 863.46 LINE",
"217.41 794.25 LINE"
);
}
);
width = 685;
}
);
leftKerningGroup = C;
note = uni020E;
rightKerningGroup = O;
unicode = 020E;
},
{
glyphname = Omacron;
lastChange = "2019-09-03 16:29:54 +0000";
layers = (
{
hints = (
{
horizontal = 1;
place = "{0, 51.35}";
type = Stem;
},
{
horizontal = 1;
place = "{685.65, 51.35}";
type = Stem;
},
{
horizontal = 1;
place = "{794.25, 43.96}";
type = Stem;
},
{
place = "{76.66, 56.46}";
type = Stem;
},
{
place = "{551.85, 56.48}";
type = Stem;
}
);
layerId = "43E2286E-6EE6-4840-9A6A-FE0C69444F4F";
paths = (
{
closed = 1;
nodes = (
"510.46 0 LINE",
"608.33 98.62 LINE",
"608.33 638.37 LINE",
"510.46 737 LINE",
"174.54 737 LINE",
"76.66 638.37 LINE",
"76.66 98.62 LINE",
"174.54 0 LINE"
);
},
{
closed = 1;
nodes = (
"133.21 117.33 LINE",
"133.04 619.66 LINE",
"198.37 685.58 LINE",
"486.58 685.71 LINE",
"551.79 619.66 LINE",
"551.91 117.37 LINE",
"486.62 51.41 LINE",
"198.41 51.29 LINE"
);
},
{
closed = 1;
nodes = (
"502.91 794.25 LINE",
"502.91 838.21 LINE",
"182.08 838.21 LINE",
"182.08 794.25 LINE"
);
}
);
width = 685;
}
);
leftKerningGroup = C;
note = Omacron;
rightKerningGroup = O;
unicode = 014C;
},
{
glyphname = uni01EA;
lastChange = "2019-09-03 18:36:01 +0000";
layers = (
{
hints = (
{
horizontal = 1;
place = "{-149.63, 41.79}";
type = Stem;
},
{
horizontal = 1;
place = "{0, 51.35}";
type = Stem;
},
{
horizontal = 1;
place = "{685.65, 51.35}";
type = Stem;
},
{
place = "{76.66, 56.46}";
type = Stem;
},
{
place = "{429.79, 39.96}";
type = Stem;
},
{
place = "{551.85, 56.48}";
type = Stem;
}
);
layerId = "43E2286E-6EE6-4840-9A6A-FE0C69444F4F";
paths = (
{
closed = 1;
nodes = (
"523.25 -149.63 LINE",
"523.25 -107.84 LINE",
"497.96 -107.84 LINE",
"469.75 -79.59 LINE",
"469.75 -42.75 LINE",
"608.33 98.62 LINE",
"608.33 638.37 LINE",
"510.46 737 LINE",
"174.54 737 LINE",
"76.66 638.37 LINE",
"76.66 98.62 LINE",
"174.54 0 LINE",
"467.79 0 LINE",
"429.79 -36 LINE",
"429.79 -96.75 LINE",
"482.54 -149.63 LINE"
);
},
{
closed = 1;
nodes = (
"133.21 117.33 LINE",
"133.04 619.66 LINE",
"198.37 685.58 LINE",
"486.58 685.71 LINE",
"551.79 619.66 LINE",
"551.91 117.37 LINE",
"486.62 51.41 LINE",
"198.41 51.29 LINE"
);
}
);
width = 685;
}
);
leftKerningGroup = C;
note = uni01EA;
rightKerningGroup = O;
unicode = 01EA;
},
{
glyphname = Oslash;
lastChange = "2019-09-03 16:29:54 +0000";
layers = (
{
hints = (
{
horizontal = 1;
place = "{0, 51.35}";
type = Stem;
},
{
horizontal = 1;
place = "{685.65, 51.35}";
type = Stem;
},
{
place = "{76.66, 56.46}";
type = Stem;
},
{
place = "{551.85, 56.48}";
type = Stem;
}
);
layerId = "43E2286E-6EE6-4840-9A6A-FE0C69444F4F";
paths = (
{
closed = 1;
nodes = (
"510.46 0 LINE",
"608.33 98.62 LINE",
"608.33 638.37 LINE",
"510.46 737 LINE",
"174.54 737 LINE",
"76.66 638.37 LINE",
"76.66 98.62 LINE",
"174.54 0 LINE"
);
},
{
closed = 1;
nodes = (
"178.79 71.17 LINE",
"540.05 631.55 LINE",
"551.79 619.66 LINE",
"551.91 117.37 LINE",
"486.62 51.41 LINE",
"198.41 51.29 LINE"
);
},
{
closed = 1;
nodes = (
"133.21 117.33 LINE",
"133.04 619.66 LINE",
"198.37 685.58 LINE",
"486.58 685.71 LINE",
"506.19 665.85 LINE",
"144.95 105.44 LINE"
);
}
);
width = 685;
}
);
leftKerningGroup = C;
note = Oslash;
rightKerningGroup = O;
unicode = 00D8;
},
{
glyphname = Oslashacute;
lastChange = "2019-09-03 16:29:54 +0000";
layers = (
{
hints = (
{
horizontal = 1;
place = "{0, 51.35}";
type = Stem;
},
{
horizontal = 1;
place = "{685.65, 51.35}";
type = Stem;
},
{
horizontal = 1;
place = "{794.25, 143.66}";
type = Stem;
},
{
place = "{76.66, 56.46}";
type = Stem;
},
{
place = "{551.85, 56.48}";
type = Stem;
}
);
layerId = "43E2286E-6EE6-4840-9A6A-FE0C69444F4F";
paths = (
{
closed = 1;
nodes = (
"510.46 0 LINE",
"608.33 98.62 LINE",
"608.33 638.37 LINE",
"510.46 737 LINE",
"174.54 737 LINE",
"76.66 638.37 LINE",
"76.66 98.62 LINE",
"174.54 0 LINE"
);
},
{
closed = 1;
nodes = (
"178.79 71.17 LINE",
"540.05 631.55 LINE",
"551.79 619.66 LINE",
"551.91 117.37 LINE",
"486.62 51.41 LINE",
"198.41 51.29 LINE"
);
},
{
closed = 1;
nodes = (
"133.21 117.33 LINE",
"133.04 619.66 LINE",
"198.37 685.58 LINE",
"486.58 685.71 LINE",
"506.19 665.85 LINE",
"144.95 105.44 LINE"
);
},
{
closed = 1;
nodes = (
"367.58 794.25 LINE",
"476.87 937.91 LINE",
"410.16 937.91 LINE",
"319.96 794.25 LINE"
);
}
);
width = 685;
}
);
leftKerningGroup = C;
note = Oslashacute;
rightKerningGroup = O;
unicode = 01FE;
},
{
glyphname = Otilde;
lastChange = "2019-09-03 16:29:54 +0000";
layers = (
{
hints = (
{
horizontal = 1;
place = "{0, 51.35}";
type = Stem;
},
{
horizontal = 1;
place = "{685.65, 51.35}";
type = Stem;
},
{
horizontal = 1;
place = "{794.25, 39.21}";
type = Stem;
},
{
horizontal = 1;
place = "{867.58, 39.21}";
type = Stem;
},
{
place = "{76.66, 56.46}";
type = Stem;
},
{
place = "{183.58, 34.29}";
type = Stem;
},
{
place = "{468.29, 34.29}";
type = Stem;
},
{
place = "{551.85, 56.48}";
type = Stem;
}
);
layerId = "43E2286E-6EE6-4840-9A6A-FE0C69444F4F";
paths = (
{
closed = 1;
nodes = (
"510.46 0 LINE",
"608.33 98.62 LINE",
"608.33 638.37 LINE",
"510.46 737 LINE",
"174.54 737 LINE",
"76.66 638.37 LINE",
"76.66 98.62 LINE",
"174.54 0 LINE"
);
},
{
closed = 1;
nodes = (
"133.21 117.33 LINE",
"133.04 619.66 LINE",
"198.37 685.58 LINE",
"486.58 685.71 LINE",
"551.79 619.66 LINE",
"551.91 117.37 LINE",
"486.62 51.41 LINE",
"198.41 51.29 LINE"
);
},
{
closed = 1;
nodes = (
"447.75 794.25 LINE",
"502.08 849.58 LINE",
"503.08 905.66 LINE",
"469.37 905.66 LINE",
"467.21 869.71 LINE",
"429.08 833.46 LINE",
"394.62 833.46 LINE",
"320.87 906.79 LINE",
"238.41 906.79 LINE",
"184.08 851.41 LINE",
"183.08 795.33 LINE",
"216.79 795.33 LINE",
"218.96 831.21 LINE",
"257.08 867.58 LINE",
"300.37 867.58 LINE",
"374.04 794.25 LINE"
);
}
);
width = 685;
}
);
leftKerningGroup = C;
note = Otilde;
rightKerningGroup = O;
unicode = 00D5;
},
{
glyphname = uni022C;
lastChange = "2019-09-03 16:29:54 +0000";
layers = (
{
hints = (
{
horizontal = 1;
place = "{0, 51.35}";
type = Stem;
},
{
horizontal = 1;
place = "{685.65, 51.35}";
type = Stem;
},
{
horizontal = 1;
place = "{794.25, 39.21}";
type = Stem;
},
{
horizontal = 1;
place = "{867.58, 39.21}";
type = Stem;
},
{
horizontal = 1;
place = "{943.37, 43.96}";
type = Stem;
},
{
place = "{76.66, 56.46}";
type = Stem;
},
{
place = "{183.58, 34.29}";
type = Stem;
},
{
place = "{468.29, 34.29}";
type = Stem;
},
{
place = "{551.85, 56.48}";
type = Stem;
}
);
layerId = "43E2286E-6EE6-4840-9A6A-FE0C69444F4F";
paths = (
{
closed = 1;
nodes = (
"510.46 0 LINE",
"608.33 98.62 LINE",
"608.33 638.37 LINE",
"510.46 737 LINE",
"174.54 737 LINE",
"76.66 638.37 LINE",
"76.66 98.62 LINE",
"174.54 0 LINE"
);
},
{
closed = 1;
nodes = (
"133.21 117.33 LINE",
"133.04 619.66 LINE",
"198.37 685.58 LINE",
"486.58 685.71 LINE",
"551.79 619.66 LINE",
"551.91 117.37 LINE",
"486.62 51.41 LINE",
"198.41 51.29 LINE"
);
},
{
closed = 1;
nodes = (
"447.75 794.25 LINE",
"502.08 849.58 LINE",
"503.08 905.66 LINE",
"469.37 905.66 LINE",
"467.21 869.71 LINE",
"429.08 833.46 LINE",
"394.62 833.46 LINE",
"320.87 906.79 LINE",
"238.41 906.79 LINE",
"184.08 851.41 LINE",
"183.08 795.33 LINE",
"216.79 795.33 LINE",
"218.96 831.21 LINE",
"257.08 867.58 LINE",
"300.37 867.58 LINE",
"374.04 794.25 LINE"
);
},
{
closed = 1;
nodes = (
"502.91 943.37 LINE",
"502.91 987.33 LINE",
"182.08 987.33 LINE",
"182.08 943.37 LINE"
);
}
);
width = 685;
}
);
leftKerningGroup = C;
note = uni022C;
rightKerningGroup = O;
unicode = 022C;
},
{
glyphname = OE;
lastChange = "2019-09-03 16:29:54 +0000";
layers = (
{
hints = (
{
horizontal = 1;
place = "{0, 52.79}";
type = Stem;
},
{
horizontal = 1;
place = "{362.62, 52.79}";
type = Stem;
},
{
horizontal = 1;
place = "{684.21, 52.79}";
type = Stem;
},
{
place = "{76.66, 56.46}";
type = Stem;
},
{
place = "{551.88, 56.65}";
type = Stem;
}
);
layerId = "43E2286E-6EE6-4840-9A6A-FE0C69444F4F";
paths = (
{
closed = 1;
nodes = (
"510.46 0 LINE",
"562 52 LINE",
"562 0 LINE",
"1020.33 0 LINE",
"1020.33 52.79 LINE",
"608.53 52.79 LINE",
"608.53 362.62 LINE",
"969.75 362.62 LINE",
"969.75 415.41 LINE",
"608.53 415.41 LINE",
"608.53 684.21 LINE",
"1020.33 684.21 LINE",
"1020.33 737 LINE",
"562 737 LINE",
"562 685 LINE",
"510 737 LINE",
"174.54 737 LINE",
"76.66 638.37 LINE",
"76.66 98.62 LINE",
"174.54 0 LINE"
);
},
{
closed = 1;
nodes = (
"133.21 117.33 LINE",
"133.04 619.66 LINE",
"198.37 685.58 LINE",
"486.58 685.71 LINE",
"551.79 619.66 LINE",
"551.88 253.98 LINE",
"551.88 117.34 LINE",
"486.62 51.41 LINE",
"198.41 51.29 LINE"
);
}
);
width = 1074;
}
);
leftKerningGroup = C;
note = OE;
rightKerningGroup = AE;
unicode = 0152;
},
{
glyphname = P;
lastChange = "2019-09-03 16:29:54 +0000";
layers = (
{
hints = (
{
horizontal = 1;
place = "{293.71, 51.37}";
type = Stem;
},
{
horizontal = 1;
place = "{685.71, 51.29}";
type = Stem;
},
{
place = "{93.33, 56.65}";
type = Stem;
},
{
place = "{498.1, 56.48}";
type = Stem;
}
);
layerId = "43E2286E-6EE6-4840-9A6A-FE0C69444F4F";
paths = (
{
closed = 1;
nodes = (
"149.98 0 LINE",
"149.98 293.71 LINE",
"456.71 293.71 LINE",
"554.58 392.33 LINE",
"554.58 638.37 LINE",
"456.71 737 LINE",
"93.33 737 LINE",
"93.33 0 LINE"
);
},
{
closed = 1;
nodes = (
"149.98 685.67 LINE",
"432.87 685.75 LINE",
"498.04 619.66 LINE",
"498.16 411.08 LINE",
"432.87 345.12 LINE",
"149.98 345.04 LINE"
);
}
);
width = 595;
}
);
leftKerningGroup = B;
note = P;
rightKerningGroup = P;
unicode = 0050;
},
{
glyphname = Thorn;
lastChange = "2019-09-03 16:29:54 +0000";
layers = (
{
hints = (
{
horizontal = 1;
place = "{157.62, 51.38}";
type = Stem;
},
{
horizontal = 1;
place = "{549.65, 51.26}";
type = Stem;
},
{
place = "{93.33, 56.65}";
type = Stem;
},
{
place = "{498.1, 56.48}";
type = Stem;
}
);
layerId = "43E2286E-6EE6-4840-9A6A-FE0C69444F4F";
paths = (
{
closed = 1;
nodes = (
"149.98 -0.75 LINE",
"149.98 157.62 LINE",
"456.71 157.62 LINE",
"554.58 256.33 LINE",
"554.58 502.33 LINE",
"456.71 600.91 LINE",
"149.98 600.91 LINE",
"149.98 736.25 LINE",
"93.33 736.25 LINE",
"93.33 -0.75 LINE"
);
},
{
closed = 1;
nodes = (
"149.98 549.59 LINE",
"432.87 549.71 LINE",
"498.04 483.58 LINE",
"498.16 275 LINE",
"432.87 209.04 LINE",
"149.98 208.96 LINE"
);
}
);
width = 595;
}
);
leftKerningGroup = B;
note = Thorn;
rightKerningGroup = Thorn;
unicode = 00DE;
},
{
glyphname = Q;
lastChange = "2019-09-03 16:29:54 +0000";
layers = (
{
hints = (
{
horizontal = 1;
place = "{0, 51.32}";
type = Stem;
},
{
horizontal = 1;
place = "{685.65, 51.35}";
type = Stem;
},
{
place = "{76.66, 56.46}";
type = Stem;
},
{
place = "{317.21, 50.58}";
type = Stem;
},
{
place = "{551.85, 56.48}";
type = Stem;
}
);
layerId = "43E2286E-6EE6-4840-9A6A-FE0C69444F4F";
paths = (
{
closed = 1;
nodes = (
"367.79 -115.54 LINE",
"367.79 0 LINE",
"510.46 0 LINE",
"608.33 98.62 LINE",
"608.33 638.37 LINE",
"510.46 737 LINE",
"174.54 737 LINE",
"76.66 638.37 LINE",
"76.66 98.62 LINE",
"174.54 0 LINE",
"317.21 0 LINE",
"317.21 -115.54 LINE"
);
},
{
closed = 1;
nodes = (
"133.21 117.33 LINE",
"133.04 619.66 LINE",
"198.37 685.58 LINE",
"486.58 685.71 LINE",
"551.79 619.66 LINE",
"551.91 117.37 LINE",
"486.62 51.41 LINE",
"367.79 51.36 LINE",
"367.79 165.75 LINE",
"317.21 165.75 LINE",
"317.21 51.34 LINE",
"198.41 51.29 LINE"
);
}
);
width = 685;
}
);
leftKerningGroup = C;
note = Q;
rightKerningGroup = O;
unicode = 0051;
},
{
glyphname = R;
lastChange = "2019-09-03 16:29:54 +0000";
layers = (
{
hints = (
{
horizontal = 1;
place = "{313.75, 51.5}";
type = Stem;
},
{
horizontal = 1;
place = "{685.62, 51.38}";
type = Stem;
},
{
place = "{93.32, 56.65}";
type = Stem;
},
{
place = "{511.75, 56.37}";
type = Stem;
}
);
layerId = "43E2286E-6EE6-4840-9A6A-FE0C69444F4F";
paths = (
{
closed = 1;
nodes = (
"149.97 0 LINE",
"149.97 313.75 LINE",
"388.88 313.75 LINE",
"536.25 0 LINE",
"596.5 0 LINE",
"449.13 313.75 LINE",
"470.25 313.75 LINE",
"568.12 412.75 LINE",
"568.12 638 LINE",
"470.25 737 LINE",
"93.32 737 LINE",
"93.32 0 LINE"
);
},
{
closed = 1;
nodes = (
"149.97 685.62 LINE",
"446.87 685.62 LINE",
"511.75 619.62 LINE",
"511.75 431.25 LINE",
"446.87 365.25 LINE",
"149.97 365.25 LINE"
);
}
);
width = 660;
}
);
leftKerningGroup = B;
note = R;
rightKerningGroup = R;
unicode = 0052;
},
{
glyphname = Racute;
lastChange = "2019-09-03 16:29:54 +0000";
layers = (
{
hints = (
{
horizontal = 1;
place = "{313.75, 51.5}";
type = Stem;
},
{
horizontal = 1;
place = "{685.62, 51.38}";
type = Stem;
},
{
horizontal = 1;
place = "{794.25, 143.66}";
type = Stem;
},
{
place = "{93.32, 56.65}";
type = Stem;
},
{
place = "{511.75, 56.37}";
type = Stem;
}
);
layerId = "43E2286E-6EE6-4840-9A6A-FE0C69444F4F";
paths = (
{
closed = 1;
nodes = (
"149.97 0 LINE",
"149.97 313.75 LINE",
"388.88 313.75 LINE",
"536.25 0 LINE",
"596.5 0 LINE",
"449.13 313.75 LINE",
"470.25 313.75 LINE",
"568.12 412.75 LINE",
"568.12 638 LINE",
"470.25 737 LINE",
"93.32 737 LINE",
"93.32 0 LINE"
);
},
{
closed = 1;
nodes = (
"149.97 685.62 LINE",
"446.87 685.62 LINE",
"511.75 619.62 LINE",
"511.75 431.25 LINE",
"446.87 365.25 LINE",
"149.97 365.25 LINE"
);
},
{
closed = 1;
nodes = (
"328.58 794.25 LINE",
"437.87 937.91 LINE",
"371.16 937.91 LINE",
"280.96 794.25 LINE"
);
}
);
width = 660;
}
);
leftKerningGroup = B;
note = Racute;
rightKerningGroup = R;
unicode = 0154;
},
{
glyphname = Rcaron;
lastChange = "2019-09-03 16:29:54 +0000";
layers = (
{
hints = (
{
horizontal = 1;
place = "{313.75, 51.5}";
type = Stem;
},
{
horizontal = 1;
place = "{685.62, 51.38}";
type = Stem;
},
{
horizontal = 1;
place = "{794.25, 38.21}";
type = Stem;
},
{
place = "{93.32, 56.65}";
type = Stem;
},
{
place = "{511.75, 56.37}";
type = Stem;
}
);
layerId = "43E2286E-6EE6-4840-9A6A-FE0C69444F4F";
paths = (
{
closed = 1;
nodes = (
"149.97 0 LINE",
"149.97 313.75 LINE",
"388.88 313.75 LINE",
"536.25 0 LINE",
"596.5 0 LINE",
"449.13 313.75 LINE",
"470.25 313.75 LINE",
"568.12 412.75 LINE",
"568.12 638 LINE",
"470.25 737 LINE",
"93.32 737 LINE",
"93.32 0 LINE"
);
},
{
closed = 1;
nodes = (
"149.97 685.62 LINE",
"446.87 685.62 LINE",
"511.75 619.62 LINE",
"511.75 431.25 LINE",
"446.87 365.25 LINE",
"149.97 365.25 LINE"
);
},
{
closed = 1;
nodes = (
"339.41 794.25 LINE",
"443.91 933.58 LINE",
"395.54 933.58 LINE",
"308.58 832.46 LINE",
"296.91 832.46 LINE",
"209.96 933.58 LINE",
"161.58 933.58 LINE",
"266.08 794.25 LINE"
);
}
);
width = 660;
}
);
leftKerningGroup = B;
note = Rcaron;
rightKerningGroup = R;
unicode = 0158;
},
{
glyphname = uni0156;
lastChange = "2019-09-03 16:29:54 +0000";
layers = (
{
hints = (
{
horizontal = 1;
place = "{-224.42, 167.17}";
type = Stem;
},
{
horizontal = 1;
place = "{313.75, 51.5}";
type = Stem;
},
{
horizontal = 1;
place = "{685.62, 51.38}";
type = Stem;
},
{
place = "{93.32, 56.65}";
type = Stem;
},
{
place = "{511.75, 56.37}";
type = Stem;
}
);
layerId = "43E2286E-6EE6-4840-9A6A-FE0C69444F4F";
paths = (
{
closed = 1;
nodes = (
"149.97 0 LINE",
"149.97 313.75 LINE",
"388.88 313.75 LINE",
"536.25 0 LINE",
"596.5 0 LINE",
"449.13 313.75 LINE",
"470.25 313.75 LINE",
"568.12 412.75 LINE",
"568.12 638 LINE",
"470.25 737 LINE",
"93.32 737 LINE",
"93.32 0 LINE"
);
},
{
closed = 1;
nodes = (
"296.5 -224.42 LINE",
"357.04 -57.25 LINE",
"300.21 -57.25 LINE",
"261.66 -224.42 LINE"
);
},
{
closed = 1;
nodes = (
"149.97 685.62 LINE",
"446.87 685.62 LINE",
"511.75 619.62 LINE",
"511.75 431.25 LINE",
"446.87 365.25 LINE",
"149.97 365.25 LINE"
);
}
);
width = 660;
}
);
leftKerningGroup = B;
note = uni0156;
rightKerningGroup = R;
unicode = 0156;
},
{
glyphname = uni0210;
lastChange = "2019-09-03 16:29:54 +0000";
layers = (
{
hints = (
{
horizontal = 1;
place = "{313.75, 51.5}";
type = Stem;
},
{
horizontal = 1;
place = "{685.62, 51.38}";
type = Stem;
},
{
horizontal = 1;
place = "{794.25, 143.66}";
type = Stem;
},
{
place = "{93.32, 56.65}";
type = Stem;
},
{
place = "{511.75, 56.37}";
type = Stem;
}
);
layerId = "43E2286E-6EE6-4840-9A6A-FE0C69444F4F";
paths = (
{
closed = 1;
nodes = (
"149.97 0 LINE",
"149.97 313.75 LINE",
"388.88 313.75 LINE",
"536.25 0 LINE",
"596.5 0 LINE",
"449.13 313.75 LINE",
"470.25 313.75 LINE",
"568.12 412.75 LINE",
"568.12 638 LINE",
"470.25 737 LINE",
"93.32 737 LINE",
"93.32 0 LINE"
);
},
{
closed = 1;
nodes = (
"149.97 685.62 LINE",
"446.87 685.62 LINE",
"511.75 619.62 LINE",
"511.75 431.25 LINE",
"446.87 365.25 LINE",
"149.97 365.25 LINE"
);
},
{
closed = 1;
nodes = (
"259.5 794.25 LINE",
"169.25 937.91 LINE",
"106.21 937.91 LINE",
"215.5 794.25 LINE"
);
},
{
closed = 1;
nodes = (
"397.37 794.25 LINE",
"307.12 937.91 LINE",
"244.08 937.91 LINE",
"353.37 794.25 LINE"
);
}
);
width = 660;
}
);
leftKerningGroup = B;
note = uni0210;
rightKerningGroup = R;
unicode = 0210;
},
{
glyphname = uni0212;
lastChange = "2019-09-03 16:29:54 +0000";
layers = (
{
hints = (
{
horizontal = 1;
place = "{313.75, 51.5}";
type = Stem;
},
{
horizontal = 1;
place = "{685.62, 51.38}";
type = Stem;
},
{
horizontal = 1;
place = "{879.62, 39.96}";
type = Stem;
},
{
place = "{93.32, 56.65}";
type = Stem;
},
{
place = "{178.41, 40.8}";
type = Stem;
},
{
place = "{387.79, 40.79}";
type = Stem;
},
{
place = "{511.75, 56.37}";
type = Stem;
}
);
layerId = "43E2286E-6EE6-4840-9A6A-FE0C69444F4F";
paths = (
{
closed = 1;
nodes = (
"149.97 0 LINE",
"149.97 313.75 LINE",
"388.88 313.75 LINE",
"536.25 0 LINE",
"596.5 0 LINE",
"449.13 313.75 LINE",
"470.25 313.75 LINE",
"568.12 412.75 LINE",
"568.12 638 LINE",
"470.25 737 LINE",
"93.32 737 LINE",
"93.32 0 LINE"
);
},
{
closed = 1;
nodes = (
"149.97 685.62 LINE",
"446.87 685.62 LINE",
"511.75 619.62 LINE",
"511.75 431.25 LINE",
"446.87 365.25 LINE",
"149.97 365.25 LINE"
);
},
{
closed = 1;
nodes = (
"219.21 794.25 LINE",
"219.21 849.25 LINE",
"249.58 879.62 LINE",
"357.41 879.62 LINE",
"387.79 849.25 LINE",
"387.79 794.25 LINE",
"428.58 794.25 LINE",
"428.58 863.46 LINE",
"372.46 919.58 LINE",
"234.54 919.58 LINE",
"178.41 863.46 LINE",
"178.41 794.25 LINE"
);
}
);
width = 660;
}
);
leftKerningGroup = B;
note = uni0212;
rightKerningGroup = R;
unicode = 0212;
},
{
glyphname = S;
lastChange = "2019-09-03 16:29:54 +0000";
layers = (
{
hints = (
{
horizontal = 1;
place = "{0, 52.83}";
type = Stem;
},
{
horizontal = 1;
place = "{354.62, 51.19}";
type = Stem;
},
{
horizontal = 1;
place = "{684.17, 52.83}";
type = Stem;
},
{
place = "{68.33, 56.46}";
type = Stem;
},
{
place = "{521.14, 56.52}";
type = Stem;
}
);
layerId = "43E2286E-6EE6-4840-9A6A-FE0C69444F4F";
paths = (
{
closed = 1;
nodes = (
"479.79 0 LINE",
"577.66 98.62 LINE",
"577.66 307.25 LINE",
"479.79 405.83 LINE",
"190.08 405.79 LINE",
"124.87 471.91 LINE",
"124.71 618.21 LINE",
"190.08 684.12 LINE",
"541.33 684.21 LINE",
"541.33 737 LINE",
"166.21 737 LINE",
"68.33 638.37 LINE",
"68.33 453.16 LINE",
"166.21 354.58 LINE",
"455.91 354.66 LINE",
"521.08 288.58 LINE",
"521.21 118.83 LINE",
"455.91 52.87 LINE",
"95.87 52.79 LINE",
"95.87 0 LINE"
);
}
);
width = 646;
}
);
leftKerningGroup = S;
note = S;
rightKerningGroup = S;
unicode = 0053;
},
{
glyphname = Sacute;
lastChange = "2019-09-03 16:29:54 +0000";
layers = (
{
hints = (
{
horizontal = 1;
place = "{0, 52.83}";
type = Stem;
},
{
horizontal = 1;
place = "{354.62, 51.19}";
type = Stem;
},
{
horizontal = 1;
place = "{684.17, 52.83}";
type = Stem;
},
{
horizontal = 1;
place = "{794.25, 143.66}";
type = Stem;
},
{
place = "{68.33, 56.46}";
type = Stem;
},
{
place = "{521.14, 56.52}";
type = Stem;
}
);
layerId = "43E2286E-6EE6-4840-9A6A-FE0C69444F4F";
paths = (
{
closed = 1;
nodes = (
"479.79 0 LINE",
"577.66 98.62 LINE",
"577.66 307.25 LINE",
"479.79 405.83 LINE",
"190.08 405.79 LINE",
"124.87 471.91 LINE",
"124.71 618.21 LINE",
"190.08 684.12 LINE",
"541.33 684.21 LINE",
"541.33 737 LINE",
"166.21 737 LINE",
"68.33 638.37 LINE",
"68.33 453.16 LINE",
"166.21 354.58 LINE",
"455.91 354.66 LINE",
"521.08 288.58 LINE",
"521.21 118.83 LINE",
"455.91 52.87 LINE",
"95.87 52.79 LINE",
"95.87 0 LINE"
);
},
{
closed = 1;
nodes = (
"343.5 794.25 LINE",
"452.79 937.91 LINE",
"386.08 937.91 LINE",
"295.87 794.25 LINE"
);
}
);
width = 646;
}
);
leftKerningGroup = S;
note = Sacute;
rightKerningGroup = S;
unicode = 015A;
},
{
glyphname = Scaron;
lastChange = "2019-09-03 16:29:54 +0000";
layers = (
{
hints = (
{
horizontal = 1;
place = "{0, 52.83}";
type = Stem;
},
{
horizontal = 1;
place = "{354.62, 51.19}";
type = Stem;
},
{
horizontal = 1;
place = "{684.17, 52.83}";
type = Stem;
},
{
horizontal = 1;
place = "{794.25, 38.21}";
type = Stem;
},
{
place = "{68.33, 56.46}";
type = Stem;
},
{
place = "{521.14, 56.52}";
type = Stem;
}
);
layerId = "43E2286E-6EE6-4840-9A6A-FE0C69444F4F";
paths = (
{
closed = 1;
nodes = (
"479.79 0 LINE",
"577.66 98.62 LINE",
"577.66 307.25 LINE",
"479.79 405.83 LINE",
"190.08 405.79 LINE",
"124.87 471.91 LINE",
"124.71 618.21 LINE",
"190.08 684.12 LINE",
"541.33 684.21 LINE",
"541.33 737 LINE",
"166.21 737 LINE",
"68.33 638.37 LINE",
"68.33 453.16 LINE",
"166.21 354.58 LINE",
"455.91 354.66 LINE",
"521.08 288.58 LINE",
"521.21 118.83 LINE",
"455.91 52.87 LINE",
"95.87 52.79 LINE",
"95.87 0 LINE"
);
},
{
closed = 1;
nodes = (
"354.33 794.25 LINE",
"458.83 933.58 LINE",
"410.46 933.58 LINE",
"323.5 832.46 LINE",
"311.83 832.46 LINE",
"224.87 933.58 LINE",
"176.5 933.58 LINE",
"281 794.25 LINE"
);
}
);
width = 646;
}
);
leftKerningGroup = S;
note = Scaron;
rightKerningGroup = S;
unicode = 0160;
},
{
glyphname = Scedilla;
lastChange = "2019-09-03 16:29:54 +0000";
layers = (
{
hints = (
{
horizontal = 1;
place = "{0, 52.83}";
type = Stem;
},
{
horizontal = 1;
place = "{354.62, 51.19}";
type = Stem;
},
{
horizontal = 1;
place = "{684.17, 52.83}";
type = Stem;
},
{
place = "{68.33, 56.46}";
type = Stem;
},
{
place = "{521.14, 56.52}";
type = Stem;
}
);
layerId = "43E2286E-6EE6-4840-9A6A-FE0C69444F4F";
paths = (
{
closed = 1;
nodes = (
"304.83 -129.79 LINE",
"343.33 0 LINE",
"479.79 0 LINE",
"577.66 98.62 LINE",
"577.66 307.25 LINE",
"479.79 405.83 LINE",
"190.08 405.79 LINE",
"124.87 471.91 LINE",
"124.71 618.21 LINE",
"190.08 684.12 LINE",
"541.33 684.21 LINE",
"541.33 737 LINE",
"166.21 737 LINE",
"68.33 638.37 LINE",
"68.33 453.16 LINE",
"166.21 354.58 LINE",
"455.91 354.66 LINE",
"521.08 288.58 LINE",
"521.21 118.83 LINE",
"455.91 52.87 LINE",
"95.87 52.79 LINE",
"95.87 0 LINE",
"293.46 0 LINE",
"261.91 -129.79 LINE"
);
}
);
width = 646;
}
);
leftKerningGroup = S;
note = Scedilla;
rightKerningGroup = S;
unicode = 015E;
},
{
glyphname = Scircumflex;
lastChange = "2019-09-03 16:29:54 +0000";
layers = (
{
hints = (
{
horizontal = 1;
place = "{0, 52.83}";
type = Stem;
},
{
horizontal = 1;
place = "{354.62, 51.19}";
type = Stem;
},
{
horizontal = 1;
place = "{684.17, 52.83}";
type = Stem;
},
{
horizontal = 1;
place = "{895.37, 38.21}";
type = Stem;
},
{
place = "{68.33, 56.46}";
type = Stem;
},
{
place = "{521.14, 56.52}";
type = Stem;
}
);
layerId = "43E2286E-6EE6-4840-9A6A-FE0C69444F4F";
paths = (
{
closed = 1;
nodes = (
"479.79 0 LINE",
"577.66 98.62 LINE",
"577.66 307.25 LINE",
"479.79 405.83 LINE",
"190.08 405.79 LINE",
"124.87 471.91 LINE",
"124.71 618.21 LINE",
"190.08 684.12 LINE",
"541.33 684.21 LINE",
"541.33 737 LINE",
"166.21 737 LINE",
"68.33 638.37 LINE",
"68.33 453.16 LINE",
"166.21 354.58 LINE",
"455.91 354.66 LINE",
"521.08 288.58 LINE",
"521.21 118.83 LINE",
"455.91 52.87 LINE",
"95.87 52.79 LINE",
"95.87 0 LINE"
);
},
{
closed = 1;
nodes = (
"225.62 794.25 LINE",
"312.58 895.37 LINE",
"324.25 895.37 LINE",
"411.21 794.25 LINE",
"459.58 794.25 LINE",
"355.08 933.58 LINE",
"281.75 933.58 LINE",
"177.25 794.25 LINE"
);
}
);
width = 646;
}
);
leftKerningGroup = S;
note = Scircumflex;
rightKerningGroup = S;
unicode = 015C;
},
{
glyphname = uni0218;
lastChange = "2019-09-03 16:29:54 +0000";
layers = (
{
hints = (
{
horizontal = 1;
place = "{-224.42, 167.17}";
type = Stem;
},
{
horizontal = 1;
place = "{0, 52.83}";
type = Stem;
},
{
horizontal = 1;
place = "{354.62, 51.19}";
type = Stem;
},
{
horizontal = 1;
place = "{684.17, 52.83}";
type = Stem;
},
{
place = "{68.33, 56.46}";
type = Stem;
},
{
place = "{521.14, 56.52}";
type = Stem;
}
);
layerId = "43E2286E-6EE6-4840-9A6A-FE0C69444F4F";
paths = (
{
closed = 1;
nodes = (
"479.79 0 LINE",
"577.66 98.62 LINE",
"577.66 307.25 LINE",
"479.79 405.83 LINE",
"190.08 405.79 LINE",
"124.87 471.91 LINE",
"124.71 618.21 LINE",
"190.08 684.12 LINE",
"541.33 684.21 LINE",
"541.33 737 LINE",
"166.21 737 LINE",
"68.33 638.37 LINE",
"68.33 453.16 LINE",
"166.21 354.58 LINE",
"455.91 354.66 LINE",
"521.08 288.58 LINE",
"521.21 118.83 LINE",
"455.91 52.87 LINE",
"95.87 52.79 LINE",
"95.87 0 LINE"
);
},
{
closed = 1;
nodes = (
"283.66 -224.42 LINE",
"344.21 -57.25 LINE",
"287.37 -57.25 LINE",
"248.83 -224.42 LINE"
);
}
);
width = 646;
}
);
leftKerningGroup = S;
note = uni0218;
rightKerningGroup = S;
unicode = 0218;
},
{
glyphname = uni1E9E;
lastChange = "2019-09-03 16:29:54 +0000";
layers = (
{
hints = (
{
horizontal = 1;
place = "{0, 51.37}";
type = Stem;
},
{
horizontal = 1;
place = "{378.83, 51.29}";
type = Stem;
},
{
horizontal = 1;
place = "{685.65, 51.35}";
type = Stem;
},
{
place = "{93.33, 56.4}";
type = Stem;
},
{
place = "{549.06, 56.4}";
type = Stem;
}
);
layerId = "43E2286E-6EE6-4840-9A6A-FE0C69444F4F";
paths = (
{
closed = 1;
nodes = (
"149.75 0 LINE",
"149.71 619.66 LINE",
"215.04 685.58 LINE",
"406.58 685.71 LINE",
"475.46 615.91 LINE",
"291.25 422.79 LINE",
"291.25 378.79 LINE",
"458.16 378.87 LINE",
"549.04 283.21 LINE",
"549.08 117.33 LINE",
"483.75 51.41 LINE",
"333.87 51.33 LINE",
"245.58 140.04 LINE",
"208.87 103.04 LINE",
"311.21 0 LINE",
"507.62 0 LINE",
"605.46 98.62 LINE",
"605.46 301.41 LINE",
"482.54 430.12 LINE",
"366.08 430.12 LINE",
"528.21 601.33 LINE",
"528.33 638.37 LINE",
"430.46 737 LINE",
"191.16 737 LINE",
"93.33 638.37 LINE",
"93.33 0 LINE"
);
}
);
width = 675;
}
);
leftKerningGroup = B;
note = uni1E9E;
rightKerningGroup = B;
unicode = 1E9E;
},
{
glyphname = uni018F;
lastChange = "2019-09-03 16:29:54 +0000";
layers = (
{
hints = (
{
horizontal = 1;
place = "{0, 51.35}";
type = Stem;
},
{
horizontal = 1;
place = "{347.37, 49.38}";
type = Stem;
},
{
horizontal = 1;
place = "{685.65, 51.35}";
type = Stem;
},
{
place = "{76.66, 56.5}";
type = Stem;
},
{
place = "{617.88, 56.45}";
type = Stem;
}
);
layerId = "43E2286E-6EE6-4840-9A6A-FE0C69444F4F";
paths = (
{
closed = 1;
nodes = (
"576.46 0 LINE",
"674.33 98.62 LINE",
"674.33 638.37 LINE",
"576.46 737 LINE",
"88.41 737 LINE",
"88.41 685.58 LINE",
"552.58 685.71 LINE",
"617.79 619.66 LINE",
"617.84 396.75 LINE",
"76.66 396.75 LINE",
"76.66 98.62 LINE",
"174.54 0 LINE"
);
},
{
closed = 1;
nodes = (
"133.21 117.33 LINE",
"133.12 347.37 LINE",
"617.86 347.37 LINE",
"617.91 117.37 LINE",
"552.62 51.41 LINE",
"198.41 51.29 LINE"
);
}
);
width = 751;
}
);
leftKerningGroup = C;
note = uni018F;
rightKerningGroup = O;
unicode = 018F;
},
{
glyphname = T;
lastChange = "2019-09-03 16:29:54 +0000";
layers = (
{
hints = (
{
horizontal = 1;
place = "{684.21, 52.79}";
type = Stem;
},
{
place = "{244.83, 56.65}";
type = Stem;
}
);
layerId = "43E2286E-6EE6-4840-9A6A-FE0C69444F4F";
paths = (
{
closed = 1;
nodes = (
"301.48 0 LINE",
"301.48 684.21 LINE",
"533.83 684.21 LINE",
"533.83 737 LINE",
"11.66 737 LINE",
"11.66 684.21 LINE",
"244.83 684.21 LINE",
"244.83 0 LINE"
);
}
);
width = 546;
}
);
leftKerningGroup = T;
note = T;
rightKerningGroup = T;
unicode = 0054;
},
{
glyphname = Tbar;
lastChange = "2019-09-03 16:29:54 +0000";
layers = (
{
hints = (
{
horizontal = 1;
place = "{365.91, 45.46}";
type = Stem;
},
{
horizontal = 1;
place = "{684.21, 52.79}";
type = Stem;
},
{
place = "{244.83, 56.65}";
type = Stem;
}
);
layerId = "43E2286E-6EE6-4840-9A6A-FE0C69444F4F";
paths = (
{
closed = 1;
nodes = (
"301.48 0 LINE",
"301.48 365.91 LINE",
"470.75 365.91 LINE",
"470.75 411.37 LINE",
"301.48 411.37 LINE",
"301.48 684.21 LINE",
"533.83 684.21 LINE",
"533.83 737 LINE",
"11.66 737 LINE",
"11.66 684.21 LINE",
"244.83 684.21 LINE",
"244.83 411.37 LINE",
"74.75 411.37 LINE",
"74.75 365.91 LINE",
"244.83 365.91 LINE",
"244.83 0 LINE"
);
}
);
width = 546;
}
);
leftKerningGroup = T;
note = Tbar;
rightKerningGroup = T;
unicode = 0166;
},
{
glyphname = Tcaron;
lastChange = "2019-09-03 16:29:54 +0000";
layers = (
{
hints = (
{
horizontal = 1;
place = "{684.21, 52.79}";
type = Stem;
},
{
horizontal = 1;
place = "{794.25, 38.21}";
type = Stem;
},
{
place = "{244.83, 56.65}";
type = Stem;
}
);
layerId = "43E2286E-6EE6-4840-9A6A-FE0C69444F4F";
paths = (
{
closed = 1;
nodes = (
"301.48 0 LINE",
"301.48 684.21 LINE",
"533.83 684.21 LINE",
"533.83 737 LINE",
"11.66 737 LINE",
"11.66 684.21 LINE",
"244.83 684.21 LINE",
"244.83 0 LINE"
);
},
{
closed = 1;
nodes = (
"308.62 794.25 LINE",
"413.12 933.58 LINE",
"364.75 933.58 LINE",
"277.79 832.46 LINE",
"266.12 832.46 LINE",
"179.16 933.58 LINE",
"130.79 933.58 LINE",
"235.29 794.25 LINE"
);
}
);
width = 546;
}
);
leftKerningGroup = T;
note = Tcaron;
rightKerningGroup = T;
unicode = 0164;
},
{
glyphname = uni0162;
lastChange = "2019-09-03 16:29:54 +0000";
layers = (
{
hints = (
{
horizontal = 1;
place = "{684.21, 52.79}";
type = Stem;
},
{
place = "{244.83, 56.65}";
type = Stem;
}
);
layerId = "43E2286E-6EE6-4840-9A6A-FE0C69444F4F";
paths = (
{
closed = 1;
nodes = (
"262.79 -129.79 LINE",
"301.29 0 LINE",
"301.48 0 LINE",
"301.48 684.21 LINE",
"533.83 684.21 LINE",
"533.83 737 LINE",
"11.66 737 LINE",
"11.66 684.21 LINE",
"244.83 684.21 LINE",
"244.83 0 LINE",
"252.16 0 LINE",
"220.66 -129.79 LINE"
);
}
);
width = 546;
}
);
leftKerningGroup = T;
note = uni0162;
rightKerningGroup = T;
unicode = 0162;
},
{
glyphname = uni021A;
lastChange = "2019-09-03 16:29:54 +0000";
layers = (
{
hints = (
{
horizontal = 1;
place = "{-224.42, 167.17}";
type = Stem;
},
{
horizontal = 1;
place = "{684.21, 52.79}";
type = Stem;
},
{
place = "{244.83, 56.65}";
type = Stem;
}
);
layerId = "43E2286E-6EE6-4840-9A6A-FE0C69444F4F";
paths = (
{
closed = 1;
nodes = (
"301.48 0 LINE",
"301.48 684.21 LINE",
"533.83 684.21 LINE",
"533.83 737 LINE",
"11.66 737 LINE",
"11.66 684.21 LINE",
"244.83 684.21 LINE",
"244.83 0 LINE"
);
},
{
closed = 1;
nodes = (
"241.58 -224.42 LINE",
"302.12 -57.25 LINE",
"245.29 -57.25 LINE",
"206.75 -224.42 LINE"
);
}
);
width = 546;
}
);
leftKerningGroup = T;
note = uni021A;
rightKerningGroup = T;
unicode = 021A;
},
{
glyphname = U;
lastChange = "2019-09-03 16:29:54 +0000";
layers = (
{
hints = (
{
horizontal = 1;
place = "{0, 51.35}";
type = Stem;
},
{
place = "{81.66, 56.42}";
type = Stem;
},
{
place = "{555.33, 56.5}";
type = Stem;
}
);
layerId = "43E2286E-6EE6-4840-9A6A-FE0C69444F4F";
paths = (
{
closed = 1;
nodes = (
"513.96 0 LINE",
"611.83 98.62 LINE",
"611.83 737 LINE",
"555.37 737 LINE",
"555.29 117.25 LINE",
"490.04 51.29 LINE",
"203.33 51.41 LINE",
"138.04 117.41 LINE",
"138.12 737 LINE",
"81.66 737 LINE",
"81.66 98.62 LINE",
"179.54 0 LINE"
);
}
);
width = 694;
}
);
leftKerningGroup = U;
note = U;
unicode = 0055;
},
{
glyphname = Uacute;
lastChange = "2019-09-03 16:29:54 +0000";
layers = (
{
hints = (
{
horizontal = 1;
place = "{0, 51.35}";
type = Stem;
},
{
horizontal = 1;
place = "{794.25, 143.66}";
type = Stem;
},
{
place = "{81.66, 56.42}";
type = Stem;
},
{
place = "{555.33, 56.5}";
type = Stem;
}
);
layerId = "43E2286E-6EE6-4840-9A6A-FE0C69444F4F";
paths = (
{
closed = 1;
nodes = (
"513.96 0 LINE",
"611.83 98.62 LINE",
"611.83 737 LINE",
"555.37 737 LINE",
"555.29 117.25 LINE",
"490.04 51.29 LINE",
"203.33 51.41 LINE",
"138.04 117.41 LINE",
"138.12 737 LINE",
"81.66 737 LINE",
"81.66 98.62 LINE",
"179.54 0 LINE"
);
},
{
closed = 1;
nodes = (
"371.83 794.25 LINE",
"481.12 937.91 LINE",
"414.41 937.91 LINE",
"324.21 794.25 LINE"
);
}
);
width = 694;
}
);
leftKerningGroup = U;
note = Uacute;
unicode = 00DA;
},
{
glyphname = Ubreve;
lastChange = "2019-09-03 16:29:54 +0000";
layers = (
{
hints = (
{
horizontal = 1;
place = "{0, 51.35}";
type = Stem;
},
{
horizontal = 1;
place = "{794.25, 39.91}";
type = Stem;
},
{
place = "{81.66, 56.42}";
type = Stem;
},
{
place = "{221.66, 40.8}";
type = Stem;
},
{
place = "{431.04, 40.79}";
type = Stem;
},
{
place = "{555.33, 56.5}";
type = Stem;
}
);
layerId = "43E2286E-6EE6-4840-9A6A-FE0C69444F4F";
paths = (
{
closed = 1;
nodes = (
"513.96 0 LINE",
"611.83 98.62 LINE",
"611.83 737 LINE",
"555.37 737 LINE",
"555.29 117.25 LINE",
"490.04 51.29 LINE",
"203.33 51.41 LINE",
"138.04 117.41 LINE",
"138.12 737 LINE",
"81.66 737 LINE",
"81.66 98.62 LINE",
"179.54 0 LINE"
);
},
{
closed = 1;
nodes = (
"415.71 794.25 LINE",
"471.83 850.33 LINE",
"471.83 919.58 LINE",
"431.04 919.58 LINE",
"431.04 864.58 LINE",
"400.66 834.16 LINE",
"292.83 834.16 LINE",
"262.46 864.58 LINE",
"262.46 919.58 LINE",
"221.66 919.58 LINE",
"221.66 850.33 LINE",
"277.79 794.25 LINE"
);
}
);
width = 694;
}
);
leftKerningGroup = U;
note = Ubreve;
unicode = 016C;
},
{
glyphname = Ucircumflex;
lastChange = "2019-09-03 16:29:54 +0000";
layers = (
{
hints = (
{
horizontal = 1;
place = "{0, 51.35}";
type = Stem;
},
{
horizontal = 1;
place = "{895.37, 38.21}";
type = Stem;
},
{
place = "{81.66, 56.42}";
type = Stem;
},
{
place = "{555.33, 56.5}";
type = Stem;
}
);
layerId = "43E2286E-6EE6-4840-9A6A-FE0C69444F4F";
paths = (
{
closed = 1;
nodes = (
"513.96 0 LINE",
"611.83 98.62 LINE",
"611.83 737 LINE",
"555.37 737 LINE",
"555.29 117.25 LINE",
"490.04 51.29 LINE",
"203.33 51.41 LINE",
"138.04 117.41 LINE",
"138.12 737 LINE",
"81.66 737 LINE",
"81.66 98.62 LINE",
"179.54 0 LINE"
);
},
{
closed = 1;
nodes = (
"253.96 794.25 LINE",
"340.91 895.37 LINE",
"352.58 895.37 LINE",
"439.54 794.25 LINE",
"487.91 794.25 LINE",
"383.41 933.58 LINE",
"310.08 933.58 LINE",
"205.58 794.25 LINE"
);
}
);
width = 694;
}
);
leftKerningGroup = U;
note = Ucircumflex;
unicode = 00DB;
},
{
glyphname = uni0214;
lastChange = "2019-09-03 16:29:54 +0000";
layers = (
{
hints = (
{
horizontal = 1;
place = "{0, 51.35}";
type = Stem;
},
{
horizontal = 1;
place = "{794.25, 143.66}";
type = Stem;
},
{
place = "{81.66, 56.42}";
type = Stem;
},
{
place = "{555.33, 56.5}";
type = Stem;
}
);
layerId = "43E2286E-6EE6-4840-9A6A-FE0C69444F4F";
paths = (
{
closed = 1;
nodes = (
"513.96 0 LINE",
"611.83 98.62 LINE",
"611.83 737 LINE",
"555.37 737 LINE",
"555.29 117.25 LINE",
"490.04 51.29 LINE",
"203.33 51.41 LINE",
"138.04 117.41 LINE",
"138.12 737 LINE",
"81.66 737 LINE",
"81.66 98.62 LINE",
"179.54 0 LINE"
);
},
{
closed = 1;
nodes = (
"302.75 794.25 LINE",
"212.5 937.91 LINE",
"149.46 937.91 LINE",
"258.75 794.25 LINE"
);
},
{
closed = 1;
nodes = (
"440.62 794.25 LINE",
"350.37 937.91 LINE",
"287.33 937.91 LINE",
"396.62 794.25 LINE"
);
}
);
width = 694;
}
);
leftKerningGroup = U;
note = uni0214;
unicode = 0214;
},
{
glyphname = Udieresis;
lastChange = "2019-09-03 16:29:54 +0000";
layers = (
{
hints = (
{
horizontal = 1;
place = "{0, 51.35}";
type = Stem;
},
{
horizontal = 1;
place = "{794.25, 110.83}";
type = Stem;
},
{
place = "{81.66, 56.42}";
type = Stem;
},
{
place = "{186.33, 55}";
type = Stem;
},
{
place = "{452.16, 55}";
type = Stem;
},
{
place = "{555.33, 56.5}";
type = Stem;
}
);
layerId = "43E2286E-6EE6-4840-9A6A-FE0C69444F4F";
paths = (
{
closed = 1;
nodes = (
"513.96 0 LINE",
"611.83 98.62 LINE",
"611.83 737 LINE",
"555.37 737 LINE",
"555.29 117.25 LINE",
"490.04 51.29 LINE",
"203.33 51.41 LINE",
"138.04 117.41 LINE",
"138.12 737 LINE",
"81.66 737 LINE",
"81.66 98.62 LINE",
"179.54 0 LINE"
);
},
{
closed = 1;
nodes = (
"241.33 794.25 LINE",
"241.33 905.08 LINE",
"186.33 905.08 LINE",
"186.33 794.25 LINE"
);
},
{
closed = 1;
nodes = (
"507.16 794.25 LINE",
"507.16 905.08 LINE",
"452.16 905.08 LINE",
"452.16 794.25 LINE"
);
}
);
width = 694;
}
);
leftKerningGroup = U;
note = Udieresis;
unicode = 00DC;
},
{
glyphname = uni1EE4;
lastChange = "2019-09-03 16:29:54 +0000";
layers = (
{
hints = (
{
horizontal = 1;
place = "{-167.96, 110.71}";
type = Stem;
},
{
horizontal = 1;
place = "{0, 51.35}";
type = Stem;
},
{
place = "{81.66, 56.42}";
type = Stem;
},
{
place = "{319.29, 55}";
type = Stem;
},
{
place = "{555.33, 56.5}";
type = Stem;
}
);
layerId = "43E2286E-6EE6-4840-9A6A-FE0C69444F4F";
paths = (
{
closed = 1;
nodes = (
"513.96 0 LINE",
"611.83 98.62 LINE",
"611.83 737 LINE",
"555.37 737 LINE",
"555.29 117.25 LINE",
"490.04 51.29 LINE",
"203.33 51.41 LINE",
"138.04 117.41 LINE",
"138.12 737 LINE",
"81.66 737 LINE",
"81.66 98.62 LINE",
"179.54 0 LINE"
);
},
{
closed = 1;
nodes = (
"374.29 -167.96 LINE",
"374.29 -57.25 LINE",
"319.29 -57.25 LINE",
"319.29 -167.96 LINE"
);
}
);
width = 694;
}
);
leftKerningGroup = U;
note = uni1EE4;
unicode = 1EE4;
},
{
glyphname = Ugrave;
lastChange = "2019-09-03 16:29:54 +0000";
layers = (
{
hints = (
{
horizontal = 1;
place = "{0, 51.35}";
type = Stem;
},
{
horizontal = 1;
place = "{794.25, 143.66}";
type = Stem;
},
{
place = "{81.66, 56.42}";
type = Stem;
},
{
place = "{555.33, 56.5}";
type = Stem;
}
);
layerId = "43E2286E-6EE6-4840-9A6A-FE0C69444F4F";
paths = (
{
closed = 1;
nodes = (
"513.96 0 LINE",
"611.83 98.62 LINE",
"611.83 737 LINE",
"555.37 737 LINE",
"555.29 117.25 LINE",
"490.04 51.29 LINE",
"203.33 51.41 LINE",
"138.04 117.41 LINE",
"138.12 737 LINE",
"81.66 737 LINE",
"81.66 98.62 LINE",
"179.54 0 LINE"
);
},
{
closed = 1;
nodes = (
"367.41 794.25 LINE",
"277.21 937.91 LINE",
"210.5 937.91 LINE",
"319.79 794.25 LINE"
);
}
);
width = 694;
}
);
leftKerningGroup = U;
note = Ugrave;
unicode = 00D9;
},
{
glyphname = uni1EE6;
lastChange = "2019-09-03 16:29:54 +0000";
layers = (
{
hints = (
{
horizontal = 1;
place = "{0, 51.35}";
type = Stem;
},
{
horizontal = 1;
place = "{794.25, 47.54}";
type = Stem;
},
{
horizontal = 1;
place = "{953.66, 38.09}";
type = Stem;
},
{
place = "{81.66, 56.42}";
type = Stem;
},
{
place = "{327.91, 41.05}";
type = Stem;
},
{
place = "{394.5, 43.46}";
type = Stem;
},
{
place = "{555.33, 56.5}";
type = Stem;
}
);
layerId = "43E2286E-6EE6-4840-9A6A-FE0C69444F4F";
paths = (
{
closed = 1;
nodes = (
"513.96 0 LINE",
"611.83 98.62 LINE",
"611.83 737 LINE",
"555.37 737 LINE",
"555.29 117.25 LINE",
"490.04 51.29 LINE",
"203.33 51.41 LINE",
"138.04 117.41 LINE",
"138.12 737 LINE",
"81.66 737 LINE",
"81.66 98.62 LINE",
"179.54 0 LINE"
);
},
{
closed = 1;
nodes = (
"368.96 794.25 LINE",
"368.96 825.29 LINE",
"437.96 887.66 LINE",
"437.96 952.71 LINE",
"399.96 991.75 LINE",
"312.04 991.75 LINE",
"269.96 947.83 LINE",
"298.79 919.54 LINE",
"331.66 953.66 LINE",
"380.04 953.66 LINE",
"394.5 938.54 LINE",
"394.5 903.37 LINE",
"327.91 841.79 LINE",
"327.91 794.25 LINE"
);
}
);
width = 694;
}
);
leftKerningGroup = U;
note = uni1EE6;
unicode = 1EE6;
},
{
glyphname = Uhorn;
lastChange = "2019-09-03 16:29:54 +0000";
layers = (
{
hints = (
{
horizontal = 1;
place = "{0, 51.35}";
type = Stem;
},
{
horizontal = 1;
place = "{624.46, 39.95}";
type = Stem;
},
{
place = "{81.66, 56.42}";
type = Stem;
},
{
place = "{555.33, 56.5}";
type = Stem;
}
);
layerId = "43E2286E-6EE6-4840-9A6A-FE0C69444F4F";
paths = (
{
closed = 1;
nodes = (
"513.96 0 LINE",
"611.83 98.62 LINE",
"611.83 624.46 LINE",
"703.04 624.46 LINE",
"756.29 802.54 LINE",
"696.96 802.54 LINE",
"668.58 664.41 LINE",
"611.83 664.41 LINE",
"611.83 737 LINE",
"555.37 737 LINE",
"555.29 117.25 LINE",
"490.04 51.29 LINE",
"203.33 51.41 LINE",
"138.04 117.41 LINE",
"138.12 737 LINE",
"81.66 737 LINE",
"81.66 98.62 LINE",
"179.54 0 LINE"
);
}
);
width = 694;
}
);
leftKerningGroup = Uhorn;
note = Uhorn;
rightKerningGroup = Uhorn;
unicode = 01AF;
},
{
glyphname = uni1EE8;
lastChange = "2019-09-03 16:29:54 +0000";
layers = (
{
hints = (
{
horizontal = 1;
place = "{0, 51.35}";
type = Stem;
},
{
horizontal = 1;
place = "{624.46, 39.95}";
type = Stem;
},
{
horizontal = 1;
place = "{794.25, 143.66}";
type = Stem;
},
{
place = "{81.66, 56.42}";
type = Stem;
},
{
place = "{555.33, 56.5}";
type = Stem;
}
);
layerId = "43E2286E-6EE6-4840-9A6A-FE0C69444F4F";
paths = (
{
closed = 1;
nodes = (
"513.96 0 LINE",
"611.83 98.62 LINE",
"611.83 624.46 LINE",
"703.04 624.46 LINE",
"756.29 802.54 LINE",
"696.96 802.54 LINE",
"668.58 664.41 LINE",
"611.83 664.41 LINE",
"611.83 737 LINE",
"555.37 737 LINE",
"555.29 117.25 LINE",
"490.04 51.29 LINE",
"203.33 51.41 LINE",
"138.04 117.41 LINE",
"138.12 737 LINE",
"81.66 737 LINE",
"81.66 98.62 LINE",
"179.54 0 LINE"
);
},
{
closed = 1;
nodes = (
"371.83 794.25 LINE",
"481.12 937.91 LINE",
"414.41 937.91 LINE",
"324.21 794.25 LINE"
);
}
);
width = 694;
}
);
note = uni1EE8;
rightKerningGroup = Uhorn;
unicode = 1EE8;
},
{
glyphname = uni1EF0;
lastChange = "2019-09-03 16:29:54 +0000";
layers = (
{
hints = (
{
horizontal = 1;
place = "{-167.96, 110.71}";
type = Stem;
},
{
horizontal = 1;
place = "{0, 51.35}";
type = Stem;
},
{
horizontal = 1;
place = "{624.46, 39.95}";
type = Stem;
},
{
place = "{81.66, 56.42}";
type = Stem;
},
{
place = "{319.29, 55}";
type = Stem;
},
{
place = "{555.33, 56.5}";
type = Stem;
}
);
layerId = "43E2286E-6EE6-4840-9A6A-FE0C69444F4F";
paths = (
{
closed = 1;
nodes = (
"513.96 0 LINE",
"611.83 98.62 LINE",
"611.83 624.46 LINE",
"703.04 624.46 LINE",
"756.29 802.54 LINE",
"696.96 802.54 LINE",
"668.58 664.41 LINE",
"611.83 664.41 LINE",
"611.83 737 LINE",
"555.37 737 LINE",
"555.29 117.25 LINE",
"490.04 51.29 LINE",
"203.33 51.41 LINE",
"138.04 117.41 LINE",
"138.12 737 LINE",
"81.66 737 LINE",
"81.66 98.62 LINE",
"179.54 0 LINE"
);
},
{
closed = 1;
nodes = (
"374.29 -167.96 LINE",
"374.29 -57.25 LINE",
"319.29 -57.25 LINE",
"319.29 -167.96 LINE"
);
}
);
width = 694;
}
);
note = uni1EF0;
rightKerningGroup = Uhorn;
unicode = 1EF0;
},
{
glyphname = uni1EEA;
lastChange = "2019-09-03 16:29:54 +0000";
layers = (
{
hints = (
{
horizontal = 1;
place = "{0, 51.35}";
type = Stem;
},
{
horizontal = 1;
place = "{624.46, 39.95}";
type = Stem;
},
{
horizontal = 1;
place = "{794.25, 143.66}";
type = Stem;
},
{
place = "{81.66, 56.42}";
type = Stem;
},
{
place = "{555.33, 56.5}";
type = Stem;
}
);
layerId = "43E2286E-6EE6-4840-9A6A-FE0C69444F4F";
paths = (
{
closed = 1;
nodes = (
"513.96 0 LINE",
"611.83 98.62 LINE",
"611.83 624.46 LINE",
"703.04 624.46 LINE",
"756.29 802.54 LINE",
"696.96 802.54 LINE",
"668.58 664.41 LINE",
"611.83 664.41 LINE",
"611.83 737 LINE",
"555.37 737 LINE",
"555.29 117.25 LINE",
"490.04 51.29 LINE",
"203.33 51.41 LINE",
"138.04 117.41 LINE",
"138.12 737 LINE",
"81.66 737 LINE",
"81.66 98.62 LINE",
"179.54 0 LINE"
);
},
{
closed = 1;
nodes = (
"367.41 794.25 LINE",
"277.21 937.91 LINE",
"210.5 937.91 LINE",
"319.79 794.25 LINE"
);
}
);
width = 694;
}
);
note = uni1EEA;
rightKerningGroup = Uhorn;
unicode = 1EEA;
},
{
glyphname = uni1EEC;
lastChange = "2019-09-03 16:29:54 +0000";
layers = (
{
hints = (
{
horizontal = 1;
place = "{0, 51.35}";
type = Stem;
},
{
horizontal = 1;
place = "{624.46, 39.95}";
type = Stem;
},
{
horizontal = 1;
place = "{794.25, 47.54}";
type = Stem;
},
{
horizontal = 1;
place = "{953.66, 38.09}";
type = Stem;
},
{
place = "{81.66, 56.42}";
type = Stem;
},
{
place = "{394.5, 43.46}";
type = Stem;
},
{
place = "{555.33, 56.5}";
type = Stem;
},
{
place = "{327.91, 41.05}";
type = Stem;
}
);
layerId = "43E2286E-6EE6-4840-9A6A-FE0C69444F4F";
paths = (
{
closed = 1;
nodes = (
"513.96 0 LINE",
"611.83 98.62 LINE",
"611.83 624.46 LINE",
"703.04 624.46 LINE",
"756.29 802.54 LINE",
"696.96 802.54 LINE",
"668.58 664.41 LINE",
"611.83 664.41 LINE",
"611.83 737 LINE",
"555.37 737 LINE",
"555.29 117.25 LINE",
"490.04 51.29 LINE",
"203.33 51.41 LINE",
"138.04 117.41 LINE",
"138.12 737 LINE",
"81.66 737 LINE",
"81.66 98.62 LINE",
"179.54 0 LINE"
);
},
{
closed = 1;
nodes = (
"368.96 794.25 LINE",
"368.96 825.29 LINE",
"437.96 887.66 LINE",
"437.96 952.71 LINE",
"399.96 991.75 LINE",
"312.04 991.75 LINE",
"269.96 947.83 LINE",
"298.79 919.54 LINE",
"331.66 953.66 LINE",
"380.04 953.66 LINE",
"394.5 938.54 LINE",
"394.5 903.37 LINE",
"327.91 841.79 LINE",
"327.91 794.25 LINE"
);
}
);
width = 694;
}
);
note = uni1EEC;
rightKerningGroup = Uhorn;
unicode = 1EEC;
},
{
glyphname = uni1EEE;
lastChange = "2019-09-03 16:29:54 +0000";
layers = (
{
hints = (
{
horizontal = 1;
place = "{0, 51.35}";
type = Stem;
},
{
horizontal = 1;
place = "{624.46, 39.95}";
type = Stem;
},
{
horizontal = 1;
place = "{794.25, 39.21}";
type = Stem;
},
{
horizontal = 1;
place = "{867.58, 39.21}";
type = Stem;
},
{
place = "{81.66, 56.42}";
type = Stem;
},
{
place = "{187.83, 34.29}";
type = Stem;
},
{
place = "{472.54, 34.29}";
type = Stem;
},
{
place = "{555.33, 56.5}";
type = Stem;
}
);
layerId = "43E2286E-6EE6-4840-9A6A-FE0C69444F4F";
paths = (
{
closed = 1;
nodes = (
"513.96 0 LINE",
"611.83 98.62 LINE",
"611.83 624.46 LINE",
"703.04 624.46 LINE",
"756.29 802.54 LINE",
"696.96 802.54 LINE",
"668.58 664.41 LINE",
"611.83 664.41 LINE",
"611.83 737 LINE",
"555.37 737 LINE",
"555.29 117.25 LINE",
"490.04 51.29 LINE",
"203.33 51.41 LINE",
"138.04 117.41 LINE",
"138.12 737 LINE",
"81.66 737 LINE",
"81.66 98.62 LINE",
"179.54 0 LINE"
);
},
{
closed = 1;
nodes = (
"452 794.25 LINE",
"506.33 849.58 LINE",
"507.33 905.66 LINE",
"473.62 905.66 LINE",
"471.46 869.71 LINE",
"433.33 833.46 LINE",
"398.87 833.46 LINE",
"325.12 906.79 LINE",
"242.66 906.79 LINE",
"188.33 851.41 LINE",
"187.33 795.33 LINE",
"221.04 795.33 LINE",
"223.21 831.21 LINE",
"261.33 867.58 LINE",
"304.62 867.58 LINE",
"378.29 794.25 LINE"
);
}
);
width = 694;
}
);
note = uni1EEE;
rightKerningGroup = Uhorn;
unicode = 1EEE;
},
{
glyphname = Uhungarumlaut;
lastChange = "2019-09-03 16:29:54 +0000";
layers = (
{
hints = (
{
horizontal = 1;
place = "{0, 51.35}";
type = Stem;
},
{
horizontal = 1;
place = "{794.25, 143.66}";
type = Stem;
},
{
place = "{81.66, 56.42}";
type = Stem;
},
{
place = "{555.33, 56.5}";
type = Stem;
}
);
layerId = "43E2286E-6EE6-4840-9A6A-FE0C69444F4F";
paths = (
{
closed = 1;
nodes = (
"513.96 0 LINE",
"611.83 98.62 LINE",
"611.83 737 LINE",
"555.37 737 LINE",
"555.29 117.25 LINE",
"490.04 51.29 LINE",
"203.33 51.41 LINE",
"138.04 117.41 LINE",
"138.12 737 LINE",
"81.66 737 LINE",
"81.66 98.62 LINE",
"179.54 0 LINE"
);
},
{
closed = 1;
nodes = (
"297.58 794.25 LINE",
"406.87 937.91 LINE",
"343.83 937.91 LINE",
"253.58 794.25 LINE"
);
},
{
closed = 1;
nodes = (
"435.46 794.25 LINE",
"544.75 937.91 LINE",
"481.71 937.91 LINE",
"391.46 794.25 LINE"
);
}
);
width = 694;
}
);
leftKerningGroup = U;
note = Uhungarumlaut;
unicode = 0170;
},
{
glyphname = uni0216;
lastChange = "2019-09-03 16:29:54 +0000";
layers = (
{
hints = (
{
horizontal = 1;
place = "{0, 51.35}";
type = Stem;
},
{
horizontal = 1;
place = "{879.62, 39.96}";
type = Stem;
},
{
place = "{81.66, 56.42}";
type = Stem;
},
{
place = "{221.66, 40.8}";
type = Stem;
},
{
place = "{431.04, 40.79}";
type = Stem;
},
{
place = "{555.33, 56.5}";
type = Stem;
}
);
layerId = "43E2286E-6EE6-4840-9A6A-FE0C69444F4F";
paths = (
{
closed = 1;
nodes = (
"513.96 0 LINE",
"611.83 98.62 LINE",
"611.83 737 LINE",
"555.37 737 LINE",
"555.29 117.25 LINE",
"490.04 51.29 LINE",
"203.33 51.41 LINE",
"138.04 117.41 LINE",
"138.12 737 LINE",
"81.66 737 LINE",
"81.66 98.62 LINE",
"179.54 0 LINE"
);
},
{
closed = 1;
nodes = (
"262.46 794.25 LINE",
"262.46 849.25 LINE",
"292.83 879.62 LINE",
"400.66 879.62 LINE",
"431.04 849.25 LINE",
"431.04 794.25 LINE",
"471.83 794.25 LINE",
"471.83 863.46 LINE",
"415.71 919.58 LINE",
"277.79 919.58 LINE",
"221.66 863.46 LINE",
"221.66 794.25 LINE"
);
}
);
width = 694;
}
);
leftKerningGroup = U;
note = uni0216;
unicode = 0216;
},
{
glyphname = Umacron;
lastChange = "2019-09-03 16:29:54 +0000";
layers = (
{
hints = (
{
horizontal = 1;
place = "{0, 51.35}";
type = Stem;
},
{
horizontal = 1;
place = "{794.25, 43.96}";
type = Stem;
},
{
place = "{81.66, 56.42}";
type = Stem;
},
{
place = "{555.33, 56.5}";
type = Stem;
}
);
layerId = "43E2286E-6EE6-4840-9A6A-FE0C69444F4F";
paths = (
{
closed = 1;
nodes = (
"513.96 0 LINE",
"611.83 98.62 LINE",
"611.83 737 LINE",
"555.37 737 LINE",
"555.29 117.25 LINE",
"490.04 51.29 LINE",
"203.33 51.41 LINE",
"138.04 117.41 LINE",
"138.12 737 LINE",
"81.66 737 LINE",
"81.66 98.62 LINE",
"179.54 0 LINE"
);
},
{
closed = 1;
nodes = (
"507.16 794.25 LINE",
"507.16 838.21 LINE",
"186.33 838.21 LINE",
"186.33 794.25 LINE"
);
}
);
width = 694;
}
);
leftKerningGroup = U;
note = Umacron;
unicode = 016A;
},
{
glyphname = Uogonek;
lastChange = "2019-09-03 16:29:54 +0000";
layers = (
{
hints = (
{
horizontal = 1;
place = "{-149.63, 41.79}";
type = Stem;
},
{
horizontal = 1;
place = "{0, 51.35}";
type = Stem;
},
{
place = "{81.66, 56.42}";
type = Stem;
},
{
place = "{307.5, 39.96}";
type = Stem;
},
{
place = "{555.33, 56.5}";
type = Stem;
}
);
layerId = "43E2286E-6EE6-4840-9A6A-FE0C69444F4F";
paths = (
{
closed = 1;
nodes = (
"401 -149.63 LINE",
"401 -107.84 LINE",
"375.71 -107.84 LINE",
"347.46 -79.59 LINE",
"347.46 -41.25 LINE",
"401 0 LINE",
"513.96 0 LINE",
"611.83 98.62 LINE",
"611.83 737 LINE",
"555.37 737 LINE",
"555.29 117.25 LINE",
"490.04 51.29 LINE",
"203.33 51.41 LINE",
"138.04 117.41 LINE",
"138.12 737 LINE",
"81.66 737 LINE",
"81.66 98.62 LINE",
"179.54 0 LINE",
"350.37 0 LINE",
"307.5 -33 LINE",
"307.5 -96.75 LINE",
"360.29 -149.63 LINE"
);
}
);
width = 694;
}
);
leftKerningGroup = U;
note = Uogonek;
unicode = 0172;
},
{
glyphname = Uring;
lastChange = "2019-09-03 16:29:54 +0000";
layers = (
{
hints = (
{
horizontal = 1;
place = "{0, 51.35}";
type = Stem;
},
{
horizontal = 1;
place = "{794.25, 35.54}";
type = Stem;
},
{
horizontal = 1;
place = "{940.5, 35.54}";
type = Stem;
},
{
place = "{81.66, 56.42}";
type = Stem;
},
{
place = "{250.29, 41.04}";
type = Stem;
},
{
place = "{402.16, 41.05}";
type = Stem;
},
{
place = "{555.33, 56.5}";
type = Stem;
}
);
layerId = "43E2286E-6EE6-4840-9A6A-FE0C69444F4F";
paths = (
{
closed = 1;
nodes = (
"513.96 0 LINE",
"611.83 98.62 LINE",
"611.83 737 LINE",
"555.37 737 LINE",
"555.29 117.25 LINE",
"490.04 51.29 LINE",
"203.33 51.41 LINE",
"138.04 117.41 LINE",
"138.12 737 LINE",
"81.66 737 LINE",
"81.66 98.62 LINE",
"179.54 0 LINE"
);
},
{
closed = 1;
nodes = (
"387.83 794.25 LINE",
"443.21 849.58 LINE",
"443.21 920.66 LINE",
"387.83 976.04 LINE",
"305.66 976.04 LINE",
"250.29 920.66 LINE",
"250.29 849.58 LINE",
"305.66 794.25 LINE"
);
},
{
closed = 1;
nodes = (
"291.33 862 LINE",
"291.33 908.21 LINE",
"323.66 940.5 LINE",
"369.83 940.5 LINE",
"402.16 908.21 LINE",
"402.16 862 LINE",
"369.83 829.79 LINE",
"323.66 829.79 LINE"
);
}
);
width = 694;
}
);
leftKerningGroup = U;
note = Uring;
unicode = 016E;
},
{
glyphname = Utilde;
lastChange = "2019-09-03 16:29:54 +0000";
layers = (
{
hints = (
{
horizontal = 1;
place = "{0, 51.35}";
type = Stem;
},
{
horizontal = 1;
place = "{794.25, 39.21}";
type = Stem;
},
{
horizontal = 1;
place = "{867.58, 39.21}";
type = Stem;
},
{
place = "{81.66, 56.42}";
type = Stem;
},
{
place = "{187.83, 34.29}";
type = Stem;
},
{
place = "{472.54, 34.29}";
type = Stem;
},
{
place = "{555.33, 56.5}";
type = Stem;
}
);
layerId = "43E2286E-6EE6-4840-9A6A-FE0C69444F4F";
paths = (
{
closed = 1;
nodes = (
"513.96 0 LINE",
"611.83 98.62 LINE",
"611.83 737 LINE",
"555.37 737 LINE",
"555.29 117.25 LINE",
"490.04 51.29 LINE",
"203.33 51.41 LINE",
"138.04 117.41 LINE",
"138.12 737 LINE",
"81.66 737 LINE",
"81.66 98.62 LINE",
"179.54 0 LINE"
);
},
{
closed = 1;
nodes = (
"452 794.25 LINE",
"506.33 849.58 LINE",
"507.33 905.66 LINE",
"473.62 905.66 LINE",
"471.46 869.71 LINE",
"433.33 833.46 LINE",
"398.87 833.46 LINE",
"325.12 906.79 LINE",
"242.66 906.79 LINE",
"188.33 851.41 LINE",
"187.33 795.33 LINE",
"221.04 795.33 LINE",
"223.21 831.21 LINE",
"261.33 867.58 LINE",
"304.62 867.58 LINE",
"378.29 794.25 LINE"
);
}
);
width = 694;
}
);
leftKerningGroup = U;
note = Utilde;
unicode = 0168;
},
{
glyphname = V;
lastChange = "2019-09-03 16:29:54 +0000";
layers = (
{
hints = (
{
horizontal = 1;
place = "{0, 54.25}";
type = Stem;
},
{
place = "{16.66, 612.84}";
type = Stem;
}
);
layerId = "43E2286E-6EE6-4840-9A6A-FE0C69444F4F";
paths = (
{
closed = 1;
nodes = (
"369.91 0 LINE",
"629.5 737 LINE",
"570.75 737 LINE",
"333.54 54.25 LINE",
"312.29 54.25 LINE",
"75 737 LINE",
"16.66 737 LINE",
"275.5 0 LINE"
);
}
);
width = 646;
}
);
leftKerningGroup = V;
note = V;
rightKerningGroup = V;
unicode = 0056;
},
{
glyphname = W;
lastChange = "2019-09-03 16:29:54 +0000";
layers = (
{
hints = (
{
horizontal = 1;
place = "{0, 54.25}";
type = Stem;
},
{
place = "{16.66, 867.17}";
type = Stem;
}
);
layerId = "43E2286E-6EE6-4840-9A6A-FE0C69444F4F";
paths = (
{
closed = 1;
nodes = (
"306 0 LINE",
"450.16 622.91 LINE",
"594.66 0 LINE",
"690.96 0 LINE",
"883.83 737 LINE",
"825.25 737 LINE",
"654 54.25 LINE",
"632.75 54.25 LINE",
"476.96 737 LINE",
"423.37 737 LINE",
"267.58 54.25 LINE",
"246.33 54.25 LINE",
"75.08 737 LINE",
"16.66 737 LINE",
"209.54 0 LINE"
);
}
);
width = 901;
}
);
leftKerningGroup = W;
note = W;
rightKerningGroup = W;
unicode = 0057;
},
{
glyphname = Wacute;
lastChange = "2019-09-03 16:29:54 +0000";
layers = (
{
hints = (
{
horizontal = 1;
place = "{0, 54.25}";
type = Stem;
},
{
horizontal = 1;
place = "{794.25, 143.66}";
type = Stem;
},
{
place = "{16.66, 867.17}";
type = Stem;
}
);
layerId = "43E2286E-6EE6-4840-9A6A-FE0C69444F4F";
paths = (
{
closed = 1;
nodes = (
"306 0 LINE",
"450.16 622.91 LINE",
"594.66 0 LINE",
"690.96 0 LINE",
"883.83 737 LINE",
"825.25 737 LINE",
"654 54.25 LINE",
"632.75 54.25 LINE",
"476.96 737 LINE",
"423.37 737 LINE",
"267.58 54.25 LINE",
"246.33 54.25 LINE",
"75.08 737 LINE",
"16.66 737 LINE",
"209.54 0 LINE"
);
},
{
closed = 1;
nodes = (
"475.25 794.25 LINE",
"584.54 937.91 LINE",
"517.83 937.91 LINE",
"427.62 794.25 LINE"
);
}
);
width = 901;
}
);
leftKerningGroup = W;
note = Wacute;
rightKerningGroup = W;
unicode = 1E82;
},
{
glyphname = Wcircumflex;
lastChange = "2019-09-03 16:29:54 +0000";
layers = (
{
hints = (
{
horizontal = 1;
place = "{0, 54.25}";
type = Stem;
},
{
horizontal = 1;
place = "{895.37, 38.21}";
type = Stem;
},
{
place = "{16.66, 867.17}";
type = Stem;
}
);
layerId = "43E2286E-6EE6-4840-9A6A-FE0C69444F4F";
paths = (
{
closed = 1;
nodes = (
"306 0 LINE",
"450.16 622.91 LINE",
"594.66 0 LINE",
"690.96 0 LINE",
"883.83 737 LINE",
"825.25 737 LINE",
"654 54.25 LINE",
"632.75 54.25 LINE",
"476.96 737 LINE",
"423.37 737 LINE",
"267.58 54.25 LINE",
"246.33 54.25 LINE",
"75.08 737 LINE",
"16.66 737 LINE",
"209.54 0 LINE"
);
},
{
closed = 1;
nodes = (
"357.37 794.25 LINE",
"444.33 895.37 LINE",
"456 895.37 LINE",
"542.96 794.25 LINE",
"591.33 794.25 LINE",
"486.83 933.58 LINE",
"413.5 933.58 LINE",
"309 794.25 LINE"
);
}
);
width = 901;
}
);
leftKerningGroup = W;
note = Wcircumflex;
rightKerningGroup = W;
unicode = 0174;
},
{
glyphname = Wdieresis;
lastChange = "2019-09-03 16:29:54 +0000";
layers = (
{
hints = (
{
horizontal = 1;
place = "{0, 54.25}";
type = Stem;
},
{
horizontal = 1;
place = "{794.25, 110.83}";
type = Stem;
},
{
place = "{289.75, 55}";
type = Stem;
},
{
place = "{555.58, 55}";
type = Stem;
}
);
layerId = "43E2286E-6EE6-4840-9A6A-FE0C69444F4F";
paths = (
{
closed = 1;
nodes = (
"306 0 LINE",
"450.16 622.91 LINE",
"594.66 0 LINE",
"690.96 0 LINE",
"883.83 737 LINE",
"825.25 737 LINE",
"654 54.25 LINE",
"632.75 54.25 LINE",
"476.96 737 LINE",
"423.37 737 LINE",
"267.58 54.25 LINE",
"246.33 54.25 LINE",
"75.08 737 LINE",
"16.66 737 LINE",
"209.54 0 LINE"
);
},
{
closed = 1;
nodes = (
"344.75 794.25 LINE",
"344.75 905.08 LINE",
"289.75 905.08 LINE",
"289.75 794.25 LINE"
);
},
{
closed = 1;
nodes = (
"610.58 794.25 LINE",
"610.58 905.08 LINE",
"555.58 905.08 LINE",
"555.58 794.25 LINE"
);
}
);
width = 901;
}
);
leftKerningGroup = W;
note = Wdieresis;
rightKerningGroup = W;
unicode = 1E84;
},
{
glyphname = Wgrave;
lastChange = "2019-09-03 16:29:54 +0000";
layers = (
{
hints = (
{
horizontal = 1;
place = "{0, 54.25}";
type = Stem;
},
{
horizontal = 1;
place = "{794.25, 143.66}";
type = Stem;
},
{
place = "{16.66, 867.17}";
type = Stem;
}
);
layerId = "43E2286E-6EE6-4840-9A6A-FE0C69444F4F";
paths = (
{
closed = 1;
nodes = (
"306 0 LINE",
"450.16 622.91 LINE",
"594.66 0 LINE",
"690.96 0 LINE",
"883.83 737 LINE",
"825.25 737 LINE",
"654 54.25 LINE",
"632.75 54.25 LINE",
"476.96 737 LINE",
"423.37 737 LINE",
"267.58 54.25 LINE",
"246.33 54.25 LINE",
"75.08 737 LINE",
"16.66 737 LINE",
"209.54 0 LINE"
);
},
{
closed = 1;
nodes = (
"470.83 794.25 LINE",
"380.62 937.91 LINE",
"313.91 937.91 LINE",
"423.21 794.25 LINE"
);
}
);
width = 901;
}
);
leftKerningGroup = W;
note = Wgrave;
rightKerningGroup = W;
unicode = 1E80;
},
{
glyphname = X;
lastChange = "2019-09-03 16:29:54 +0000";
layers = (
{
hints = (
{
horizontal = 1;
place = "{340.62, 62.71}";
type = Stem;
},
{
place = "{16.66, 566.84}";
type = Stem;
}
);
layerId = "43E2286E-6EE6-4840-9A6A-FE0C69444F4F";
paths = (
{
closed = 1;
nodes = (
"81 0 LINE",
"288.87 340.62 LINE",
"311.46 340.62 LINE",
"519.33 0 LINE",
"583.5 0 LINE",
"354.33 372.91 LINE",
"582.79 737 LINE",
"518.54 737 LINE",
"310.96 403.33 LINE",
"288.71 403.33 LINE",
"81.21 737 LINE",
"17.37 737 LINE",
"245.83 372.91 LINE",
"16.66 0 LINE"
);
}
);
width = 600;
}
);
leftKerningGroup = X;
note = X;
rightKerningGroup = X;
unicode = 0058;
},
{
glyphname = Y;
lastChange = "2019-09-03 16:29:54 +0000";
layers = (
{
hints = (
{
horizontal = 1;
place = "{0, 737}";
type = Stem;
},
{
place = "{274.04, 56.5}";
type = Stem;
}
);
layerId = "43E2286E-6EE6-4840-9A6A-FE0C69444F4F";
paths = (
{
closed = 1;
nodes = (
"330.54 0 LINE",
"330.54 319.62 LINE",
"588.33 737 LINE",
"524.08 737 LINE",
"310 386.83 LINE",
"294.58 386.83 LINE",
"80.41 737 LINE",
"16.66 737 LINE",
"274.04 320.46 LINE",
"274.04 0 LINE"
);
}
);
width = 605;
}
);
leftKerningGroup = Y;
note = Y;
rightKerningGroup = Y;
unicode = 0059;
},
{
glyphname = Yacute;
lastChange = "2019-09-03 16:29:54 +0000";
layers = (
{
hints = (
{
horizontal = 1;
place = "{793.91, 143.67}";
type = Stem;
},
{
place = "{274.04, 56.5}";
type = Stem;
}
);
layerId = "43E2286E-6EE6-4840-9A6A-FE0C69444F4F";
paths = (
{
closed = 1;
nodes = (
"330.54 0 LINE",
"330.54 319.62 LINE",
"588.33 737 LINE",
"524.08 737 LINE",
"310 386.83 LINE",
"294.58 386.83 LINE",
"80.41 737 LINE",
"16.66 737 LINE",
"274.04 320.46 LINE",
"274.04 0 LINE"
);
},
{
closed = 1;
nodes = (
"327.62 793.91 LINE",
"436.91 937.58 LINE",
"370.21 937.58 LINE",
"280 793.91 LINE"
);
}
);
width = 605;
}
);
leftKerningGroup = Y;
note = Yacute;
rightKerningGroup = Y;
unicode = 00DD;
},
